<?xml version="1.0" encoding="utf-8"?>
<!-- Generator: Adobe Illustrator 26.0.3, SVG Export Plug-In . SVG Version: 6.00 Build 0)  -->
<svg version="1.1" id="Layer_1" xmlns="http://www.w3.org/2000/svg" xmlns:xlink="http://www.w3.org/1999/xlink" x="0px" y="0px"
	 viewBox="0 0 930.2 612.8" style="enable-background:new 0 0 930.2 612.8;" xml:space="preserve">
<style type="text/css">
	.st0{opacity:0.2;fill:#FFFFFF;stroke:#FF9528;stroke-width:10;stroke-miterlimit:10;enable-background:new    ;}
	.st1{fill:#EDC7B2;}
	.st2{fill:#42210B;}
	.st3{fill:#FFFFFF;stroke:#FFFFFF;stroke-width:1;stroke-miterlimit:10;}
	.st4{fill:#008807;stroke:#000000;stroke-width:1;stroke-miterlimit:9.9998;}
	.st5{stroke:#000000;stroke-width:1;stroke-miterlimit:9.9997;}
	.st6{fill:#FFFFFF;stroke:#FFFFFF;stroke-width:1;stroke-miterlimit:10.0002;}
	.st7{fill:#008807;stroke:#000000;stroke-width:1;stroke-miterlimit:9.9999;}
	.st8{stroke:#000000;stroke-width:1;stroke-miterlimit:10.0005;}
	.st9{fill:url(#SVGID_1_);}
	.st10{fill:#EDC7B2;stroke:#EDC7B2;stroke-miterlimit:10;}
	.st11{fill:url(#SVGID_00000041256122521001220010000003425864345662807965_);}
	.st12{fill:#553A34;stroke:#42210B;stroke-miterlimit:10;}
	.st13{fill:#42210B;stroke:#42210B;stroke-miterlimit:10;}
	.st14{opacity:0.74;fill:#FFCCD5;stroke:#000000;stroke-width:1;stroke-miterlimit:9.9998;enable-background:new    ;}
	.st15{opacity:0.74;fill:#FFCCD5;stroke:#000000;stroke-width:1;stroke-miterlimit:9.9997;enable-background:new    ;}
	.st16{opacity:0.74;fill:none;stroke:#000000;stroke-miterlimit:10;enable-background:new    ;}
	.st17{fill:none;stroke:#000000;stroke-miterlimit:10;}
	.st18{fill:#F7931E;stroke:#F7931E;stroke-width:3;stroke-miterlimit:10;}
	.st19{fill:none;}
	.st20{fill:#EDC7B2;stroke:#EDC7B2;stroke-width:3;stroke-miterlimit:10;}
	.st21{fill:#CCCCCC;stroke:#CCCCCC;stroke-width:3;stroke-miterlimit:10;}
	.st22{stroke:#000000;stroke-width:3;stroke-miterlimit:10;}
	.st23{fill:#39B54A;}
	.st24{fill:url(#SVGID_00000037654150197782817200000006557988078763572410_);}
	.st25{fill:url(#SVGID_00000152249823427370704780000012564601146295594646_);}
	.st26{fill:#C69C6D;}
	.st27{fill:url(#SVGID_00000163789567579433101540000004774293778436219551_);}
	.st28{fill:#FF7BAB;stroke:#FF7BAC;stroke-miterlimit:10;}
	.st29{fill:#FFA848;}
</style>
<rect x="78.1" y="37" class="st0" width="799.4" height="559"/>
<g>
	<path class="st1" d="M261.5,126.6c-47.1-0.5-73.1,45.9-74.9,86.2c-0.1,1.4,0.1,2.5,0.1,3.8c0,0.3,0.1,0.6,0.1,0.9
		c2.3,4.9,2.7,9.4,4.2,15c7.5,24.1,40.5,76.7,70,75.1c41.3-2.3,61.9-51.4,74.7-80.7c-0.6-1.3,0.3-2,0.3-3.1c0.3-6,0.4-11.7,0.9-17.9
		C331.6,167.6,306.4,127.1,261.5,126.6z"/>
</g>
<path class="st2" d="M187.3,198.7c-9.5-9.6,3.3-36.8,22-52c20.1-16.4,53.6-24.2,62.9-14.1c9.3,10.1-5.9,38.1-26.6,53.3
	C227,199.4,196.7,208.2,187.3,198.7z"/>
<path class="st2" d="M339.3,202.9c-7.9,9.3-36.7-0.5-54.9-16.6C265,169.1,251.6,139,260,129.8s38.5,2.8,56.9,20.7
	C333.4,166.5,347.1,193.7,339.3,202.9z"/>
<g>
	
		<ellipse transform="matrix(0.9998 -2.003504e-02 2.003504e-02 0.9998 -4.2291 4.8713)" class="st3" cx="241" cy="213.5" rx="13.8" ry="8.9"/>
	
		<ellipse transform="matrix(3.393955e-02 -0.9994 0.9994 3.393955e-02 17.8325 448.5233)" class="st4" cx="240.9" cy="215" rx="6.8" ry="7.8"/>
	
		<ellipse transform="matrix(0.1443 -0.9895 0.9895 0.1443 -6.5823 425.7714)" class="st5" cx="242.9" cy="216.7" rx="3.4" ry="4.6"/>
</g>
<g>
	
		<ellipse transform="matrix(0.9993 -3.791632e-02 3.791632e-02 0.9993 -7.8814 11.0356)" class="st6" cx="287" cy="213.3" rx="12.8" ry="9.5"/>
	
		<ellipse transform="matrix(0.4342 -0.9008 0.9008 0.4342 -31.7378 380.3323)" class="st7" cx="286.9" cy="215.4" rx="7.1" ry="7.3"/>
	<ellipse transform="matrix(0.2492 -0.9685 0.9685 0.2492 7 442.4918)" class="st8" cx="288.9" cy="216.7" rx="3.6" ry="4.3"/>
</g>
<g>
	<path class="st1" d="M352.9,217.4c0.9-8.5-3.6-16-10.2-17c-6.8-1-13.2,5.1-14.6,13.6l0,0l-2.3,18.9l0,0c-0.3,4.8,2.4,8.9,6.2,9.4
		c4,0.4,7.8-3.4,8.4-8.5c0-0.2,0-0.4,0.1-0.5c0-0.6,0.4-1,0.8-1.1C347.2,231.2,352.1,225.2,352.9,217.4z"/>
	
		<linearGradient id="SVGID_1_" gradientUnits="userSpaceOnUse" x1="779.3448" y1="624.5259" x2="793.7059" y2="635.5013" gradientTransform="matrix(0.7463 0.1176 0.1552 -0.9851 -344.662 747.8802)">
		<stop  offset="0" style="stop-color:#E0A599"/>
		<stop  offset="1" style="stop-color:#E9BEB8"/>
	</linearGradient>
	<path class="st9" d="M341.7,209.4c-3.7-0.7-7.5,2.8-8.5,7.8l0,0l-0.2,1.2c1.7,0.3,2.8,2.1,2.4,4.1c-0.3,2-2,3.4-3.6,3.2l-0.4,2.7
		l0,0c-0.3,2.8,1.1,5.3,3.2,5.6c2.2,0.3,4.4-1.9,4.9-4.9c0-0.1,0-0.2,0-0.3c0-0.3,0.3-0.6,0.5-0.6c3.3-0.5,6.2-4,6.9-8.5
		C347.6,214.6,345.3,210.1,341.7,209.4z"/>
</g>
<g>
	<path class="st10" d="M208.5,426.9c-0.4,0-1.5,0-2,0.1c-1.1-1.9-2-3-3.5-4.8c-1.2-1.4-3.1-4.3-5.4-4.6c-0.1,0-1-0.1-1.3,0
		c-0.2,0.1-1,0.3-1-0.1c-2-8.5-4.3-33.5,2.1-38.7c6.4-5.2,6.2-4,11.6-7.7c-6.4-7.1-12.4-14.2-20.8-18.9
		c-5.2,3.4-12.5,13.8-14.2,18.3c-6.8,18.7-1.9,35.1,8.6,49.8c-0.5,0.2-1.4,0.7-1.9,1.3c-0.7,1-1.4,2.9-1.6,3.9c-0.3,1,0.1,2.6,0.2,3
		c0.6,3,0.8,5.3,1.3,8.1c-1,0.7-2.2,2.4-2.6,3.5c-0.7,1.9-1.6,5.6,0.5,6.5s3.5-3.1,4.2-4.6c0.1-0.2,0.3-0.7,0.3-0.9
		c1,1.2,2.1,1.9,3.5,2.5c-0.2,0.7-0.4,2.6-0.5,3.2c0,2-0.2,7.3,2.2,7.5c2.5,0.1,2.6-5.2,2.8-7.2c0-0.6,0-2.4-0.1-3.2
		c0.4,0,1.4-0.4,1.6-0.5c0.7-0.2,1.1-0.1,1.8-0.1c-0.3,0.9-0.5,3.3-0.5,4c0,2.1-0.4,8.1,2.2,8.2c2.6,0.1,2.7-5.9,2.8-8
		c0.1-0.8,0-3.5-0.3-4.6c0.7-0.2,1.4-0.2,2-0.3c0.1,0,0.2-0.1,0.3-0.1c0,0.4,0.2,1.8,0.2,2c0.3,1.8,0.8,9.1,3.4,8.5
		c2.7-0.5,1.7-7.2,1.4-9.5c-0.1-0.8-0.7-3.5-1.2-4.5c0.5-0.8,0.6-0.8,1.2-1.7c0.9-1.5,1.6-3.7,1.7-5.7c0.2,0,0.7,0.1,0.8,0.1
		c1.6,0,5.7,0.2,5.8-2.2C214.3,427.4,210.3,427,208.5,426.9z"/>
</g>
<g>
	<path class="st10" d="M298.9,438.5c0.4,0,1.5,0.1,2,0.2c1.2-1.8,2.1-2.9,3.7-4.6c1.3-1.4,3.3-4.2,5.7-4.4c0.1,0,1,0,1.3,0.1
		c0.2,0.1,1,0.3,1-0.1c2.4-8.5,5.7-33.3-0.6-38.7c-6.2-5.5-6.1-4.2-11.4-8.1c6.8-6.8,13-13.8,21.7-18.1c5.1,3.6,12.1,14.3,13.6,18.8
		c6.1,18.9,0.5,35.1-10.6,49.4c0.5,0.3,1.4,0.8,1.8,1.4c0.7,1.1,1.3,2.9,1.5,4c0.2,1-0.2,2.6-0.3,3c-0.7,3-1,5.2-1.6,8
		c1,0.8,2.2,2.5,2.5,3.6c0.6,1.9,1.4,5.6-0.8,6.5c-2.1,0.9-3.4-3.2-4-4.7c-0.1-0.2-0.2-0.7-0.3-0.9c-1.1,1.1-2.1,1.9-3.6,2.4
		c0.2,0.7,0.3,2.6,0.3,3.2c-0.1,2,0,7.3-2.6,7.4c-2.5,0.1-2.4-5.3-2.5-7.2c0-0.6,0.1-2.4,0.2-3.2c-0.4,0-1.4-0.4-1.6-0.5
		c-0.7-0.2-1.1-0.1-1.8-0.2c0.2,0.9,0.4,3.3,0.4,4.1c-0.1,2.1,0.1,8.1-2.5,8.1s-2.5-6-2.5-8.1c0-0.8,0.2-3.5,0.5-4.5
		c-0.7-0.2-1.4-0.2-2-0.3c-0.1,0-0.2-0.2-0.3-0.2c0,0.4-0.3,1.8-0.3,2c-0.4,1.8-1.2,9-3.8,8.4c-2.7-0.6-1.4-7.2-1.1-9.5
		c0.1-0.8,0.8-3.5,1.4-4.4c-0.5-0.8-0.6-0.8-1.1-1.8c-0.8-1.5-1.5-3.8-1.5-5.7c-0.2,0-0.7,0.1-0.8,0.1c-1.6,0-5.7,0-5.7-2.4
		C293,438.8,297.1,438.6,298.9,438.5z"/>
</g>
<g>
	<path class="st1" d="M168.2,210.8c-0.9-8.5,3.6-16,10.2-17c6.8-1,13.2,5.1,14.6,13.6l0,0l2.3,18.9l0,0c0.3,4.8-2.4,8.9-6.2,9.4
		c-4,0.4-7.8-3.4-8.4-8.5c0-0.2,0-0.4-0.1-0.5c0-0.6-0.4-1-0.8-1.1C173.9,224.5,169,218.5,168.2,210.8z"/>
	
		<linearGradient id="SVGID_00000096760226873869035400000008327656115896242307_" gradientUnits="userSpaceOnUse" x1="-3053.0532" y1="173.747" x2="-3038.6921" y2="184.7223" gradientTransform="matrix(-0.7463 0.1176 -0.1552 -0.9851 -2064.355 747.8802)">
		<stop  offset="0" style="stop-color:#E0A599"/>
		<stop  offset="1" style="stop-color:#E9BEB8"/>
	</linearGradient>
	<path style="fill:url(#SVGID_00000096760226873869035400000008327656115896242307_);" d="M179.4,202.8c3.7-0.7,7.5,2.8,8.5,7.8l0,0
		l0.2,1.2c-1.7,0.3-2.8,2.1-2.4,4.1s2,3.4,3.6,3.2l0.4,2.7l0,0c0.3,2.8-1.1,5.3-3.2,5.6c-2.2,0.3-4.4-1.9-4.9-4.9c0-0.1,0-0.2,0-0.3
		c0-0.3-0.3-0.6-0.5-0.6c-3.3-0.5-6.2-4-6.9-8.5C173.5,208,175.8,203.5,179.4,202.8z"/>
</g>
<g>
	<g>
		<g>
			<path class="st12" d="M285.1,195.9c-0.3,1-0.1,1.2,0.4,2.1"/>
		</g>
		<g>
			<path class="st12" d="M284.8,196.1c-0.3,1-0.1,1.2,0.4,2.1"/>
		</g>
		<g>
			<path class="st12" d="M286,195.9c-0.6,1-0.5,1.1-0.4,2.1"/>
		</g>
		<g>
			<path class="st12" d="M286.3,195.8c-0.3,1-0.1,1.2,0.4,2.1"/>
		</g>
		<g>
			<path class="st12" d="M286.5,195.8c-0.3,1-0.1,1.2,0.4,2.1"/>
		</g>
		<g>
			<path class="st12" d="M287.4,195.8c-0.7,1-0.7,1.1-0.6,2.1"/>
		</g>
		<g>
			<path class="st12" d="M288.1,195.8c-0.9,0.9-0.9,1.1-1,2.1"/>
		</g>
		<g>
			<path class="st12" d="M288.7,195.8c-1.2,0.9-1.2,1-1.6,2"/>
		</g>
	</g>
	<g>
		<g>
			<path class="st12" d="M288.8,195.9c-0.3,0.8-0.2,1,0.2,1.7"/>
		</g>
		<g>
			<path class="st12" d="M288.6,196c-0.3,0.8-0.2,1,0.2,1.7"/>
		</g>
		<g>
			<path class="st12" d="M289.6,195.9c-0.7,0.8-0.6,0.9-0.5,1.7"/>
		</g>
		<g>
			<path class="st12" d="M289.9,195.8c-0.3,0.8-0.2,1,0.2,1.7"/>
		</g>
		<g>
			<path class="st12" d="M290.1,195.9c-0.3,0.8-0.2,1,0.2,1.7"/>
		</g>
		<g>
			<path class="st12" d="M290.9,195.9c-0.8,0.8-0.7,0.9-0.7,1.7"/>
		</g>
		<g>
			<path class="st12" d="M291.5,195.9c-0.9,0.7-0.9,0.9-1.1,1.7"/>
		</g>
		<g>
			<path class="st12" d="M292.1,195.9c-1.1,0.7-1.1,0.8-1.6,1.6"/>
		</g>
	</g>
	<g>
		<g>
			<path class="st12" d="M293.4,196c-1,0.8-0.9,0.9-1.1,1.8"/>
		</g>
		<g>
			<path class="st12" d="M293.1,196.1c-1,0.8-0.9,0.9-1.1,1.8"/>
		</g>
		<g>
			<path class="st12" d="M294.3,196.3c-1.3,0.7-1.3,0.8-1.8,1.7"/>
		</g>
		<g>
			<path class="st12" d="M294.6,196.2c-1,0.8-0.9,0.9-1.1,1.8"/>
		</g>
		<g>
			<path class="st12" d="M294.9,196.3c-1,0.8-0.9,0.9-1.1,1.8"/>
		</g>
		<g>
			<path class="st12" d="M295.8,196.5c-1.4,0.6-1.4,0.8-2,1.6"/>
		</g>
		<g>
			<path class="st12" d="M296.4,196.6c-1.5,0.5-1.6,0.7-2.4,1.5"/>
		</g>
		<g>
			<path class="st12" d="M297,196.8c-1.7,0.4-1.8,0.6-2.8,1.3"/>
		</g>
	</g>
	<g>
		<g>
			<path class="st12" d="M297.8,197c-1.2,0.6-1.2,0.7-1.8,1.5"/>
		</g>
		<g>
			<path class="st12" d="M297.6,197c-1.2,0.6-1.2,0.7-1.8,1.5"/>
		</g>
		<g>
			<path class="st12" d="M298.3,197.3c-1.4,0.4-1.4,0.6-2.3,1.3"/>
		</g>
		<g>
			<path class="st12" d="M298.6,197.3c-1.2,0.6-1.2,0.7-1.8,1.5"/>
		</g>
		<g>
			<path class="st12" d="M298.8,197.4c-1.2,0.6-1.2,0.7-1.8,1.5"/>
		</g>
		<g>
			<path class="st12" d="M299.3,197.7c-1.4,0.4-1.5,0.5-2.4,1.2"/>
		</g>
		<g>
			<path class="st12" d="M299.7,197.9c-1.5,0.3-1.6,0.4-2.7,1"/>
		</g>
		<g>
			<path class="st12" d="M300.1,198.1c-1.5,0.2-1.7,0.3-2.9,0.8"/>
		</g>
	</g>
	<g>
		<g>
			<path class="st12" d="M300.1,197.7c-1.3,0.3-1.4,0.4-2.1,1"/>
		</g>
		<g>
			<path class="st12" d="M299.8,197.7c-1.3,0.3-1.4,0.4-2.1,1"/>
		</g>
		<g>
			<path class="st12" d="M300.6,198c-1.5,0.2-1.6,0.3-2.6,0.7"/>
		</g>
		<g>
			<path class="st12" d="M300.9,198.1c-1.3,0.3-1.4,0.4-2.1,1"/>
		</g>
		<g>
			<path class="st12" d="M301,198.2c-1.3,0.3-1.4,0.4-2.1,1"/>
		</g>
		<g>
			<path class="st12" d="M301.6,198.4c-1.5,0.2-1.6,0.2-2.7,0.7"/>
		</g>
		<g>
			<path class="st12" d="M302,198.6c-1.6,0.1-1.7,0.2-2.9,0.5"/>
		</g>
		<g>
			<path class="st12" d="M302.4,198.9c-1.6,0-1.8,0-3.1,0.3"/>
		</g>
	</g>
	<g>
		<g>
			<path class="st12" d="M274.4,197.2c0.2,1.3,0.4,1.4,1.5,2.5"/>
		</g>
		<g>
			<path class="st12" d="M274.2,197.4c0.2,1.3,0.4,1.4,1.5,2.5"/>
		</g>
		<g>
			<path class="st12" d="M275.5,197.1c-0.3,1.3-0.1,1.4,0.6,2.6"/>
		</g>
		<g>
			<path class="st12" d="M275.8,196.9c0.2,1.3,0.4,1.4,1.5,2.5"/>
		</g>
		<g>
			<path class="st12" d="M276.1,196.9c0.2,1.3,0.4,1.4,1.5,2.5"/>
		</g>
		<g>
			<path class="st12" d="M277.3,196.8c-0.4,1.3-0.3,1.4,0.4,2.6"/>
		</g>
		<g>
			<path class="st12" d="M278.1,196.7c-0.7,1.2-0.6,1.4-0.2,2.6"/>
		</g>
		<g>
			<path class="st12" d="M279,196.6c-1,1.2-0.9,1.4-0.9,2.6"/>
		</g>
	</g>
	<g>
		<path class="st13" d="M276.1,200.2c10.6-1.8,13.1-4.2,23.7-0.6c0.3-0.5,0.4-0.9,0.9-1.3c-12.4-3.6-14.5-1.7-26.9-0.3
			C274,198.5,275.5,199.7,276.1,200.2z"/>
	</g>
	<g>
		<g>
			<path class="st12" d="M279.4,196.2c-0.5,1.3-0.3,1.4,0.3,2.6"/>
		</g>
		<g>
			<path class="st12" d="M279.1,196.3c-0.5,1.3-0.3,1.4,0.3,2.6"/>
		</g>
		<g>
			<path class="st12" d="M280.6,196.3c-0.9,1.2-0.8,1.4-0.7,2.6"/>
		</g>
		<g>
			<path class="st12" d="M281,196.1c-0.5,1.3-0.3,1.4,0.3,2.6"/>
		</g>
		<g>
			<path class="st12" d="M281.3,196.2c-0.5,1.3-0.3,1.4,0.3,2.6"/>
		</g>
		<g>
			<path class="st12" d="M282.4,196.2c-1,1.2-0.9,1.4-0.9,2.6"/>
		</g>
		<g>
			<path class="st12" d="M283.3,196.2c-1.3,1.1-1.2,1.3-1.5,2.5"/>
		</g>
		<g>
			<path class="st12" d="M284.1,196.3c-1.6,1-1.6,1.2-2.2,2.4"/>
		</g>
	</g>
</g>
<g>
	<g>
		<g>
			<path class="st12" d="M240.9,196.1c0.7,1.1,0.6,1.2,0.4,2.2"/>
		</g>
		<g>
			<path class="st12" d="M241.1,196.2c0.7,1.1,0.6,1.2,0.4,2.2"/>
		</g>
		<g>
			<path class="st12" d="M239.9,196.3c1,1,1,1.1,1.1,2.2"/>
		</g>
		<g>
			<path class="st12" d="M239.6,196.1c0.7,1.1,0.6,1.2,0.4,2.2"/>
		</g>
		<g>
			<path class="st12" d="M239.3,196.2c0.7,1.1,0.6,1.2,0.4,2.2"/>
		</g>
		<g>
			<path class="st12" d="M238.4,196.3c1.1,0.9,1.1,1.1,1.3,2.2"/>
		</g>
		<g>
			<path class="st12" d="M237.7,196.3c1.3,0.9,1.3,1,1.8,2.1"/>
		</g>
		<g>
			<path class="st12" d="M237,196.4c1.5,0.8,1.6,0.9,2.3,1.9"/>
		</g>
	</g>
	<g>
		<g>
			<path class="st12" d="M237,196.5c0.7,0.9,0.6,1,0.4,1.9"/>
		</g>
		<g>
			<path class="st12" d="M237.2,196.6c0.7,0.9,0.6,1,0.4,1.9"/>
		</g>
		<g>
			<path class="st12" d="M236.2,196.7c1,0.8,0.9,0.9,1.1,1.8"/>
		</g>
		<g>
			<path class="st12" d="M235.8,196.6c0.7,0.9,0.6,1,0.4,1.9"/>
		</g>
		<g>
			<path class="st12" d="M235.6,196.6c0.7,0.9,0.6,1,0.4,1.9"/>
		</g>
		<g>
			<path class="st12" d="M234.8,196.7c1.1,0.7,1,0.9,1.3,1.7"/>
		</g>
		<g>
			<path class="st12" d="M234.2,196.8c1.2,0.7,1.2,0.8,1.7,1.6"/>
		</g>
		<g>
			<path class="st12" d="M233.5,196.9c1.4,0.6,1.5,0.7,2.2,1.5"/>
		</g>
	</g>
	<g>
		<g>
			<path class="st12" d="M232.2,197.2c1.3,0.7,1.3,0.9,1.8,1.8"/>
		</g>
		<g>
			<path class="st12" d="M232.5,197.2c1.3,0.7,1.3,0.9,1.8,1.8"/>
		</g>
		<g>
			<path class="st12" d="M231.4,197.6c1.6,0.6,1.6,0.7,2.5,1.6"/>
		</g>
		<g>
			<path class="st12" d="M231,197.6c1.3,0.7,1.3,0.9,1.8,1.8"/>
		</g>
		<g>
			<path class="st12" d="M230.8,197.7c1.3,0.7,1.3,0.9,1.8,1.8"/>
		</g>
		<g>
			<path class="st12" d="M229.9,198c1.7,0.5,1.7,0.7,2.6,1.5"/>
		</g>
		<g>
			<path class="st12" d="M229.3,198.2c1.8,0.4,1.9,0.5,3,1.3"/>
		</g>
		<g>
			<path class="st12" d="M228.7,198.4c1.9,0.3,2.1,0.4,3.4,1"/>
		</g>
	</g>
	<g>
		<g>
			<path class="st12" d="M228,198.8c1.5,0.5,1.5,0.6,2.4,1.3"/>
		</g>
		<g>
			<path class="st12" d="M228.2,198.7c1.5,0.5,1.5,0.6,2.4,1.3"/>
		</g>
		<g>
			<path class="st12" d="M227.5,199.1c1.6,0.3,1.7,0.4,2.8,1.1"/>
		</g>
		<g>
			<path class="st12" d="M227.2,199.2c1.5,0.5,1.5,0.6,2.4,1.3"/>
		</g>
		<g>
			<path class="st12" d="M227.1,199.3c1.5,0.5,1.5,0.6,2.4,1.3"/>
		</g>
		<g>
			<path class="st12" d="M226.6,199.6c1.6,0.3,1.7,0.4,2.9,1"/>
		</g>
		<g>
			<path class="st12" d="M226.3,199.9c1.6,0.1,1.8,0.2,3.1,0.8"/>
		</g>
		<g>
			<path class="st12" d="M226,200.2c1.7,0,1.8,0.1,3.3,0.5"/>
		</g>
	</g>
	<g>
		<g>
			<path class="st12" d="M225.9,199.8c1.5,0.2,1.6,0.3,2.5,0.8"/>
		</g>
		<g>
			<path class="st12" d="M226.2,199.7c1.5,0.2,1.6,0.3,2.5,0.8"/>
		</g>
		<g>
			<path class="st12" d="M225.5,200.1c1.6,0,1.8,0.1,2.9,0.5"/>
		</g>
		<g>
			<path class="st12" d="M225.2,200.2c1.5,0.2,1.6,0.3,2.5,0.8"/>
		</g>
		<g>
			<path class="st12" d="M225.1,200.3c1.5,0.2,1.6,0.3,2.5,0.8"/>
		</g>
		<g>
			<path class="st12" d="M224.6,200.7c1.6,0,1.8,0.1,3,0.4"/>
		</g>
		<g>
			<path class="st12" d="M224.2,201c1.7-0.1,1.8,0,3.2,0.2"/>
		</g>
		<g>
			<path class="st12" d="M223.9,201.2c1.7-0.2,1.9-0.2,3.4,0"/>
		</g>
	</g>
	<g>
		<g>
			<path class="st12" d="M252.5,196.3c0.3,1.4,0.1,1.5-0.7,2.8"/>
		</g>
		<g>
			<path class="st12" d="M252.7,196.4c0.3,1.4,0.1,1.5-0.7,2.8"/>
		</g>
		<g>
			<path class="st12" d="M251.2,196.3c0.8,1.3,0.6,1.5,0.3,2.8"/>
		</g>
		<g>
			<path class="st12" d="M250.8,196.1c0.3,1.4,0.1,1.5-0.7,2.8"/>
		</g>
		<g>
			<path class="st12" d="M250.5,196.1c0.3,1.4,0.1,1.5-0.7,2.8"/>
		</g>
		<g>
			<path class="st12" d="M249.3,196.1c0.9,1.3,0.8,1.5,0.6,2.8"/>
		</g>
		<g>
			<path class="st12" d="M248.4,196.1c1.2,1.2,1.1,1.4,1.2,2.8"/>
		</g>
		<g>
			<path class="st12" d="M247.5,196.2c1.5,1.1,1.5,1.3,1.9,2.6"/>
		</g>
	</g>
	<g>
		<path class="st13" d="M251.7,199.6c-11.7-0.7-15.1-3-24.9,2.1c-0.4-0.5-0.8-0.9-1.4-1.3c11.6-5.3,14.5-3.5,27.8-3.5
			C253.3,197.6,252.1,199,251.7,199.6z"/>
	</g>
	<g>
		<g>
			<path class="st12" d="M246.8,195.8c1,1.3,0.8,1.5,0.7,2.8"/>
		</g>
		<g>
			<path class="st12" d="M247.2,195.9c1,1.3,0.8,1.5,0.7,2.8"/>
		</g>
		<g>
			<path class="st12" d="M245.6,196c1.4,1.2,1.3,1.4,1.6,2.7"/>
		</g>
		<g>
			<path class="st12" d="M245.2,195.9c1,1.3,0.8,1.5,0.7,2.8"/>
		</g>
		<g>
			<path class="st12" d="M244.9,195.9c1,1.3,0.8,1.5,0.7,2.8"/>
		</g>
		<g>
			<path class="st12" d="M243.7,196.1c1.5,1.1,1.5,1.3,1.9,2.6"/>
		</g>
		<g>
			<path class="st12" d="M242.8,196.2c1.7,1,1.8,1.2,2.5,2.5"/>
		</g>
		<g>
			<path class="st12" d="M241.9,196.4c2,0.9,2.1,1.1,3.1,2.3"/>
		</g>
	</g>
</g>
<g>
	<ellipse transform="matrix(0.3179 -0.9481 0.9481 0.3179 -54.025 413.4211)" class="st14" cx="260.3" cy="244.3" rx="1" ry="3"/>
	<ellipse transform="matrix(0.9529 -0.3032 0.3032 0.9529 -61.3497 93.0196)" class="st15" cx="268.9" cy="244.1" rx="3.2" ry="1"/>
	<path class="st16" d="M275.5,240.8c-5.1,5.9-14.4,6.6-20.7,1.7"/>
	<line class="st16" x1="254.8" y1="242.8" x2="259" y2="229.5"/>
	<line class="st16" x1="275.3" y1="241.1" x2="268.7" y2="229.5"/>
</g>
<g>
	<g>
		<path class="st17" d="M242.1,265.7c11.8,5.3,31.4,4.8,40.7-2.5"/>
	</g>
</g>
<g>
	<path class="st18" d="M302.5,324c-0.4-0.5-0.8-1.1-1.2-1.6v0.9c0.4,0.4,0.8,0.8,1.2,1.1V324z"/>
	<path class="st18" d="M300,320.6c0.4,0.6,0.9,1.2,1.3,1.8v-0.5C300.8,321.5,300.4,321,300,320.6z"/>
	<path class="st18" d="M326.6,352.5c0,0-0.1,0-0.1,0.1c-6.3-11.4-14.9-20.7-24-29.5v1c0.3,0.4,0.7,0.9,1,1.3c-0.3-0.3-0.7-0.6-1-0.9
		v0.9l-1.2,1.3v-3.4c-0.7-0.6-1.4-1.3-2.1-1.9c-0.2,0.4-0.5,0.9-0.7,1.3c0-0.8,0.1-1.7,0.2-2.5c0.4,0.2,0.9,0.4,1.3,0.7
		c-0.6-1-1.2-2-1.9-3c-1.4-1.3-2.9-2.5-4.5-3.4c-2.3-1.2-4.6-1.9-7-2.5c-1.3,0.2-2.6,0.4-4,0.6c0.9,0.4,1.7,0.8,2.6,1.3
		c-1.4-0.2-2.7-0.4-4.1-0.6c0,0.5,0,0.9-0.1,1.4c-0.3-0.5-0.7-1-1-1.6c-7.6,8.4-14.7,17.3-22.4,25.6c-0.1,0-0.1,0-0.2,0
		c-1.3-2.9,0.7,2.2-1.4-2.7c-2-5-7.5-17.9-10.2-24.5c-1.1,0.1-1.9,1-2.9,1.4c-0.1-0.3-0.2-0.7-0.4-1.1h0.2c0,0,0-0.1-0.1-0.1
		c-0.8-0.3-1.5-0.5-2.3-0.8c-2,0.1-3.9,0.1-5.8,0.6c-3.7,0.8-7.2,2.2-10.7,3.6c0,0,0,0-0.1,0.1c-0.2,0.1-0.3,0.3-0.5,0.4
		c0.1,0,0.3,0,0.4-0.1c-13.8,7.4-22.3,11.8-32.7,24.6c10.9-8.1,22-16.2,32.7-24.6c0.2,0,0.4-0.1,0.7-0.1
		c-11,8.8-22.4,17.2-33.6,25.6c0.1-0.4,0.1-0.8,0.2-1.3c-6.9,6.8-17.2,12.5-13.7,23.7c0.9,1.5,1.7,2.9,2.6,4.4
		c0.3,0.5,0.6,1,0.9,1.6c0.2,0.3,0.4,0.6,0.6,0.8c0,0.1,0.1,0.1,0.1,0.2c0.6,0.6,1.1,1.2,1.7,1.8c0.5,0.1,0.9,0.4,1.3,0.8
		c0.2,0.2,0.3,0.4,0.5,0.6c0.3-1.9,0.7-3.8,1-5.7h0.1c-0.3,2-0.6,3.9-1,5.9c0.3,0.4,0.7,0.8,1,1.2c0.3,0,0.6,0.1,1,0.1
		c-0.1,0.1-0.2,0.2-0.3,0.3c0.4,0.6,1,1.5,1.4,2c0.8,1.1,1.5,1.9,2.4,2.8c1.7-1.4,3.3-2.8,5-4.2c0.3,0,0.6,0.1,1,0.1
		c-1.8,1.6-3.7,3.1-5.5,4.7c1.9,2.1,3.8,4.2,5.8,6.2c0.1,0.1,0.1,0.2,0.2,0.2c0.1,0,0.1,0,0.2,0c2.6-0.5,4.7-1.7,6.9-3.2
		c0.1,0,0.1-0.1,0.2-0.2l0,0c0.9-0.5,1.7-1.1,2.6-1.6c0.6-0.3,1.3-0.7,1.9-1c1.9-1.2,3.9-2.5,5.8-3.7c0,0,0,0,0-0.1
		c0.2,0,0.6,0.1,0.8,0.1s0.3-0.1,0.4-0.2c0.3-0.2,0.6-0.4,0.8-0.5c0.3-0.2,0.5-0.3,0.7-0.5c0.3-0.3,0.7-0.4,1.1-0.5
		c0.2-0.1,0.4-0.2,0.6-0.4c1.3-0.7,2.7-1.6,3.7-2.7c0.7-0.8,1.2-1,2.1-1c0,0,0.1-0.1,0.2-0.1v0.1c0.1,0.2,0.4,0.1,0.6,0.3
		c0.8,0.7,1.3,1.9,0.7,2.9c-0.3,0.6-0.9,1-1.3,1.5c4.5,23.2-4.7,48.5-8.5,71.5c20.4,1.9,40.7,3.2,61.2,3.9c0-0.1,0-0.2,0-0.3
		c9.6-17,13.6-56.5,10.3-75.4c-2.2,10.1-7.6,18-11,26.9c3.5-9.5,9-18.3,11.1-28.5c4.4,5.6,8.1,11.8,12.3,17.6
		c0.3,0.2,0.5,0.4,0.8,0.8c0.5,0.8,1.2,1.4,1.8,2.2c0,0,0,0.1,0.1,0.1s0.2-0.1,0.2-0.2c1.6,1.9,3.1,3.8,4.7,5.7
		c0.2-0.2,0.4-0.4,0.6-0.6l0,0c5.1-3.5,10.4-6.8,15.6-10.3c-0.1-0.2-0.2-0.5-0.4-0.7c0.4,0,0.7,0,1.1,0.2c2.4-1.2,4.8-2.5,7.3-3.6
		s4.8-2.3,7.2-3.7C335.4,371.8,331.3,362.1,326.6,352.5z M188.6,348.2v-1.5l1.2,1.5H188.6z M205.3,377.4l-0.1-0.1h0.2L205.3,377.4z
		 M206.3,377.7l-0.3-0.4h0.6L206.3,377.7z M225.7,348.2H225l0.7-0.7V348.2z M257.6,338.5h-0.1C257.5,338.4,257.5,338.3,257.6,338.5z
		 M274.3,421.1c-0.1-1.7-0.2-3.4-0.1-5C274.2,417.8,274.2,419.4,274.3,421.1z M292.9,335.2h-0.4l0.4-0.4V335.2z M298.1,368.4v-0.5
		h0.4L298.1,368.4z M301.3,335.2v-4l1.2,1.3v1.8h1.6l0.8,0.9L301.3,335.2L301.3,335.2z M326.5,384.6l0.8-1.3l1.6-1.2L326.5,384.6z"
		/>
</g>
<g>
	<polygon class="st19" points="260.4,328 261.1,327.3 262.2,326.2 260.4,326.2 	"/>
	<polygon class="st19" points="245.8,316.5 245.8,315.9 245.4,315.9 	"/>
	<polygon class="st19" points="271.3,315.9 271.3,316.8 272.2,315.9 	"/>
	<polygon class="st19" points="253.4,328.2 253.4,326.2 252,326.2 	"/>
	<polygon class="st19" points="265.3,322.1 265.3,315.9 264.8,315.9 264.8,323.6 266.1,322.2 266.1,322.2 266.2,322.1 	"/>
	<path class="st20" d="M270.9,326.1l12.4-12.9l-3.4-3v-8.4h-39.6v7.6l-4.4,2.4L245,327h-0.1l4.4,6.5l0,0l3.3,4.9l0,0l0.1,0.2
		l0.1,0.2l0,0l1.2,1.6l0,0l0.7,0.8l0,0l0.3,0.3l0.9-0.8l0,0l3.5-3.4l3.2-3l2.5-2.4l0,0l0.3-0.3l0.1-0.1l0,0L270.9,326.1L270.9,326.1
		z M271.3,315.9h0.9l-0.9,0.9V315.9z M245.8,316.5l-0.4-0.6h0.4V316.5z M253.4,328.2l-1.3-2h1.3V328.2z M261.1,327.3l-0.7,0.7v-1.8
		h1.8L261.1,327.3z M266.1,322.2l-1.3,1.4v-7.7h0.5v6.2L266.1,322.2L266.1,322.2L266.1,322.2z"/>
</g>
<ellipse class="st21" cx="353.5" cy="161" rx="9.4" ry="9"/>
<ellipse class="st21" cx="379.8" cy="144.4" rx="9.4" ry="9"/>
<ellipse class="st21" cx="475" cy="111.8" rx="75.7" ry="40.2"/>
<ellipse class="st22" cx="445.6" cy="114.7" rx="14.9" ry="23.6"/>
<ellipse class="st22" cx="475.2" cy="100.8" rx="40" ry="16.1"/>
<ellipse class="st22" cx="504.3" cy="113.5" rx="14.9" ry="22.4"/>
<ellipse class="st18" cx="491.2" cy="103.5" rx="1.8" ry="1.7"/>
<ellipse class="st18" cx="499.3" cy="96.7" rx="1.8" ry="1.7"/>
<ellipse class="st18" cx="506.4" cy="103.5" rx="1.8" ry="1.7"/>
<ellipse class="st18" cx="499.3" cy="109.8" rx="1.8" ry="1.7"/>
<polygon class="st23" points="454.7,107.9 454.7,105.3 454.8,102.7 457.3,104 459.8,105.3 457.3,106.6 "/>
<polygon class="st23" points="451,99.1 448.3,99.1 445.6,99.1 447,96.7 448.3,94.2 449.7,96.7 "/>
<polygon class="st23" points="441.6,101.6 441.6,104.2 441.6,106.8 439,105.5 436.5,104.2 439,102.9 "/>
<polygon class="st23" points="445.6,109.8 448.3,109.8 451,109.8 449.7,112.3 448.3,114.7 447,112.3 "/>
<g>
	<path class="st1" d="M690.9,130c-47.1-0.5-73.1,45.9-74.9,86.2c-0.1,1.4,0.1,2.5,0.1,3.8c0,0.3,0.1,0.6,0.1,0.9
		c2.3,4.9,2.7,9.4,4.2,15c7.5,24.1,40.5,76.7,70,75.1c41.3-2.3,61.9-51.4,74.7-80.7c-0.6-1.3,0.3-2,0.3-3.1c0.3-6,0.4-11.7,0.9-17.9
		C761,171,735.8,130.5,690.9,130z"/>
</g>
<g>
	<path class="st1" d="M782.3,222.8c0.9-8.5-3.6-16-10.2-17c-6.8-1-13.2,5.1-14.6,13.6l0,0l-2.3,18.9l0,0c-0.3,4.8,2.4,8.9,6.2,9.4
		c4,0.4,7.8-3.4,8.4-8.5c0-0.2,0-0.4,0.1-0.5c0-0.6,0.4-1,0.8-1.1C776.6,236.6,781.5,230.5,782.3,222.8z"/>
	
		<linearGradient id="SVGID_00000058553578173919134270000015773126854886392209_" gradientUnits="userSpaceOnUse" x1="1341.8701" y1="686.1844" x2="1356.2312" y2="697.1597" gradientTransform="matrix(0.7463 0.1176 0.1552 -0.9851 -344.662 747.8802)">
		<stop  offset="0" style="stop-color:#E0A599"/>
		<stop  offset="1" style="stop-color:#E9BEB8"/>
	</linearGradient>
	<path style="fill:url(#SVGID_00000058553578173919134270000015773126854886392209_);" d="M771.1,214.8c-3.7-0.7-7.5,2.8-8.5,7.8
		l0,0l-0.2,1.2c1.7,0.3,2.8,2.1,2.4,4.1c-0.3,2-2,3.4-3.6,3.2l-0.4,2.7l0,0c-0.3,2.8,1.1,5.3,3.2,5.6c2.2,0.3,4.4-1.9,4.9-4.9
		c0-0.1,0-0.2,0-0.3c0-0.3,0.3-0.6,0.5-0.6c3.3-0.5,6.2-4,6.9-8.5C777,220,774.7,215.5,771.1,214.8z"/>
</g>
<g>
	<path class="st1" d="M597.6,216.2c-0.9-8.5,3.6-16,10.2-17c6.8-1,13.2,5.1,14.6,13.6l0,0l2.3,18.9l0,0c0.3,4.8-2.4,8.9-6.2,9.4
		c-4,0.4-7.8-3.4-8.4-8.5c0-0.2,0-0.4-0.1-0.5c0-0.6-0.4-1-0.8-1.1C603.3,229.9,598.4,223.9,597.6,216.2z"/>
	
		<linearGradient id="SVGID_00000135677884201516423740000008615959789003312561_" gradientUnits="userSpaceOnUse" x1="-3613.3442" y1="101.3979" x2="-3598.9832" y2="112.3731" gradientTransform="matrix(-0.7463 0.1176 -0.1552 -0.9851 -2064.355 747.8802)">
		<stop  offset="0" style="stop-color:#E0A599"/>
		<stop  offset="1" style="stop-color:#E9BEB8"/>
	</linearGradient>
	<path style="fill:url(#SVGID_00000135677884201516423740000008615959789003312561_);" d="M608.8,208.2c3.7-0.7,7.5,2.8,8.5,7.8l0,0
		l0.2,1.2c-1.7,0.3-2.8,2.1-2.4,4.1s2,3.4,3.6,3.2l0.4,2.7l0,0c0.3,2.8-1.1,5.3-3.2,5.6c-2.2,0.3-4.4-1.9-4.9-4.9c0-0.1,0-0.2,0-0.3
		c0-0.3-0.3-0.6-0.5-0.6c-3.3-0.5-6.2-4-6.9-8.5C602.9,213.4,605.2,208.9,608.8,208.2z"/>
</g>
<g>
	<g>
		<g>
			<path class="st12" d="M716.8,197.8c-0.4,1.9-0.2,2.1,0.5,3.8"/>
		</g>
		<g>
			<path class="st12" d="M716.5,198c-0.4,1.9-0.2,2.1,0.5,3.8"/>
		</g>
		<g>
			<path class="st12" d="M717.9,197.8c-0.8,1.8-0.6,2.1-0.4,3.8"/>
		</g>
		<g>
			<path class="st12" d="M718.2,197.6c-0.4,1.9-0.2,2.1,0.5,3.8"/>
		</g>
		<g>
			<path class="st12" d="M718.5,197.6c-0.4,1.9-0.2,2.1,0.5,3.8"/>
		</g>
		<g>
			<path class="st12" d="M719.6,197.6c-0.9,1.8-0.8,2-0.7,3.8"/>
		</g>
		<g>
			<path class="st12" d="M720.4,197.5c-1.1,1.7-1.1,2-1.2,3.8"/>
		</g>
		<g>
			<path class="st12" d="M721.2,197.6c-1.4,1.6-1.4,1.8-1.9,3.6"/>
		</g>
	</g>
	<g>
		<g>
			<path class="st12" d="M721.3,197.7c-0.4,1.5-0.3,1.7,0.2,3.2"/>
		</g>
		<g>
			<path class="st12" d="M721,197.9c-0.4,1.5-0.3,1.7,0.2,3.2"/>
		</g>
		<g>
			<path class="st12" d="M722.3,197.8c-0.8,1.5-0.7,1.7-0.6,3.2"/>
		</g>
		<g>
			<path class="st12" d="M722.6,197.6c-0.4,1.5-0.3,1.7,0.2,3.2"/>
		</g>
		<g>
			<path class="st12" d="M722.9,197.7c-0.4,1.5-0.3,1.7,0.2,3.2"/>
		</g>
		<g>
			<path class="st12" d="M723.8,197.7c-0.9,1.4-0.8,1.6-0.8,3.1"/>
		</g>
		<g>
			<path class="st12" d="M724.6,197.7c-1.1,1.3-1.1,1.6-1.3,3"/>
		</g>
		<g>
			<path class="st12" d="M725.3,197.8c-1.4,1.2-1.4,1.4-1.9,2.9"/>
		</g>
	</g>
	<g>
		<g>
			<path class="st12" d="M726.9,198c-1.2,1.4-1.1,1.7-1.3,3.3"/>
		</g>
		<g>
			<path class="st12" d="M726.5,198.1c-1.2,1.4-1.1,1.7-1.3,3.3"/>
		</g>
		<g>
			<path class="st12" d="M727.9,198.4c-1.6,1.2-1.6,1.5-2.2,3"/>
		</g>
		<g>
			<path class="st12" d="M728.3,198.4c-1.2,1.4-1.1,1.7-1.3,3.3"/>
		</g>
		<g>
			<path class="st12" d="M728.6,198.5c-1.2,1.4-1.1,1.7-1.3,3.3"/>
		</g>
		<g>
			<path class="st12" d="M729.7,198.8c-1.7,1.2-1.7,1.4-2.4,2.9"/>
		</g>
		<g>
			<path class="st12" d="M730.5,199.1c-1.9,1-1.9,1.2-2.9,2.7"/>
		</g>
		<g>
			<path class="st12" d="M731.2,199.4c-2.1,0.8-2.2,1-3.4,2.3"/>
		</g>
	</g>
	<g>
		<g>
			<path class="st12" d="M732.2,199.8c-1.4,1-1.5,1.3-2.2,2.7"/>
		</g>
		<g>
			<path class="st12" d="M731.9,199.8c-1.4,1-1.5,1.3-2.2,2.7"/>
		</g>
		<g>
			<path class="st12" d="M732.8,200.3c-1.6,0.8-1.7,1-2.8,2.3"/>
		</g>
		<g>
			<path class="st12" d="M733.2,200.3c-1.4,1-1.5,1.3-2.2,2.7"/>
		</g>
		<g>
			<path class="st12" d="M733.4,200.5c-1.4,1-1.5,1.3-2.2,2.7"/>
		</g>
		<g>
			<path class="st12" d="M734,201c-1.7,0.7-1.8,0.9-2.9,2.1"/>
		</g>
		<g>
			<path class="st12" d="M734.5,201.4c-1.8,0.5-1.9,0.7-3.2,1.8"/>
		</g>
		<g>
			<path class="st12" d="M735,201.8c-1.9,0.3-2,0.5-3.5,1.4"/>
		</g>
	</g>
	<g>
		<g>
			<path class="st12" d="M734.9,201.1c-1.6,0.6-1.7,0.8-2.6,1.8"/>
		</g>
		<g>
			<path class="st12" d="M734.6,201c-1.6,0.6-1.7,0.8-2.6,1.8"/>
		</g>
		<g>
			<path class="st12" d="M735.5,201.6c-1.8,0.4-1.9,0.5-3.1,1.4"/>
		</g>
		<g>
			<path class="st12" d="M735.9,201.7c-1.6,0.6-1.7,0.8-2.6,1.8"/>
		</g>
		<g>
			<path class="st12" d="M736.1,201.8c-1.6,0.6-1.7,0.8-2.6,1.8"/>
		</g>
		<g>
			<path class="st12" d="M736.7,202.4c-1.8,0.3-2,0.4-3.2,1.2"/>
		</g>
		<g>
			<path class="st12" d="M737.2,202.7c-1.9,0.1-2.1,0.3-3.5,0.9"/>
		</g>
		<g>
			<path class="st12" d="M737.7,203.2c-2-0.1-2.2,0.1-3.8,0.6"/>
		</g>
	</g>
	<g>
		<g>
			<path class="st12" d="M703.9,200.2c0.2,2.3,0.5,2.6,1.9,4.5"/>
		</g>
		<g>
			<path class="st12" d="M703.6,200.5c0.2,2.3,0.5,2.6,1.9,4.5"/>
		</g>
		<g>
			<path class="st12" d="M705.3,200c-0.4,2.3-0.1,2.6,0.8,4.7"/>
		</g>
		<g>
			<path class="st12" d="M705.6,199.7c0.2,2.3,0.5,2.6,1.9,4.5"/>
		</g>
		<g>
			<path class="st12" d="M706,199.6c0.2,2.3,0.5,2.6,1.9,4.5"/>
		</g>
		<g>
			<path class="st12" d="M707.4,199.4c-0.5,2.3-0.3,2.6,0.4,4.8"/>
		</g>
		<g>
			<path class="st12" d="M708.4,199.2c-0.9,2.3-0.7,2.6-0.3,4.8"/>
		</g>
		<g>
			<path class="st12" d="M709.4,199.1c-1.3,2.1-1.1,2.5-1.1,4.7"/>
		</g>
	</g>
	<g>
		<path class="st13" d="M705.9,205.6c12.8-3.3,15.8-7.7,28.6-1.2c0.3-0.9,0.5-1.6,1.1-2.4c-15-6.6-17.5-3.1-32.4-0.6
			C703.4,202.5,705.3,204.7,705.9,205.6z"/>
	</g>
	<g>
		<g>
			<path class="st12" d="M710,198.3c-0.6,2.3-0.4,2.6,0.3,4.8"/>
		</g>
		<g>
			<path class="st12" d="M709.6,198.5c-0.6,2.3-0.4,2.6,0.3,4.8"/>
		</g>
		<g>
			<path class="st12" d="M711.4,198.4c-1.1,2.2-1,2.5-0.8,4.8"/>
		</g>
		<g>
			<path class="st12" d="M711.8,198.2c-0.6,2.3-0.4,2.6,0.3,4.8"/>
		</g>
		<g>
			<path class="st12" d="M712.2,198.2c-0.6,2.3-0.4,2.6,0.3,4.8"/>
		</g>
		<g>
			<path class="st12" d="M713.6,198.3c-1.3,2.1-1.1,2.5-1.1,4.7"/>
		</g>
		<g>
			<path class="st12" d="M714.6,198.3c-1.6,2-1.5,2.3-1.8,4.6"/>
		</g>
		<g>
			<path class="st12" d="M715.7,198.4c-1.9,1.8-1.9,2.1-2.6,4.3"/>
		</g>
	</g>
</g>
<g>
	<g>
		<g>
			<path class="st12" d="M668.5,198.6c0.8,1.6,0.6,1.8,0.4,3.4"/>
		</g>
		<g>
			<path class="st12" d="M668.8,198.7c0.8,1.6,0.6,1.8,0.4,3.4"/>
		</g>
		<g>
			<path class="st12" d="M667.4,198.8c1.2,1.5,1.1,1.7,1.3,3.3"/>
		</g>
		<g>
			<path class="st12" d="M667,198.6c0.8,1.6,0.6,1.8,0.4,3.4"/>
		</g>
		<g>
			<path class="st12" d="M666.7,198.7c0.8,1.6,0.6,1.8,0.4,3.4"/>
		</g>
		<g>
			<path class="st12" d="M665.6,198.8c1.3,1.4,1.2,1.7,1.5,3.3"/>
		</g>
		<g>
			<path class="st12" d="M664.9,198.9c1.5,1.3,1.5,1.6,2.1,3.2"/>
		</g>
		<g>
			<path class="st12" d="M664.1,199c1.7,1.2,1.8,1.4,2.7,2.9"/>
		</g>
	</g>
	<g>
		<g>
			<path class="st12" d="M664.1,199.2c0.8,1.3,0.7,1.5,0.5,2.8"/>
		</g>
		<g>
			<path class="st12" d="M664.3,199.3c0.8,1.3,0.7,1.5,0.5,2.8"/>
		</g>
		<g>
			<path class="st12" d="M663.1,199.4c1.1,1.2,1.1,1.4,1.3,2.7"/>
		</g>
		<g>
			<path class="st12" d="M662.7,199.3c0.8,1.3,0.7,1.5,0.5,2.8"/>
		</g>
		<g>
			<path class="st12" d="M662.5,199.4c0.8,1.3,0.7,1.5,0.5,2.8"/>
		</g>
		<g>
			<path class="st12" d="M661.5,199.5c1.2,1.1,1.2,1.3,1.5,2.6"/>
		</g>
		<g>
			<path class="st12" d="M660.8,199.7c1.4,1,1.4,1.2,2,2.5"/>
		</g>
		<g>
			<path class="st12" d="M660.1,199.8c1.6,0.9,1.7,1.1,2.5,2.3"/>
		</g>
	</g>
	<g>
		<g>
			<path class="st12" d="M658.6,200.3c1.5,1.1,1.5,1.3,2,2.7"/>
		</g>
		<g>
			<path class="st12" d="M659,200.3c1.5,1.1,1.5,1.3,2,2.7"/>
		</g>
		<g>
			<path class="st12" d="M657.7,200.8c1.8,0.9,1.9,1.1,2.8,2.4"/>
		</g>
		<g>
			<path class="st12" d="M657.2,200.8c1.5,1.1,1.5,1.3,2,2.7"/>
		</g>
		<g>
			<path class="st12" d="M657,200.9c1.5,1.1,1.5,1.3,2,2.7"/>
		</g>
		<g>
			<path class="st12" d="M656,201.4c1.9,0.8,2,1,3,2.2"/>
		</g>
		<g>
			<path class="st12" d="M655.3,201.7c2.1,0.6,2.2,0.8,3.5,1.9"/>
		</g>
		<g>
			<path class="st12" d="M654.6,202.1c2.2,0.4,2.4,0.6,3.9,1.6"/>
		</g>
	</g>
	<g>
		<g>
			<path class="st12" d="M653.8,202.6c1.7,0.7,1.8,0.9,2.8,2.1"/>
		</g>
		<g>
			<path class="st12" d="M654,202.6c1.7,0.7,1.8,0.9,2.8,2.1"/>
		</g>
		<g>
			<path class="st12" d="M653.3,203.2c1.8,0.5,1.9,0.6,3.2,1.6"/>
		</g>
		<g>
			<path class="st12" d="M652.9,203.2c1.7,0.7,1.8,0.9,2.8,2.1"/>
		</g>
		<g>
			<path class="st12" d="M652.8,203.4c1.7,0.7,1.8,0.9,2.8,2.1"/>
		</g>
		<g>
			<path class="st12" d="M652.2,204c1.8,0.4,2,0.6,3.4,1.5"/>
		</g>
		<g>
			<path class="st12" d="M651.8,204.4c1.9,0.2,2.1,0.4,3.6,1.2"/>
		</g>
		<g>
			<path class="st12" d="M651.5,204.8c1.9,0,2.1,0.1,3.7,0.7"/>
		</g>
	</g>
	<g>
		<g>
			<path class="st12" d="M651.4,204.1c1.7,0.3,1.8,0.4,2.9,1.2"/>
		</g>
		<g>
			<path class="st12" d="M651.7,204c1.7,0.3,1.8,0.4,2.9,1.2"/>
		</g>
		<g>
			<path class="st12" d="M650.9,204.7c1.9,0.1,2,0.2,3.4,0.7"/>
		</g>
		<g>
			<path class="st12" d="M650.5,204.8c1.7,0.3,1.8,0.4,2.9,1.2"/>
		</g>
		<g>
			<path class="st12" d="M650.4,205c1.7,0.3,1.8,0.4,2.9,1.2"/>
		</g>
		<g>
			<path class="st12" d="M649.9,205.5c1.9,0,2,0.1,3.5,0.6"/>
		</g>
		<g>
			<path class="st12" d="M649.5,206c1.9-0.2,2.1-0.1,3.7,0.3"/>
		</g>
		<g>
			<path class="st12" d="M649.1,206.4c1.9-0.3,2.2-0.3,3.8-0.1"/>
		</g>
	</g>
	<g>
		<g>
			<path class="st12" d="M681.7,198.8c0.3,2.1,0.1,2.4-0.8,4.3"/>
		</g>
		<g>
			<path class="st12" d="M682,199c0.3,2.1,0.1,2.4-0.8,4.3"/>
		</g>
		<g>
			<path class="st12" d="M680.3,198.8c0.9,2,0.7,2.3,0.3,4.3"/>
		</g>
		<g>
			<path class="st12" d="M679.9,198.6c0.3,2.1,0.1,2.4-0.8,4.3"/>
		</g>
		<g>
			<path class="st12" d="M679.5,198.6c0.3,2.1,0.1,2.4-0.8,4.3"/>
		</g>
		<g>
			<path class="st12" d="M678.1,198.6c1,2,0.9,2.3,0.6,4.3"/>
		</g>
		<g>
			<path class="st12" d="M677.1,198.6c1.4,1.9,1.3,2.2,1.3,4.2"/>
		</g>
		<g>
			<path class="st12" d="M676,198.6c1.7,1.7,1.7,2,2.2,4"/>
		</g>
	</g>
	<g>
		<path class="st13" d="M680.9,203.9c-13.4-1-17.3-4.5-28.4,3.2c-0.5-0.7-0.9-1.4-1.6-2c13.3-8,16.5-5.3,31.8-5.3
			C682.7,200.8,681.3,203,680.9,203.9z"/>
	</g>
	<g>
		<g>
			<path class="st12" d="M675.3,198c1.1,2,0.9,2.3,0.8,4.3"/>
		</g>
		<g>
			<path class="st12" d="M675.7,198.2c1.1,2,0.9,2.3,0.8,4.3"/>
		</g>
		<g>
			<path class="st12" d="M673.9,198.4c1.6,1.8,1.5,2.1,1.9,4.1"/>
		</g>
		<g>
			<path class="st12" d="M673.4,198.2c1.1,2,0.9,2.3,0.8,4.3"/>
		</g>
		<g>
			<path class="st12" d="M673.1,198.3c1.1,2,0.9,2.3,0.8,4.3"/>
		</g>
		<g>
			<path class="st12" d="M671.7,198.5c1.7,1.7,1.7,2,2.2,4"/>
		</g>
		<g>
			<path class="st12" d="M670.7,198.7c2,1.5,2,1.9,2.8,3.8"/>
		</g>
		<g>
			<path class="st12" d="M669.7,199c2.3,1.3,2.4,1.6,3.6,3.4"/>
		</g>
	</g>
</g>
<ellipse class="st21" cx="603.6" cy="159.5" rx="9.4" ry="9"/>
<ellipse class="st21" cx="576.5" cy="144.1" rx="9.4" ry="9"/>
<ellipse class="st26" cx="715.2" cy="141.3" rx="10.4" ry="10"/>
<ellipse class="st26" cx="720.7" cy="158.3" rx="10.4" ry="10"/>
<ellipse class="st26" cx="730.4" cy="145.2" rx="10.4" ry="10"/>
<ellipse class="st26" cx="737.9" cy="161.7" rx="10.4" ry="10"/>
<ellipse class="st26" cx="744.5" cy="148.6" rx="10.4" ry="10"/>
<ellipse class="st26" cx="751.1" cy="165.1" rx="10.4" ry="10"/>
<ellipse class="st26" cx="744.5" cy="178.3" rx="10.4" ry="10"/>
<ellipse class="st26" cx="760.7" cy="178.3" rx="10.4" ry="10"/>
<ellipse class="st26" cx="755.2" cy="193.9" rx="10.4" ry="10"/>
<ellipse class="st26" cx="768.8" cy="188.5" rx="10.4" ry="10"/>
<ellipse class="st26" cx="762.2" cy="202.2" rx="10.4" ry="10"/>
<ellipse class="st26" cx="779.5" cy="202.7" rx="10.4" ry="10"/>
<ellipse class="st26" cx="755.2" cy="214.8" rx="10.4" ry="10"/>
<ellipse class="st26" cx="780" cy="214.8" rx="10.4" ry="10"/>
<ellipse class="st26" cx="767.3" cy="248" rx="10.4" ry="10"/>
<ellipse class="st26" cx="755.2" cy="231.4" rx="10.4" ry="10"/>
<ellipse class="st26" cx="779.5" cy="241.6" rx="10.4" ry="10"/>
<ellipse class="st26" cx="783" cy="226.5" rx="10.4" ry="10"/>
<ellipse class="st26" cx="764.8" cy="236.3" rx="10.4" ry="10"/>
<ellipse class="st26" cx="767.3" cy="224.6" rx="10.4" ry="10"/>
<ellipse class="st26" cx="766.3" cy="212.4" rx="10.4" ry="10"/>
<ellipse class="st26" cx="760.7" cy="257.7" rx="10.4" ry="10"/>
<ellipse class="st26" cx="779.5" cy="259.7" rx="10.4" ry="10"/>
<ellipse class="st26" cx="750.6" cy="269.4" rx="10.4" ry="10"/>
<ellipse class="st26" cx="768.3" cy="271.4" rx="10.4" ry="10"/>
<ellipse class="st26" cx="783" cy="275.3" rx="10.4" ry="10"/>
<ellipse class="st26" cx="756.2" cy="285" rx="10.4" ry="10"/>
<ellipse class="st26" cx="744.5" cy="284" rx="10.4" ry="10"/>
<ellipse class="st26" cx="771.4" cy="285" rx="10.4" ry="10"/>
<ellipse class="st26" cx="779.5" cy="292.8" rx="10.4" ry="10"/>
<ellipse class="st26" cx="736.9" cy="297.7" rx="10.4" ry="10"/>
<ellipse class="st26" cx="752.1" cy="301.1" rx="10.4" ry="10"/>
<ellipse class="st26" cx="762.7" cy="297.7" rx="10.4" ry="10"/>
<ellipse class="st26" cx="731.4" cy="312.8" rx="10.4" ry="10"/>
<ellipse class="st26" cx="724.8" cy="302.6" rx="10.4" ry="10"/>
<ellipse class="st26" cx="747.6" cy="312.3" rx="10.4" ry="10"/>
<ellipse class="st26" cx="761.7" cy="314.2" rx="10.4" ry="10"/>
<ellipse class="st26" cx="775.4" cy="310.3" rx="10.4" ry="10"/>
<ellipse class="st26" cx="788.6" cy="304" rx="10.4" ry="10"/>
<ellipse class="st26" cx="793.6" cy="287.4" rx="10.4" ry="10"/>
<ellipse class="st26" cx="789.6" cy="271.4" rx="10.4" ry="10"/>
<ellipse class="st26" cx="788.6" cy="251.4" rx="10.4" ry="10"/>
<ellipse class="st26" cx="705" cy="151" rx="10.4" ry="10"/>
<ellipse class="st26" cx="701.5" cy="138.3" rx="10.4" ry="10"/>
<g>
	<path class="st1" d="M608,211.1c-0.9-8.5,3.6-16,10.2-17c6.8-1,13.2,5.1,14.6,13.6l0,0l2.3,18.9l0,0c0.3,4.8-2.4,8.9-6.2,9.4
		c-4,0.4-7.8-3.4-8.4-8.5c0-0.2,0-0.4-0.1-0.5c0-0.6-0.4-1-0.8-1.1C613.8,224.9,608.8,218.8,608,211.1z"/>
	
		<linearGradient id="SVGID_00000099640826915231820980000018085398096739261097_" gradientUnits="userSpaceOnUse" x1="1935.5295" y1="768.9324" x2="1949.8906" y2="779.9075" gradientTransform="matrix(-0.7463 0.1176 -0.1552 -0.9851 2190.9517 747.8802)">
		<stop  offset="0" style="stop-color:#E0A599"/>
		<stop  offset="1" style="stop-color:#E9BEB8"/>
	</linearGradient>
	<path style="fill:url(#SVGID_00000099640826915231820980000018085398096739261097_);" d="M619.3,203.1c3.7-0.7,7.5,2.8,8.5,7.8l0,0
		l0.2,1.2c-1.7,0.3-2.8,2.1-2.4,4.1s2,3.4,3.6,3.2l0.4,2.7l0,0c0.3,2.8-1.1,5.3-3.2,5.6c-2.2,0.3-4.4-1.9-4.9-4.9c0-0.1,0-0.2,0-0.3
		c0-0.3-0.3-0.6-0.5-0.6c-3.3-0.5-6.2-4-6.9-8.5C613.3,208.3,615.6,203.8,619.3,203.1z"/>
</g>
<ellipse class="st26" cx="634" cy="303.6" rx="10.4" ry="10"/>
<ellipse class="st26" cx="669.6" cy="146.6" rx="10.4" ry="10"/>
<ellipse class="st26" cx="648.9" cy="313.8" rx="10.4" ry="10"/>
<ellipse class="st26" cx="652.4" cy="150" rx="10.4" ry="10"/>
<ellipse class="st26" cx="639.2" cy="153.4" rx="10.4" ry="10"/>
<ellipse class="st26" cx="645.8" cy="166.6" rx="10.4" ry="10"/>
<ellipse class="st26" cx="629.6" cy="166.6" rx="10.4" ry="10"/>
<ellipse class="st26" cx="635.2" cy="182.2" rx="10.4" ry="10"/>
<ellipse class="st26" cx="621.5" cy="176.8" rx="10.4" ry="10"/>
<ellipse class="st26" cx="628.1" cy="190.5" rx="10.4" ry="10"/>
<ellipse class="st26" cx="610.9" cy="191" rx="10.4" ry="10"/>
<ellipse class="st26" cx="635.2" cy="203.1" rx="10.4" ry="10"/>
<ellipse class="st26" cx="610.4" cy="203.1" rx="10.4" ry="10"/>
<ellipse class="st26" cx="623" cy="236.3" rx="10.4" ry="10"/>
<ellipse class="st26" cx="635.2" cy="219.7" rx="10.4" ry="10"/>
<ellipse class="st26" cx="610.9" cy="229.9" rx="10.4" ry="10"/>
<ellipse class="st26" cx="607.3" cy="214.8" rx="10.4" ry="10"/>
<ellipse class="st26" cx="625.6" cy="224.6" rx="10.4" ry="10"/>
<ellipse class="st26" cx="623" cy="212.9" rx="10.4" ry="10"/>
<ellipse class="st26" cx="624.1" cy="200.7" rx="10.4" ry="10"/>
<ellipse class="st26" cx="629.6" cy="246" rx="10.4" ry="10"/>
<ellipse class="st26" cx="610.9" cy="248" rx="10.4" ry="10"/>
<ellipse class="st26" cx="639.7" cy="257.7" rx="10.4" ry="10"/>
<ellipse class="st26" cx="622" cy="259.7" rx="10.4" ry="10"/>
<ellipse class="st26" cx="607.3" cy="263.6" rx="10.4" ry="10"/>
<ellipse class="st26" cx="634.2" cy="273.3" rx="10.4" ry="10"/>
<ellipse class="st26" cx="645.8" cy="272.3" rx="10.4" ry="10"/>
<ellipse class="st26" cx="619" cy="273.3" rx="10.4" ry="10"/>
<ellipse class="st26" cx="610.9" cy="281.1" rx="10.4" ry="10"/>
<ellipse class="st26" cx="653.4" cy="286" rx="10.4" ry="10"/>
<ellipse class="st26" cx="638.2" cy="289.4" rx="10.4" ry="10"/>
<ellipse class="st26" cx="627.6" cy="286" rx="10.4" ry="10"/>
<ellipse class="st26" cx="659" cy="301.1" rx="10.4" ry="10"/>
<ellipse class="st26" cx="665.6" cy="290.9" rx="10.4" ry="10"/>
<ellipse class="st26" cx="642.8" cy="300.6" rx="10.4" ry="10"/>
<ellipse class="st26" cx="628.6" cy="302.6" rx="10.4" ry="10"/>
<ellipse class="st26" cx="613.9" cy="297.7" rx="10.4" ry="10"/>
<ellipse class="st26" cx="601.8" cy="292.3" rx="10.4" ry="10"/>
<ellipse class="st26" cx="596.7" cy="275.8" rx="10.4" ry="10"/>
<ellipse class="st26" cx="600.8" cy="259.7" rx="10.4" ry="10"/>
<ellipse class="st26" cx="601.8" cy="239.7" rx="10.4" ry="10"/>
<ellipse class="st26" cx="633.2" cy="312.3" rx="10.4" ry="10"/>
<ellipse class="st26" cx="615.4" cy="312.8" rx="10.4" ry="10"/>
<ellipse class="st26" cx="663" cy="139.8" rx="10.4" ry="10"/>
<ellipse class="st26" cx="675.7" cy="136.4" rx="10.4" ry="10"/>
<ellipse class="st26" cx="686.3" cy="146.1" rx="10.4" ry="10"/>
<ellipse class="st26" cx="689.3" cy="133" rx="10.4" ry="10"/>
<ellipse class="st26" cx="664.5" cy="163.2" rx="10.4" ry="10"/>
<ellipse class="st26" cx="653.9" cy="176.8" rx="10.4" ry="10"/>
<ellipse class="st26" cx="645.8" cy="190.5" rx="10.4" ry="10"/>
<ellipse class="st26" cx="680.7" cy="161.7" rx="10.4" ry="10"/>
<ellipse class="st26" cx="692.9" cy="161.7" rx="10.4" ry="10"/>
<ellipse class="st26" cx="709.1" cy="165.1" rx="10.4" ry="10"/>
<ellipse class="st26" cx="728.3" cy="174.4" rx="10.4" ry="10"/>
<ellipse class="st26" cx="718.7" cy="174.9" rx="10.4" ry="10"/>
<ellipse class="st26" cx="736.4" cy="188" rx="10.4" ry="10"/>
<g>
	<g>
		<path class="st17" d="M671.1,270.6c11.8,5.3,31.4,4.8,40.7-2.5"/>
	</g>
</g>
<g>
	<path d="M684.2,244.2c-1.7,8,16.7,7.2,13.1-0.8c0.8-0.2,1,0.5,1.6,0.9c-0.1,9.4-14.9,10.3-15.8,0.5
		C683.4,244.3,683.5,244.1,684.2,244.2z"/>
</g>
<g>
	<path d="M677.2,224.4c2.6-8.9-20.3-8.7-16.3,0.4c-1.1,0.1-1.2-0.5-2-1.1c0.7-10.5,19.1-10.8,19.6,0.1
		C678.1,224.4,678,224.6,677.2,224.4z"/>
</g>
<g>
	<path d="M726.4,224.2c2.2-8.8-19.3-8.2-15.3,0.7c-1,0.2-1.2-0.5-1.9-1.1c0.3-10.4,17.6-11.1,18.4-0.3
		C727.3,224.1,727.1,224.4,726.4,224.2z"/>
</g>
<g>
	<polygon class="st19" points="691.1,330.6 691.8,329.9 692.8,328.8 691.1,328.8 	"/>
	<polygon class="st19" points="676.4,319.1 676.4,318.5 676,318.5 	"/>
	<polygon class="st19" points="701.9,318.5 701.9,319.4 702.8,318.5 	"/>
	<polygon class="st19" points="684,330.8 684,328.8 682.7,328.8 	"/>
	<polygon class="st19" points="696,324.7 696,318.5 695.4,318.5 695.4,326.1 696.7,324.8 696.7,324.8 696.8,324.7 	"/>
	<path class="st20" d="M701.6,328.7l12.4-12.9l-3.4-3v-8.4H671v7.6l-4.4,2.4l9.1,15.1h-0.1l4.4,6.5l0,0l3.3,4.9l0,0l0.1,0.2l0.1,0.2
		l0,0l1.2,1.6l0,0l0.7,0.8l0,0l0.3,0.3l0.9-0.8l0,0l3.5-3.4l3.2-3l2.5-2.4l0,0l0.3-0.3l0.1-0.1l0,0L701.6,328.7L701.6,328.7z
		 M701.9,318.5h0.9l-0.9,0.9V318.5z M676.4,319.1l-0.4-0.6h0.4V319.1z M684,330.8l-1.3-2h1.3V330.8z M691.8,329.9l-0.7,0.7v-1.8h1.8
		L691.8,329.9z M696.7,324.8l-1.3,1.4v-7.7h0.5v6.2L696.7,324.8L696.7,324.8L696.7,324.8z"/>
</g>
<g>
	<path class="st28" d="M634.2,369.6c-5.8,21.6,1.6,17-3.8,64.8c-1.3,11.3-2.8,21,3.2,27.9c5.2,6,13.6,6.9,28.2,6.8
		c41.5-0.3,62.2-0.5,71.2-12.6c2.7-3.6,2.1-4.8,5.8-38.5s4.6-36.4,3.9-46.1c-1.1-14.8-2-27.6-10.3-39.4
		c-12.2-17.4-38.5-29.7-60.5-21.9C647.7,319.2,639.9,348.3,634.2,369.6z"/>
</g>
<g>
	<path class="st10" d="M614.7,438.2c-0.4-0.1-1.5-0.4-1.9-0.4c-0.6-2.1-1.1-3.3-2.1-5.5c-0.8-1.7-1.9-4.9-4-5.8
		c-0.1,0-0.9-0.3-1.2-0.3c-0.2,0-1.1,0-1-0.4c0.3-8.8,4.8-33.4,12.4-36.9s7.1-2.3,13.3-4.6c-4.3-8.4-8.2-16.8-15-23.4
		c-6,2-15.8,10.2-18.6,14.2c-11.6,16.3-11.2,33.4-5,50.2c-0.6,0.1-1.6,0.3-2.1,0.8c-1,0.8-2.1,2.4-2.6,3.4c-0.5,0.9-0.6,2.5-0.6,3
		c-0.3,3.1-0.7,5.3-0.9,8.1c-1.2,0.5-2.8,1.8-3.5,2.7c-1.2,1.7-3,5-1.3,6.4c1.8,1.4,4.3-2.1,5.3-3.4c0.1-0.1,0.4-0.6,0.6-0.8
		c0.7,1.4,1.5,2.4,2.7,3.3c-0.4,0.7-1.1,2.4-1.3,2.9c-0.5,1.9-2.2,7,0.2,7.8s3.9-4.4,4.6-6.2c0.2-0.5,0.6-2.4,0.7-3.1
		c0.4,0.1,1.4,0,1.7,0c0.8,0,1.1,0.2,1.8,0.3c-0.5,0.8-1.4,3.1-1.6,3.8c-0.6,2-2.6,7.7-0.1,8.4c2.5,0.7,4.2-5,4.9-7.1
		c0.3-0.8,0.9-3.4,0.9-4.5c0.7,0,1.4,0.2,2,0.2c0.1,0,0.2-0.1,0.3-0.1c-0.1,0.4-0.3,1.8-0.3,2c-0.2,1.8-1.7,9,1.1,9.1
		c2.7,0.1,3.6-6.5,3.9-8.8c0.1-0.8,0.3-3.6,0.1-4.6c0.7-0.7,0.8-0.6,1.6-1.4c1.3-1.2,2.6-3.2,3.2-5c0.2,0,0.6,0.2,0.7,0.3
		c1.5,0.4,5.5,1.6,6.2-0.7C620.1,440.1,616.3,438.7,614.7,438.2z"/>
</g>
<polygon class="st28" points="669.5,366.3 622.1,392.7 602.9,360.6 650.3,334.3 "/>
<g>
	<path class="st10" d="M757.9,442.3c0.4-0.1,1.5-0.4,1.9-0.5c0.5-2.1,1.1-3.4,2-5.5c0.7-1.7,1.8-5,3.9-5.9c0.1,0,0.9-0.3,1.2-0.3
		c0.2,0,1.1,0,1-0.4c-0.5-8.7-5.6-33.3-13.3-36.6c-7.7-3.3-7.2-2.1-13.5-4.2c4.2-8.5,7.8-17.1,14.6-23.8c6,1.8,16.1,9.8,19.1,13.7
		c12,16.1,12,33.2,6.2,50.1c0.6,0.1,1.6,0.3,2.2,0.8c1,0.8,2.2,2.4,2.7,3.3c0.6,0.9,0.6,2.5,0.7,2.9c0.3,3,0.8,5.3,1.1,8.1
		c1.2,0.4,2.9,1.7,3.5,2.6c1.2,1.7,3.2,4.9,1.4,6.4c-1.7,1.5-4.3-2-5.4-3.2c-0.1-0.1-0.5-0.6-0.6-0.8c-0.6,1.4-1.4,2.4-2.6,3.4
		c0.4,0.6,1.2,2.3,1.4,2.9c0.6,1.9,2.4,7,0,7.8s-4.1-4.3-4.8-6.1c-0.2-0.5-0.7-2.3-0.8-3.1c-0.4,0.1-1.4,0-1.7,0
		c-0.8,0-1.1,0.2-1.8,0.4c0.5,0.8,1.5,3,1.7,3.7c0.6,2,2.7,7.7,0.3,8.4c-2.5,0.8-4.3-4.9-5.1-6.9c-0.3-0.8-1-3.4-1-4.5
		c-0.7,0-1.4,0.2-2,0.3c-0.1,0-0.2-0.1-0.3-0.1c0.1,0.4,0.3,1.8,0.4,2c0.2,1.8,1.9,8.9-0.9,9.1c-2.7,0.2-3.7-6.4-4.1-8.7
		c-0.1-0.8-0.3-3.5-0.2-4.6c-0.7-0.6-0.8-0.6-1.6-1.3c-1.3-1.2-2.7-3.1-3.3-5c-0.2,0-0.6,0.3-0.7,0.3c-1.5,0.4-5.5,1.7-6.2-0.5
		C752.5,444.3,756.3,442.9,757.9,442.3z"/>
</g>
<polygon class="st28" points="728.8,342.9 776.2,369.2 756.9,401.3 709.6,375 "/>
<g>
	<g>
		<path class="st29" d="M389.3,550.8c-0.2-8.4-0.4-16.7-0.6-25.1c-0.1-4.1-0.2-8.3-0.3-12.4c-0.1-2.1-0.1-4.1-0.2-6.2
			c0-1.3-0.5-3.4,0.3-4.5c0.7-1.1,2.5-1.5,3.7-1.8c1.7-0.4,3.6-0.4,5.3,0c3,0.7,4,2.6,5.1,5.3c2.7,6.9,2.5,14.2,1.8,21.5
			c-0.8,8.2-2.1,16.4-0.4,24.6c0.4,1.9,3.3,1.1,2.9-0.8c-1.6-7.8-0.3-15.7,0.5-23.5c0.8-7.9,0.9-15.9-2.2-23.3
			c-1.2-2.8-2.5-5.1-5.5-6.2c-3.3-1.3-7.5-1-10.7,0.4c-1.4,0.6-2.7,1.5-3.4,3c-0.7,1.5-0.4,3.3-0.4,4.9c0.1,4.5,0.2,9.1,0.3,13.6
			c0.3,10.2,0.5,20.3,0.8,30.5C386.3,552.8,389.3,552.8,389.3,550.8L389.3,550.8z"/>
	</g>
</g>
<g>
	<g>
		<path class="st29" d="M408.7,521.7c-5.7,0-11.3,0-17,0c-1.9,0-1.9,3,0,3c5.7,0,11.3,0,17,0C410.6,524.7,410.6,521.7,408.7,521.7
			L408.7,521.7z"/>
	</g>
</g>
<g>
	<g>
		<path class="st29" d="M421.1,552.7c-3.8-17.6-6.1-35.5-6.6-53.5c-0.1-1.9-3.1-1.9-3,0c0.6,18.3,2.9,36.5,6.7,54.3
			C418.6,555.3,421.5,554.5,421.1,552.7L421.1,552.7z"/>
	</g>
</g>
<g>
	<g>
		<path class="st29" d="M411.3,499.6c5,18.5,13.4,35.9,23.7,51.9c1,1.6,3.6,0.1,2.6-1.5c-10.2-15.8-18.5-33-23.4-51.2
			C413.7,496.9,410.8,497.7,411.3,499.6L411.3,499.6z"/>
	</g>
</g>
<g>
	<g>
		<path class="st29" d="M437.3,550.8c-0.5-16.8-1.1-33.5-1.6-50.3c-0.1-1.9-3.1-1.9-3,0c0.5,16.8,1.1,33.5,1.6,50.3
			C434.4,552.7,437.4,552.8,437.3,550.8L437.3,550.8z"/>
	</g>
</g>
<g>
	<g>
		<path class="st29" d="M441.6,504.6c-1.8,15.7-1.3,31.5,1.4,47.1c0.3,1.9,3.2,1.1,2.9-0.8c-2.7-15.3-3.1-30.9-1.3-46.3
			C444.8,502.7,441.8,502.7,441.6,504.6L441.6,504.6z"/>
	</g>
</g>
<g>
	<g>
		<path class="st29" d="M443.8,501.5c1.9,0,1.9-3,0-3C441.9,498.5,441.9,501.5,443.8,501.5L443.8,501.5z"/>
	</g>
</g>
<g>
	<g>
		<path class="st29" d="M455.2,552.1c1.7-4.3,2.7-8.9,2.9-13.5c0.2-4.5-0.5-8.9-1.6-13.3c-1-4.2-2.2-8.3-2.6-12.6
			c-0.4-4.5,0.4-8.8,2.8-12.7c1-1.6-1.6-3.2-2.6-1.5c-2.4,3.8-3.5,8.2-3.3,12.7c0.2,4.3,1.2,8.6,2.3,12.8c1.1,4.4,2,8.7,2,13.2
			c0,4.9-1.1,9.6-2.8,14.1C451.6,553.1,454.5,553.9,455.2,552.1L455.2,552.1z"/>
	</g>
</g>
<g>
	<g>
		<path class="st29" d="M453.7,499.4c3.6,5.8,6.4,12,7.8,18.7c0.4,1.9,3.3,1.1,2.9-0.8c-1.4-6.9-4.3-13.5-8.1-19.4
			C455.2,496.3,452.6,497.8,453.7,499.4L453.7,499.4z"/>
	</g>
</g>
<g>
	<g>
		<path class="st29" d="M463.5,518.8c4.3-5.9,7.7-12.6,9.1-19.8c0.4-1.9-2.5-2.7-2.9-0.8c-1.4,7-4.6,13.3-8.8,19
			c-0.5,0.7-0.1,1.7,0.5,2.1C462.2,519.8,463,519.5,463.5,518.8L463.5,518.8z"/>
	</g>
</g>
<g>
	<g>
		<path class="st29" d="M469.8,499.1c2.8,17.9,3.1,36,1.1,54c-0.2,1.9,2.8,1.9,3,0c2.1-18.2,1.7-36.7-1.2-54.8
			C472.4,496.4,469.5,497.2,469.8,499.1L469.8,499.1z"/>
	</g>
</g>
<g>
	<g>
		<path class="st29" d="M483,555.3c1.4-8.5,3.1-16.9,3.9-25.5c0.4-4,0.5-8.1-0.1-12.1c-0.6-4-1.9-7.8-3.7-11.4
			c-1-1.9-1.7-3.7,0.5-4.9c2.4-1.3,6.6-2,8.1,0.8c4.1,7.2,5.4,15.5,4.9,23.7c-0.6,9.3-3.3,18.2-5.9,27.1c-0.6,1.9,2.3,2.6,2.9,0.8
			c2.5-8.5,5.1-17.1,5.9-25.9c0.8-8.8-0.4-17.7-4.4-25.7c-0.7-1.5-1.5-2.8-2.9-3.7c-1.5-1-3.5-1.3-5.3-1.1c-2.9,0.3-7,1.7-7.7,4.9
			c-0.6,3,1.5,5.7,2.6,8.2c1.7,4.1,2.4,8.5,2.4,13c0,5.1-0.8,10.2-1.6,15.2c-0.8,5.2-1.7,10.5-2.6,15.7
			C479.8,556.4,482.7,557.2,483,555.3L483,555.3z"/>
	</g>
</g>
<g>
	<g>
		<path class="st29" d="M495.9,519.4c-2,0-4,0-6.1,0c-0.8,0-1.5,0.7-1.5,1.5c0,0.8,0.7,1.5,1.5,1.5c2,0,4,0,6.1,0
			c0.8,0,1.5-0.7,1.5-1.5C497.4,520.1,496.7,519.4,495.9,519.4L495.9,519.4z"/>
	</g>
</g>
<g>
	<g>
		<path class="st29" d="M498.3,500.7c4.8-0.2,9.7-0.4,14.5-0.6c1.9-0.1,1.9-3.1,0-3c-4.8,0.2-9.7,0.4-14.5,0.6
			C496.4,497.7,496.4,500.7,498.3,500.7L498.3,500.7z"/>
	</g>
</g>
<g>
	<g>
		<path class="st29" d="M503.4,500.1c2.3,18.6,3.5,37.4,3.4,56.2c0,1.9,3,1.9,3,0c0.1-18.8-1-37.6-3.4-56.2
			C506.1,498.2,503.1,498.1,503.4,500.1L503.4,500.1z"/>
	</g>
</g>
<g>
	<g>
		<path class="st29" d="M514.9,503.6c3,16.9,3.8,34.1,2.6,51.3c-0.1,1.9,2.9,1.9,3,0c1.3-17.4,0.3-34.9-2.7-52.1
			C517.5,500.9,514.6,501.7,514.9,503.6L514.9,503.6z"/>
	</g>
</g>
<g>
	<g>
		<path class="st29" d="M517.7,502.9c1.9,0,1.9-3,0-3C515.8,499.9,515.8,502.9,517.7,502.9L517.7,502.9z"/>
	</g>
</g>
<g>
	<g>
		<path class="st29" d="M542.2,500c-2.1-0.6-4.1-1.2-6.2-1.8c-0.8-0.2-1.6,0.3-1.8,1c-2.8,9.6-5.2,19.3-7.4,29
			c-1,4.7-2,9.5-2.9,14.3c-0.5,2.9-1.8,6.4-0.5,9.2c1.5,3.3,5.3,4.3,8.6,4.6c0.7,0.1,1.2-0.5,1.4-1.1c3.3-7.9,6.2-16.1,8.6-24.3
			c2.3-8.1,4.2-16.4,4-24.9c0-1.7,0.2-3.9-0.9-5.3c-1-1.4-2.8-1.8-4.4-1.8c-1.9,0.1-1.9,3.1,0,3c0.6,0,1.6,0,2.1,0.6
			c0.3,0.5,0.2,1.7,0.2,2.3c0.1,2.4,0.1,4.7-0.1,7.1c-0.4,4.9-1.4,9.7-2.6,14.4c-2.5,9.6-5.9,19-9.7,28.1c0.5-0.4,1-0.7,1.4-1.1
			c-2.1-0.2-5.2-0.7-6-3c-0.3-0.9-0.2-1.7,0-2.5c0.4-2.2,0.8-4.4,1.2-6.7c1.7-8.8,3.6-17.5,5.8-26.2c1.3-5,2.6-10,4.1-15
			c-0.6,0.3-1.2,0.7-1.8,1c2.1,0.6,4.1,1.2,6.2,1.8C543.2,503.5,544,500.6,542.2,500L542.2,500z"/>
	</g>
</g>
<g>
	<g>
		<path class="st29" d="M544.7,556.2c6.4-18.8,9.4-38.8,8.3-58.7c-1,0.1-2,0.3-2.9,0.4c5.3,19.4,10.8,39.1,11.8,59.3
			c0.1,1.9,3.1,1.9,3,0c-0.8-20.7,5.6-40.8,11.7-60.4c0.6-1.8-2.3-2.6-2.9-0.8c-4.8,15.6-9.8,31.3-11.4,47.6
			c-0.4,4.5-0.6,9-0.4,13.6c1,0,2,0,3,0c-1-20.5-6.5-40.4-11.9-60.1c-0.4-1.6-3-1.3-2.9,0.4c1.1,19.7-1.9,39.2-8.2,57.9
			C541.2,557.3,544.1,558,544.7,556.2L544.7,556.2z"/>
	</g>
</g>
</svg>
