<?xml version="1.0" encoding="utf-8"?>
<!-- Generator: Adobe Illustrator 26.0.3, SVG Export Plug-In . SVG Version: 6.00 Build 0)  -->
<svg version="1.1" id="Layer_1" xmlns="http://www.w3.org/2000/svg" xmlns:xlink="http://www.w3.org/1999/xlink" x="0px" y="0px"
	 viewBox="0 0 612 792" style="enable-background:new 0 0 612 792;" xml:space="preserve">
<style type="text/css">
	.st0{fill:#FFFFFF;}
</style>
<g>
	<g>
		<path class="st0" d="M223.3,348.2c-1.9-9.3-10.7-15.3-19.3-17.8c-5.1-1.5-10.5-1.9-15.8-2c-4.6,0-9.2,0.2-13.7,1.1
			c-8.3,1.6-17,5.6-20.3,13.9c-3.3,8.1-0.2,17.7,5.6,23.9c7.5,7.9,18.7,11.1,29.2,12.2c1.5,0.2,2.1-2.2,0.8-2.8
			c-12.1-5.5-27.3-4.1-37.7,4.4c-10,8.2-14.5,22.8-8.9,34.7c3,6.3,8.9,10.5,15.1,13.3c6.3,2.8,13,4.4,19.9,4.9
			c13.3,0.9,27.3-2.7,37.5-11.7c9.1-8,15-20.4,13.6-32.7c-0.2-1.5-0.4-3.1-0.8-4.6c-0.5-1.9-3.3-1.1-2.9,0.8c2.9,12,5,24.2,6.3,36.4
			c1-0.1,2-0.3,2.9-0.4c-1.2-4.9,1.4-9.8,5.7-12.2c1.5-0.8,0.5-3.2-1.2-2.7c-5.7,1.7-5.3,9.2-1.3,12.5c2.7,2.3,6.7,2.4,10,1.4
			c3.7-1.1,6.9-3.4,9.6-6.1c3.1-3.1,5.9-6.5,9.8-8.7c1.3-0.7,0.7-2.7-0.8-2.8c-3-0.1-6.1,1.5-7.6,4.1c-1.5,2.7-0.9,5.9,1.1,8.1
			c1,1.1,2.3,1.9,3.7,2.3c1.8,0.6,3.5,0.2,5.3,0.1c1.2-0.1,2.2,0.2,2.7,1.3c0.4,0.9,0.2,2.1-0.3,2.9c-1.8,3-6.8,1.9-9.4,0.7
			c-1.1-0.5-2.6,0.3-2.2,1.7c1.7,5.4,8.7,6,13.2,4.1c6.3-2.6,8.8-9.8,14.6-12.8c2.7-1.4,6.6-2.2,9,0.1c1.4,1.3,3.5-0.8,2.1-2.1
			c-6-6-18.1-3.8-19.7,5.2c-0.4,2-0.2,4.1,0.6,6c0.4,0.9,0.9,1.7,1.5,2.5c0.7,0.8,1.8,1.1,2.8,1.3c3.9,0.7,7.8-0.8,10.7-3.4
			c3.1-2.8,4.9-7.3,3.3-11.3c-0.5-1.2-2.5-1.6-2.9,0c-1.3,5.9,3.5,11.6,9.2,12.7c5.6,1.1,11-2.3,12.7-7.7c0.9-2.8,0.6-5.9-1.1-8.4
			c-1-1.4-3.1-0.5-2.7,1.2c0.6,3.2,1.2,6.5,1.8,9.7c1-0.3,1.9-0.5,2.9-0.8c-1.2-3.7,2.3-7.3,5.9-7.4c-0.4-0.2-0.9-0.5-1.3-0.7
			c1.8,3.8,3.1,7.8,3.6,12c1-0.1,2-0.3,2.9-0.4c-1-3.7-2.2-9.3,2.6-10.7c1.4-0.4,3.1-0.2,3.7,1.3c0.7,1.9,0.4,4,1.3,5.9
			c3,6.9,13.4,9.2,18.4,3.2c2.2-2.6,3.1-6.4,1.9-9.6c-0.3-0.8-0.7-1.6-1.3-2.2c-0.7-0.8-1.8-0.8-2.8-0.8c-1.9,0.1-3.6,0.8-5.1,1.9
			c-2.9,2.2-4.7,6.1-3.4,9.7c1.2,3.3,4.5,5.5,7.9,6.2c4.1,0.8,8.3-0.4,11-3.6c2.7-3.3,3.6-7.9,2.1-11.9c-0.6-1.5-3-1.4-2.9,0.4
			c0.3,6,2.8,11.6,6.9,16.1c1.2,1.2,3.3-0.4,2.4-1.8c-3.9-6.2,1.4-14.7,8.3-15.4c-0.5-0.4-1-0.7-1.4-1.1c1.7,4.3,3.4,8.6,5.1,12.9
			c0.7,1.8,3.6,1,2.9-0.8c-1.7-4.3-3.4-8.6-5.1-12.9c-0.2-0.6-0.8-1.2-1.4-1.1c-4.6,0.5-8.7,3.3-10.9,7.4c-2.1,3.9-2.4,8.7,0,12.6
			c0.8-0.6,1.6-1.2,2.4-1.8c-3.5-3.8-5.7-8.7-6-13.9c-1,0.1-2,0.3-2.9,0.4c2.3,6.1-2.4,12.8-9,11.9c-2.7-0.4-5.7-1.9-6.4-4.7
			c-0.7-2.9,1.5-5.8,4.1-6.8c0.7-0.3,1.4-0.2,2.2-0.4c0.1,0,0.6,0.1,0.2-0.1c-0.3-0.2,0,0.1,0.1,0.3c0.2,0.3,0.3,0.6,0.5,1
			c0.4,1.3,0.4,2.7,0,3.9c-0.8,2.8-3.3,4.8-6.2,5c-3.1,0.2-6.4-1.3-8.1-3.9c-1.8-2.8-0.5-6.7-3.3-9c-2.7-2.2-6.9-1.2-9.2,1.1
			c-3.3,3.3-2.3,8.4-1.2,12.4c0.4,1.6,3.2,1.3,2.9-0.4c-0.6-4.7-2-9.2-4-13.5c-0.2-0.5-0.8-0.8-1.3-0.7c-5.5,0.2-10.5,5.6-8.8,11.2
			c0.6,1.9,3.2,1.1,2.9-0.8c-0.6-3.2-1.2-6.5-1.8-9.7c-0.9,0.4-1.8,0.8-2.7,1.2c2.8,4.1,0.2,10-4.4,11.5c-5.1,1.6-12.1-3.1-10.9-8.8
			c-1,0-1.9,0-2.9,0c2.2,5.4-3.5,10.9-8.7,11.1c-0.6,0-1.3,0-1.9-0.1c-1-0.2-1-0.2-1.5-1c-0.8-1.3-1.1-2.7-1.1-4.2
			c0.1-3.1,2.2-5.8,5.1-6.8c3.3-1.1,7.2-0.4,9.7,2c0.7-0.7,1.4-1.4,2.1-2.1c-4.5-4.2-11.7-2-15.8,1.6c-4.3,3.8-7.5,10.6-13.9,11.2
			c-2.3,0.2-5.6-0.3-6.4-2.8c-0.7,0.6-1.5,1.1-2.2,1.7c3,1.4,6.6,2.2,9.9,1c2.7-1,4.5-3.1,4.6-6c0.1-2.7-1.6-5.1-4.3-5.5
			c-1.9-0.3-3.7,0.5-5.6,0.1c-1.4-0.3-2.8-1.2-3.5-2.5c-2-3.4,1.7-6.5,4.9-6.3c-0.3-0.9-0.5-1.9-0.8-2.8c-7.1,4-11.1,12.6-19.3,14.7
			c-3.1,0.8-6.7,0.3-8.1-2.8c-0.9-2-0.8-4.7,1.6-5.5c-0.4-0.9-0.8-1.8-1.2-2.7c-5.5,3-8.6,9.4-7.1,15.6c0.4,1.6,3.1,1.3,2.9-0.4
			c-1.4-12.5-3.5-25-6.4-37.2c-1,0.3-1.9,0.5-2.9,0.8c2.8,11-1.2,22.6-8.6,30.9c-8.3,9.2-20.5,13.8-32.7,14.3
			c-6.3,0.2-12.7-0.6-18.8-2.5c-5.9-1.8-12-4.6-16.3-9.2c-8.5-9.1-6.3-23.8,1.3-32.6c9.1-10.5,25.3-13.2,37.7-7.5
			c0.3-0.9,0.5-1.9,0.8-2.8c-8.6-0.9-17.6-3.3-24.4-8.9c-6-4.9-10.2-12.9-8.4-20.8c1.8-7.9,9.2-12.1,16.5-13.9c3.9-1,8-1.4,12-1.5
			c4.8-0.1,9.8,0,14.5,0.9c9,1.7,19.1,6.8,21.1,16.6C220.8,350.9,223.7,350.1,223.3,348.2L223.3,348.2z"/>
	</g>
</g>
</svg>
