<?xml version="1.0" encoding="utf-8"?>
<!-- Generator: Adobe Illustrator 26.0.3, SVG Export Plug-In . SVG Version: 6.00 Build 0)  -->
<svg version="1.1" id="Layer_1" xmlns="http://www.w3.org/2000/svg" xmlns:xlink="http://www.w3.org/1999/xlink" x="0px" y="0px"
	 viewBox="0 0 1920 1080" style="enable-background:new 0 0 1920 1080;" xml:space="preserve">
<style type="text/css">
	.st0{fill:#FFFFFF;}
</style>
<g>
	<g>
		<path class="st0" d="M948.4,498.9c-3.4,0.8-6.5-1.9-9.1-3.6c-3.3-2.2-7-4-11.1-2.8c-4.5,1.4-8.1,5.2-11.5,8.3
			c-3.8,3.4-7.5,6.9-10.8,10.8c-6.4,7.4-11.4,16.4-11.5,26.4c-0.1,8.7,4.1,16.6,11.3,21.4c7.4,4.9,17.3,6.4,25.8,3.3
			c1.3-0.5,1.5-2.5,0-2.9c-12.9-3.7-27.6,1.2-36.2,11.4c-4.4,5.2-7.4,11.6-8.8,18.3c-1.4,6.8-1.4,14.3,1.2,20.8
			c4.9,12.3,18,16.9,30.2,18.5c6.9,0.9,14,0.9,21,0.4c7.4-0.6,14.7-1.9,21.6-4.8c11.9-5,22.8-15.4,23.9-28.9
			c0.1-1.6,0.1-3.1-0.1-4.7c-0.2-1.9-3-2-3,0c0.2,8.5,0.3,17.1,0.5,25.6c1-0.1,2-0.3,2.9-0.4c-3.2-9.1,2.1-18.9,10.7-22.7
			c-0.6-0.1-1.2-0.2-1.8-0.2c4.8,6,2.5,14.6,5.5,21.3c2.7,6,9.5,11.3,16.1,7.5c3-1.8,4.8-5,6-8.2c1.5-4,2.6-8.2,3.6-12.4
			c2.1-8.7,3.3-17.6,3.5-26.6c0.3-10.2-0.6-20.4-2.6-30.4c-0.3-1.7-2.9-1.2-2.9,0.4c-0.5,8.7-0.6,17.5-0.6,26.2
			c0,4.4,0.2,8.7,0.3,13.1c0.1,3.7,0.3,7.3,0.7,11c0.8,6.2,2.8,12.6,8.2,16.2c4.5,2.9,10.3,2.5,15,0.4c5.1-2.3,9.4-7.3,8.9-13.2
			c-0.6,0.5-1.3,1-1.9,1.4c3.6,1.3,7.3,2.2,11.1,2.4c3.3,0.1,7-0.3,9.7-2.3c1.3-1,2.3-2.3,2.9-3.9c0.7-1.7-0.7-3.2-2.1-4.2
			c-2.8-1.9-6.6-1.6-9.5-0.2c-3.3,1.5-5.4,4.6-5.3,8.3c0.1,4.3,2.9,8.1,6.3,10.5c7,4.9,17.5,4.3,24.3-0.6
			c8.1-5.8,10.3-17.5,4.5-25.7c-0.9-1.3-3.4-0.5-2.7,1.2c3.5,8.7,7,17.5,10.5,26.2c0.7,1.8,3.3,1.1,2.9-0.8
			c-1.3-5.9-2.8-12.6-0.2-18.4c2-4.4,6.2-8,11.2-7.9c1.9,0,1.9-3,0-3c-5.9-0.1-11.1,3.8-13.6,9c-3.2,6.6-1.7,14.2-0.2,21
			c1-0.3,1.9-0.5,2.9-0.8c-3.5-8.7-7-17.5-10.5-26.2c-0.9,0.4-1.8,0.8-2.7,1.2c3,4.3,3.7,9.9,1.8,14.8c-1.9,4.8-6.1,8.2-11,9.6
			c-4.9,1.4-10.6,1-15-1.9c-3.5-2.3-7.5-7.9-4.2-12c2.2-2.8,8.3-4.1,10.3-0.4c-0.1-0.4-0.1-0.8-0.2-1.2c-1.1,3.5-4.8,4.5-8.1,4.6
			c-4.1,0.1-8.3-0.8-12.2-2.3c-0.9-0.3-2,0.5-1.9,1.4c0.8,9.3-12.4,14.9-19.5,10.1c-4.8-3.2-6.2-9.4-6.8-14.8
			c-0.7-7.4-0.8-14.9-0.9-22.3c-0.1-8.9,0.1-17.8,0.6-26.7c-1,0.1-2,0.3-2.9,0.4c3.4,16.6,3.4,33.8,0.1,50.4
			c-0.8,4.1-1.8,8.2-3,12.2c-1,3.2-1.9,6.8-4,9.5c-1.9,2.5-5,3.7-8,2.5c-2.8-1.1-4.9-3.8-6.2-6.5c-1.6-3.5-1.6-7.5-2.1-11.2
			c-0.5-4-1.5-7.8-4-11.1c-0.4-0.6-1.3-0.5-1.8-0.2c-9.7,4.2-15.6,15.9-12.1,26.1c0.5,1.5,3,1.4,2.9-0.4c-0.2-8.5-0.3-17.1-0.5-25.6
			c-1,0-2,0-3,0c1.5,12.3-7.3,23.3-17.7,28.9c-12,6.4-26.6,7.4-40,6.7c-10.7-0.6-23.8-3-30.5-12.3c-3.9-5.4-4.8-12.2-4.4-18.7
			c0.4-6.3,2.3-12.5,5.6-17.8c7.4-12,22.6-18.7,36.4-14.8c0-1,0-1.9,0-2.9c-6.9,2.5-14.8,1.7-21.3-1.8c-7-3.7-11.6-10.4-12-18.4
			c-0.4-9.3,3.9-17.9,9.7-24.9c3.1-3.7,6.5-7,10-10.3c1.8-1.6,3.6-3.2,5.4-4.8c1.6-1.4,3.2-2.8,5.2-3.7c4.2-2,7.7,0.4,11.1,2.7
			c3.1,2.1,6.5,4.2,10.4,3.2C951,501.3,950.2,498.4,948.4,498.9L948.4,498.9z"/>
	</g>
</g>
</svg>
