<?xml version="1.0" encoding="utf-8"?>
<!-- Generator: Adobe Illustrator 26.0.3, SVG Export Plug-In . SVG Version: 6.00 Build 0)  -->
<svg version="1.1" id="Layer_1" xmlns="http://www.w3.org/2000/svg" xmlns:xlink="http://www.w3.org/1999/xlink" x="0px" y="0px"
	 viewBox="0 0 930.2 612.8" style="enable-background:new 0 0 930.2 612.8;" xml:space="preserve">
<style type="text/css">
	.st0{opacity:0.2;fill:#FFFFFF;stroke:#FF9528;stroke-width:10;stroke-miterlimit:10;enable-background:new    ;}
	.st1{fill:#F7931E;stroke:#F7931E;stroke-width:10;stroke-miterlimit:10;}
	.st2{fill:#754C24;stroke:#FF7BAC;stroke-miterlimit:10;}
	.st3{fill:#754C24;stroke:#754C24;stroke-miterlimit:10;}
	.st4{fill:#42210B;stroke:#42210B;stroke-miterlimit:10;}
	.st5{font-family:'Luminari-Regular';}
	.st6{font-size:20.0187px;}
	.st7{fill:#FFFFFF;stroke:#F7931E;stroke-width:10.0001;stroke-miterlimit:10.0001;}
	.st8{fill:#FFFFFF;stroke:#F7931E;stroke-width:10;stroke-miterlimit:10;}
	.st9{fill:#FFB3E3;stroke:#FFB3E3;stroke-width:10;stroke-miterlimit:10;}
	.st10{fill:#FFB3E3;stroke:#FFB3E3;stroke-width:9.9998;stroke-miterlimit:9.9998;}
	.st11{fill:#FFB3E3;stroke:#FFB3E3;stroke-width:9.9997;stroke-miterlimit:9.9997;}
	.st12{fill:#F7931E;}
	.st13{fill:#E6E6E6;}
	.st14{font-size:4.1378px;}
	.st15{fill:none;}
	.st16{fill:#B3B3B3;}
	.st17{fill:#FFFFFF;stroke:#F7931E;stroke-width:6;stroke-miterlimit:10;}
	.st18{fill:#FFA848;}
</style>
<rect x="77.4" y="29.2" class="st0" width="799.4" height="558.5"/>
<g>
	<path class="st1" d="M552.3,117.9c-0.4,7.5,7.5,15,16.6,18.4c4.8,1.7,9.9,3,13.1,2.2c1.9-0.5-3.9-1.6-4.2-1.5c-0.2,0.1-5,0-4,0.8
		c1.7,1.4,9.5,0.3,12.3,0.1c1-0.1,2.7-0.3,3.9-0.3c3.9,0,11.8,2.7,14.9,1c4-2.2,0-10.8,0-14.2c-0.1-2.8,1.7-6.7,0.4-9.8
		c-3.3-8.1-9.7-17.5-24.9-18.2C563.5,95.8,552.8,108.2,552.3,117.9z"/>
</g>
<path class="st2" d="M450.2,445.2c-61.1-12.3-122.2-24.7-183.3-37c4.8-57.9,9.5-115.8,14.3-173.7c56.3,11.7,112.6,23.3,169,35
	C450.2,328,450.2,386.6,450.2,445.2z"/>
<path class="st3" d="M508.7,445.5c59.9-12.3,119.8-24.7,179.7-37c-4.7-57.9-9.4-115.8-14-173.7c-55.2,11.7-110.4,23.3-165.6,35
	C508.7,328.2,508.7,386.9,508.7,445.5z"/>
<rect x="450.2" y="268.4" class="st4" width="58.5" height="176.9"/>
<text transform="matrix(1.5629 -0.246 0.4246 0.9054 541.4108 330.9129)" class="st5 st6">Indhold</text>
<ellipse transform="matrix(1 -3.471278e-03 3.471278e-03 1 -0.6375 1.3074)" class="st7" cx="376.3" cy="184.3" rx="28.7" ry="18.2"/>
<polygon class="st8" points="382.5,234.5 391,233.8 384.4,201.9 375.8,202.6 "/>
<ellipse class="st9" cx="577" cy="114.5" rx="12" ry="7.5"/>
<ellipse transform="matrix(0.9999 -1.224693e-02 1.224693e-02 0.9999 -1.2824 6.9838)" class="st10" cx="569.6" cy="108.2" rx="3.2" ry="1.9"/>
<ellipse transform="matrix(0.9997 -2.313349e-02 2.313349e-02 0.9997 -2.4099 13.0742)" class="st11" cx="563.9" cy="110.7" rx="2.4" ry="1.5"/>
<ellipse transform="matrix(0.9997 -2.313349e-02 2.313349e-02 0.9997 -2.4978 13.0752)" class="st11" cx="563.9" cy="114.5" rx="2.4" ry="1.5"/>
<ellipse transform="matrix(0.9997 -2.313349e-02 2.313349e-02 0.9997 -2.59 13.0994)" class="st11" cx="564.9" cy="118.5" rx="2.4" ry="1.5"/>
<ellipse transform="matrix(0.9997 -2.313349e-02 2.313349e-02 0.9997 -2.3333 13.2954)" class="st11" cx="573.5" cy="107.5" rx="2.4" ry="1.5"/>
<ellipse transform="matrix(0.9997 -2.313349e-02 2.313349e-02 0.9997 -2.332 13.4111)" class="st11" cx="578.5" cy="107.5" rx="2.4" ry="1.5"/>
<ellipse transform="matrix(0.9997 -2.313349e-02 2.313349e-02 0.9997 -2.3446 13.5176)" class="st11" cx="583.1" cy="108.1" rx="2.4" ry="1.5"/>
<ellipse transform="matrix(0.9997 -2.313349e-02 2.313349e-02 0.9997 -2.4014 13.6062)" class="st11" cx="586.9" cy="110.6" rx="2.4" ry="1.5"/>
<ellipse transform="matrix(0.9997 -2.313349e-02 2.313349e-02 0.9997 -2.4589 13.6369)" class="st11" cx="588.2" cy="113.1" rx="2.4" ry="1.5"/>
<ellipse transform="matrix(0.9997 -2.313349e-02 2.313349e-02 0.9997 -2.533 13.6309)" class="st11" cx="587.9" cy="116.3" rx="2.4" ry="1.5"/>
<ellipse transform="matrix(0.9997 -2.313349e-02 2.313349e-02 0.9997 -2.5845 13.5783)" class="st11" cx="585.6" cy="118.5" rx="2.4" ry="1.5"/>
<ellipse transform="matrix(0.9997 -2.313349e-02 2.313349e-02 0.9997 -2.6384 13.521)" class="st11" cx="583.1" cy="120.8" rx="2.4" ry="1.5"/>
<ellipse transform="matrix(0.9997 -2.313349e-02 2.313349e-02 0.9997 -2.6697 13.415)" class="st11" cx="578.5" cy="122.1" rx="2.4" ry="1.5"/>
<ellipse transform="matrix(0.9997 -2.313349e-02 2.313349e-02 0.9997 -2.6727 13.3525)" class="st11" cx="575.8" cy="122.2" rx="2.4" ry="1.5"/>
<path class="st9" d="M569.2,124.5L569.2,124.5c0.2-0.2,0.4-0.3,0.6-0.4v-4.8h-1.3v4.7C568.7,124.2,568.9,124.4,569.2,124.5z"/>
<ellipse transform="matrix(0.9997 -2.313349e-02 2.313349e-02 0.9997 -2.6502 13.1024)" class="st11" cx="565" cy="121.1" rx="2.4" ry="1.5"/>
<ellipse transform="matrix(0.9997 -2.313349e-02 2.313349e-02 0.9997 -2.6732 13.3132)" class="st11" cx="574.1" cy="122.2" rx="2.4" ry="1.5"/>
<polygon class="st12" points="599.3,125.4 603.2,121.4 607,117.4 610.4,121.8 613.7,126.2 606.5,125.8 "/>
<path class="st1" d="M594.4,144.3"/>
<path class="st1" d="M585,144.3"/>
<rect x="568.5" y="139.8" class="st1" width="20.8" height="11.5"/>
<rect x="300" y="70.3" class="st12" width="147.2" height="52.9"/>
<rect x="300" y="70.3" class="st13" width="147.2" height="7.4"/>
<text transform="matrix(1.5618 0 0 1 354.9268 74.1865)" class="st5 st14">Hjemmeside</text>
<rect x="316.5" y="85.5" class="st13" width="39.5" height="18.4"/>
<line class="st15" x1="316.5" y1="85.5" x2="356" y2="103.9"/>
<line class="st15" x1="356" y1="85.5" x2="316.5" y2="103.9"/>
<rect x="382.5" y="87.3" class="st16" width="46" height="1.4"/>
<rect x="382.5" y="90.6" class="st16" width="46" height="1.4"/>
<rect x="382.5" y="93.8" class="st16" width="46" height="1.4"/>
<rect x="382.5" y="97" class="st16" width="46" height="1.4"/>
<rect x="382.5" y="100.2" class="st16" width="46" height="1.4"/>
<rect x="382.5" y="103.4" class="st16" width="46" height="1.4"/>
<rect x="382.5" y="106.2" class="st16" width="46" height="1.4"/>
<rect x="382.5" y="109.4" class="st16" width="46" height="1.4"/>
<rect x="382.5" y="112.6" class="st16" width="46" height="1.4"/>
<rect x="316.5" y="114" class="st13" width="39.5" height="9.2"/>
<line class="st15" x1="316.5" y1="114" x2="336.6" y2="123.2"/>
<line class="st15" x1="356" y1="114" x2="336.6" y2="123.2"/>
<ellipse class="st17" cx="505" cy="222.4" rx="29.8" ry="19.4"/>
<g>
	<path class="st17" d="M529.7,232.5c-23.8,3.6-25.8,3.5-49.6,0c0.2-0.3,0.3-0.5,0.5-0.8c23.4,3.5,25.1,3.6,48.6,0
		C529.4,231.9,529.6,232.2,529.7,232.5z"/>
</g>
<g>
	<path class="st17" d="M533.6,222.7c-27.7,1.5-29.9,1.4-57.6,0c0.2-0.1,0.4-0.2,0.6-0.3c27.2,1.4,29.2,1.4,56.4,0
		C533.2,222.5,533.4,222.6,533.6,222.7z"/>
</g>
<g>
	<path class="st17" d="M480,213.1c23.8-3.6,25.8-3.5,49.6,0c-0.2,0.3-0.3,0.5-0.5,0.8c-23.4-3.5-25.1-3.6-48.6,0
		C480.3,213.6,480.1,213.4,480,213.1z"/>
</g>
<g>
	<path class="st17" d="M491,238.6c-6.2-16-6-17.3,0-33.4c0.5,0.1,0.9,0.2,1.4,0.3c-6,15.7-6.1,16.9,0,32.7
		C492,238.4,491.5,238.5,491,238.6z"/>
</g>
<g>
	<path class="st17" d="M521.9,206.3c2.5,16.1,2.2,17.3-4,33c-0.3-0.1-0.6-0.3-0.9-0.4c6.1-15.4,6.3-16.6,3.9-32.3
		C521.2,206.5,521.6,206.4,521.9,206.3z"/>
</g>
<rect x="504.7" y="202.7" class="st17" width="1.1" height="39.1"/>
<g>
	<g>
		<path class="st18" d="M405,508c0,18.3,0,36.5,0,54.8c0,1.9,3,1.9,3,0c0-18.3,0-36.5,0-54.8C408,506,405,506,405,508L405,508z"/>
	</g>
</g>
<g>
	<g>
		<path class="st18" d="M406.5,502.1c1.9,0,1.9-3,0-3C404.5,499.1,404.5,502.1,406.5,502.1L406.5,502.1z"/>
	</g>
</g>
<g>
	<g>
		<path class="st18" d="M416.1,501c3.7,16,5.5,32.5,5,48.9c-0.1,4.7-0.4,9.4-0.9,14c-0.2,1.9,2.8,1.9,3,0
			c1.6-16.5,1.1-33.1-1.5-49.5c-0.8-4.8-1.7-9.5-2.8-14.2C418.6,498.3,415.7,499.1,416.1,501L416.1,501z"/>
	</g>
</g>
<g>
	<g>
		<path class="st18" d="M418.7,500.3c4.5,16.7,10.4,33.1,17.5,48.9c2.1,4.6,4.3,9.2,6.5,13.7c0.9,1.7,3.5,0.2,2.6-1.5
			c-7.8-15.5-14.4-31.5-19.7-48c-1.5-4.6-2.8-9.2-4.1-13.9C421.1,497.6,418.2,498.4,418.7,500.3L418.7,500.3z"/>
	</g>
</g>
<g>
	<g>
		<path class="st18" d="M446.4,562.1c-1.1-20.4-0.1-40.9,3-61.1c0.3-1.9-2.6-2.7-2.9-0.8c-3.1,20.5-4.2,41.2-3.1,61.9
			C443.5,564,446.5,564,446.4,562.1L446.4,562.1z"/>
	</g>
</g>
<g>
	<g>
		<path class="st18" d="M458.8,501.8c1,19.7,1.9,39.4,2.9,59.1c0.1,1.9,3.1,1.9,3,0c-1-19.7-1.9-39.4-2.9-59.1
			C461.7,499.9,458.7,499.9,458.8,501.8L458.8,501.8z"/>
	</g>
</g>
<g>
	<g>
		<path class="st18" d="M462.8,562.4c1.7,0,3.3,0,5,0c0.8,0,1.7,0,2.5,0c0.7,0,1.7,0.2,2.4-0.1c1.2-0.4,2.1-2.2,2.7-3.3
			c0.7-1.2,1.2-2.5,1.6-3.8c0.8-2.6,1-5.3,1.1-8c0.1-3.2,0.1-6.4,0.1-9.5c0-6.6,0-13.2-0.1-19.8c-0.1-3,0-6-0.3-9
			c-0.2-2.5-1.1-4.8-3-6.6c-4.1-3.8-10.9-4.6-16.2-3.7c-1.9,0.3-1.1,3.2,0.8,2.9c4-0.6,8.6,0,12.1,2.1c3.9,2.3,3.4,6.7,3.6,10.6
			c0.3,10.6,0.3,21.2,0.1,31.7c-0.1,5-0.5,9.8-3.8,13.8c0.4-0.1,0.7-0.3,1.1-0.4c-3.1,0-6.3,0-9.4,0
			C460.8,559.4,460.8,562.4,462.8,562.4L462.8,562.4z"/>
	</g>
</g>
<g>
	<g>
		<path class="st18" d="M483.7,499.9c1.7,20.4,3.4,41.2-1.4,61.4c-0.4,1.9,2.4,2.7,2.9,0.8c3.8-15.9,3.7-32.2,2.6-48.4
			c-0.3-4.6-0.7-9.2-1.1-13.8C486.5,498,483.5,498,483.7,499.9L483.7,499.9z"/>
	</g>
</g>
<g>
	<g>
		<path class="st18" d="M491.6,531c3.8,0.1,7.7-0.3,11.3-1.3c0.8-0.2,1.3-1.1,1-1.8c-0.2-0.8-1.1-1.3-1.8-1c-3.4,1-7,1.3-10.5,1.2
			c-0.8,0-1.5,0.7-1.5,1.5C490.1,530.3,490.8,531,491.6,531L491.6,531z"/>
	</g>
</g>
<g>
	<g>
		<path class="st18" d="M501.6,500c-1.3,20.7-1.7,41.4-1.2,62.2c0,1.9,3,1.9,3,0c-0.5-20.7-0.1-41.5,1.2-62.2
			C504.7,498,501.7,498,501.6,500L501.6,500z"/>
	</g>
</g>
<g>
	<g>
		<path class="st18" d="M527.3,499.1c-2,0-4,0-5.9,0c-0.5,0-1.1,0.3-1.3,0.7c-4.1,9-6.2,18.6-6.8,28.4c-0.7,9.5,0,19.1,0.6,28.6
			c0.1,2,0.2,4,2.2,5c1.5,0.8,3.3,0.9,5,0.8c3.5-0.2,7.3-1.5,8.1-5.4c0.4-2.1,0.4-4.4,0.6-6.6c0.2-2.7,0.4-5.3,0.7-8
			c0.4-5.3,0.9-10.6,1.3-15.9c0.5-6,1-11.9,1.5-17.9c0.1-1.5,0.3-3,0.4-4.5c0.1-0.8,0.1-1.5-0.2-2.2c-0.7-2-2.6-2.8-4.6-2.9
			c-1.9-0.2-1.9,2.8,0,3c1.1,0.1,1.9,0.5,1.8,1.7c-0.1,2.3-0.4,4.7-0.6,7c-0.4,4.6-0.8,9.3-1.2,13.9c-0.8,9.3-1.6,18.6-2.3,27.8
			c-0.1,1.5,0.1,3.6-0.7,5c-0.7,1.3-2.4,1.7-3.7,1.9c-1.4,0.2-3,0.3-4.3-0.2c-0.6-0.2-0.8-0.6-0.8-1.2c-0.1-1.1-0.2-2.2-0.2-3.4
			c-0.6-8.4-1.1-16.8-0.6-25.2c0.6-9.7,2.5-19.3,6.5-28.2c-0.4,0.2-0.9,0.5-1.3,0.7c2,0,4,0,5.9,0
			C529.2,502.1,529.2,499.1,527.3,499.1L527.3,499.1z"/>
	</g>
</g>
<g>
	<g>
		<path class="st18" d="M541.2,501.2c-1.8,20-2.3,40.2-1.5,60.3c0.1,1.9,3.1,1.9,3,0c-0.9-20.1-0.4-40.3,1.5-60.3
			C544.3,499.3,541.3,499.3,541.2,501.2L541.2,501.2z"/>
	</g>
</g>
<g>
	<g>
		<path class="st18" d="M541,563.6c2.9,0.2,5.8-0.1,8.6-0.7c0.8-0.2,1.3-1.1,1-1.8c-0.3-0.8-1-1.2-1.8-1c-0.6,0.1-1.3,0.2-1.9,0.3
			c-0.2,0-0.2,0-0.1,0c-0.1,0-0.2,0-0.3,0c-0.2,0-0.3,0-0.5,0.1c-0.3,0-0.7,0.1-1,0.1c-1.4,0.1-2.8,0.1-4.1,0
			c-0.8,0-1.5,0.7-1.5,1.5C539.6,563,540.2,563.6,541,563.6L541,563.6z"/>
	</g>
</g>
<g>
	<g>
		<path class="st18" d="M556.9,503.7c1.5,19,1.6,38.2,0.4,57.2c-0.1,1.9,2.9,1.9,3,0c1.2-19.1,1.1-38.2-0.4-57.2
			C559.7,501.7,556.7,501.7,556.9,503.7L556.9,503.7z"/>
	</g>
</g>
<g>
	<g>
		<path class="st18" d="M560.2,504.5c1.9,0,1.9-3,0-3C558.3,501.5,558.3,504.5,560.2,504.5L560.2,504.5z"/>
	</g>
</g>
<g>
	<g>
		<path class="st18" d="M561.7,504.6c1.5-0.8,4.5-0.4,5.7,0.9c0.7,0.8,1,1.9,1.3,2.8c0.5,1.5,0.9,2.9,1.3,4.4
			c1.2,5.6,1,11.4,0.6,17.1c-0.4,5.7-1.1,11.4-1.1,17.2c0,2.9,0.3,5.7,0.7,8.5c0.3,1.9,0.4,3.6-1.5,4.7c-1.5,0.9-3.6,1-5.3,1
			c-1,0-1.9-0.1-2.8-0.3c-0.3-0.1-0.6-0.2-0.8-0.3c-0.3-0.2-0.3-0.4-0.2-0.1c-0.6-1.8-3.5-1-2.9,0.8c0.6,1.8,2.5,2.4,4.2,2.7
			c2.2,0.4,4.6,0.3,6.8-0.2c2.2-0.5,4.3-1.6,5.3-3.7c1.1-2.4,0.2-5.1-0.1-7.6c-1.5-13.6,3.1-27.4,0-40.9c-0.4-1.8-1-3.6-1.7-5.3
			c-0.6-1.4-1.2-2.6-2.4-3.5c-2.3-1.6-6-2-8.5-0.7C558.4,502.8,559.9,505.4,561.7,504.6L561.7,504.6z"/>
	</g>
</g>
</svg>
