<?xml version="1.0" encoding="utf-8"?>
<!-- Generator: Adobe Illustrator 26.0.3, SVG Export Plug-In . SVG Version: 6.00 Build 0)  -->
<svg version="1.1" id="Layer_1" xmlns="http://www.w3.org/2000/svg" xmlns:xlink="http://www.w3.org/1999/xlink" x="0px" y="0px"
	 viewBox="0 0 835 370" style="enable-background:new 0 0 835 370;" xml:space="preserve">
<style type="text/css">
	.st0{fill:#FFFFFF;}
</style>
<path class="st0" d="M9.1,79.2C33.5,74.8,57.7,69,81.6,61.9c18.6-5.5,38.3-12,53.6-24.4c5.8-4.7,11.1-10.7,13.3-18
	c2.2-7,1.4-15.5-7.2-16.7c-9.1-1.4-18,4.6-24.5,10.3c-7.5,6.6-13.2,14.9-18.1,23.6C87.2,57.2,78,79,71.3,101.5
	c-3.4,11.5-6.1,23.1-8.2,34.8c-2.1,11.1-4.5,22.6-11,32c-5.7,8.2-13.8,14.3-23.2,17.6c-4.7,1.8-9.7,2.6-14.7,2.4
	c-3.2-0.2-9.9-1.2-11-4.9s6-8.4,8.6-10.6c3.6-3,7.3-5.8,11.1-8.6c7.4-5.3,15.2-10.3,23-15.1c15.9-9.7,32.2-18.8,47.5-29.4
	c13.4-9.2,26.5-19.7,35.8-33.2c2.2-3.2,4.2-6.6,5.9-10.2c0.4-0.7,0.1-1.6-0.6-2c-0.6-0.3-1.3-0.2-1.7,0.2
	c-13.9,13-21.7,31.6-16.8,50.5c0.2,0.8,1.1,1.3,1.9,1c0.1,0,0.2-0.1,0.3-0.1c17.6-10.4,32.9-24.4,44.8-41
	c11.2-15.4,19.4-32.7,26.3-50.4c3.9-10,7.3-20.2,10.7-30.4c0.2-0.8-0.3-1.6-1.1-1.8c-0.6-0.1-1.3,0.1-1.6,0.7
	c-8.4,16.2-15.2,33.1-20.4,50.6c-2.5,8.6-4.6,17.3-6.3,26.1c-1.2,6.5-3,13.5-1.6,20.1c3.2,14.6,20.8,12.6,30.1,5.3
	c5.6-4.4,9.2-10.5,12-16.9c3.6-8.3,6.7-16.8,9.7-25.2c7.2-20.2,13.4-40.7,18.5-61.5c0.2-0.8-0.3-1.6-1.1-1.8c-0.8-0.2-1.5,0.3-1.7,1
	c-12.1,38.3-22.4,77.1-31,116.3l2.9,0.4c-0.5-19.3,12.9-35.2,28.8-44.5l-1.9-2.2l-13.3,12.7c-2.4,2.2-7.6,5.6-6.1,9.5
	c1.2,3.1,5.4,5.6,8.1,7.4c3.7,2.4,7.7,4.2,11.9,5.5c14.6,4.7,35.7,3.9,44.1-11.3c3.6-6.5,2.7-13.7-2.7-18.9
	c-0.5-0.5-1.2-0.6-1.8-0.2c-10.8,8.3-24.9,21.7-17.1,36.5c8.4,16.1,30,10.2,43.8,17.3c15.8,8.1,23.5,27.3,27.2,43.7
	c2.2,9.6,2.4,19.1,2.3,28.8c-0.1,8.3,0.3,17.1,5.2,24.2c8.2,12.1,26,17.8,38.7,9.3c4.3-2.9,8.3-8,6.1-13.5s-9.1-7.7-14.6-8.2
	c-7.4-0.7-14.8,1.2-20.8,5.6c-6,4.4-10,10.7-13.3,17.2c-8.4,16.7-11.4,35.2-11.7,53.8c-0.2,10.3,0.5,20.6,1.3,30.8
	c0.7,9.4,2.5,19.2,1.9,28.6s-6.6,16.5-16.4,17.1c-9.2,0.6-18.8-4.2-24.7-11.1l-0.3,2.4c10.6-5.1,20.8-11.1,30.4-17.9
	c9.3-6.6,17.6-14.3,26-22c8-7.3,17-13.6,26.6-18.8c8.6-4.5,17.4-8.6,25.7-13.6c7.8-4.7,15.3-10.5,19.5-18.8c0.5-0.9-0.1-2.4-1.3-2.2
	c-11.5,1.2-24.8,6.5-30,17.7c-4.9,10.3,0.2,21.9,9.2,28.1c5,3.5,10.6,3.8,15.1-0.5c5-5,9.5-10.5,13.4-16.4
	c7.4-11.3,13.3-23.5,17.4-36.3c4.9-14.7,8-29.8,11-45c0.4-1.9-2.5-2.7-2.9-0.8l-9.6,43.7l-4.8,22.2c-1.1,5.3-2.3,10.7-1.7,16.1
	c0.9,8.3,10.1,20.5,19.2,13.2c3.8-3.1,5.2-8.4,7.1-12.8c2.4-5.8,5.1-11.5,9.6-16c8-8,23.8-12,33.5-5l0.8-2.8l-20.1-1.8
	c-0.5,0-1,0.3-1.3,0.7c-4,8.4-5.5,17.8-4.5,27.1c0.8,7,3.9,13.5,10.8,16.3c2.7,1.2,5.8,1.2,8.5-0.1c3.4-1.7,4.7-5.3,6-8.7
	c3.6-9.3,5.7-19.1,6.2-29.1l-2.6,1.1c5.8,4.9,5.1,12.2,8.1,18.6c2.6,5.4,7.7,9.2,13.7,10.2c6.5,1,10.9-2.7,14.6-7.6
	c5.1-6.8,9.2-14.2,12.4-22.1l-3-0.4l-4.5,38l3-0.4c-1.4-6.6-0.5-13.5,2.6-19.5c3.1-6.1,8.6-12.6,15.7-13.6c7.3-1,10.9,4.6,12.7,10.7
	c2.2,7.4,4.3,14.8,6.5,22.2c0.2,0.5,0.6,0.9,1.1,1c9.2,1.8,16.8-3.8,21.6-11.3c2.6-4,4.2-8.2,7.5-11.7c4-4.3,9.3-6.9,15.2-5.6v-2.9
	c-11.4,2-26.6,13-20.7,26.4c3.1,7,10.8,8.3,17.3,5.4c7.6-3.3,14.1-10.4,19.4-16.6c9.9-11.8,16.8-26.2,18-41.7
	c0.5-6.4,0.4-14.5-8.1-14.6c-7.3-0.1-11.4,5.3-12.3,12c-3.1,22.2-1.1,45.1,4.6,66.7c0.3,0.8,1.2,1.2,1.9,0.9c0.7-0.3,1.1-1,1-1.7
	c-4.1-15.1-6.1-30.7-5.9-46.4c0-3.7,0.2-7.4,0.5-11.1s0.3-8.1,1.7-11.7c1.2-3.4,4.5-5.7,8.1-5.7c5-0.2,5.8,3.7,5.7,7.8
	c-0.2,12.6-4.5,24.8-11.3,35.3c-3.7,5.7-8.1,11-13.1,15.6c-4.9,4.6-12.1,11.6-19.5,9.4s-7.2-11.5-3.7-16.9c3.8-5.8,10.5-9,17.2-10.2
	c1.5-0.3,1.4-2.6,0-2.9c-9.4-2.1-17.3,3.9-22.2,11.6c-2.5,4-4.1,8.1-7.4,11.5c-3.9,4.1-9,6.6-14.7,5.5l1,1
	c-2.5-8.6-4.4-17.8-7.8-26.1c-2.7-6.4-8.3-10.2-15.4-8.9c-7.6,1.4-13.4,8-17,14.5c-3.7,6.8-4.8,14.7-3.2,22.3
	c0.4,1.8,2.8,1.2,2.9-0.4l4.5-38c0.2-1.8-2.4-1.8-2.9-0.4c-2.7,6.7-6.2,13-10.3,18.9c-1.9,2.7-3.9,5.9-6.9,7.6
	c-3.1,1.6-6.8,1.6-9.9,0.1c-5.9-2.6-8.3-7.5-9.7-13.4c-1.2-5.2-2.7-10-6.9-13.6c-0.6-0.6-1.6-0.5-2.1,0.1c-0.3,0.3-0.4,0.6-0.4,1
	c-0.4,7.5-1.7,14.9-3.9,22c-1.1,3.5-2.2,7.4-4,10.5c-2.2,3.6-6.1,4-9.6,2.2c-6.3-3.2-7.9-9.5-8.3-16c-0.4-7.8,1.1-15.6,4.4-22.7
	l-1.3,0.8l20.1,1.8c1.6,0.2,1.8-2,0.8-2.8c-7.3-5.2-17.6-4.6-25.8-1.6c-9.7,3.6-15.8,11.1-20,20.3c-2.1,4.6-3.4,10.6-6.9,14.4
	c-5.7,6.1-13-1.2-14.7-7.1c-1.6-5.5-0.4-11.4,0.8-16.9c1.5-6.8,2.9-13.5,4.4-20.3l10.2-46.9l-2.9-0.8c-4.5,22.5-9.2,45.2-19.5,65.9
	c-5.4,11-12.4,21.1-20.9,30c-2.8,2.8-5.8,3.9-9.5,2.2c-2.6-1.3-4.9-3.1-6.8-5.2c-3.7-4.1-6-9.6-5.3-15.2
	c1.6-13.3,17.2-20.1,28.9-21.2l-1.3-2.3c-3.9,7.7-10.8,13-18,17.5c-8,4.9-16.5,8.8-24.9,13.2c-8.8,4.5-17,10-24.5,16.4
	c-8.7,7.5-16.8,15.7-26.1,22.6c-10.5,7.8-21.8,14.7-33.6,20.4c-0.7,0.4-0.9,1.4-0.5,2.1c0.1,0.1,0.1,0.2,0.2,0.3
	c8.4,9.9,24.6,16,36.7,9.2c12.3-7,9.6-22.8,8.6-34.5c-2.8-33.7-6.4-71.6,13-101.5c4.3-6.6,10.4-12,18.2-13.8
	c6.1-1.4,15.2-1.3,19.7,3.8c6,6.6-4.3,13.2-9.9,14.7c-8,2.2-16.9-0.3-23.2-5.6c-14-11.7-8.5-31-10.3-46.9
	c-1.8-15.5-7-32.2-16.7-44.7c-4.8-6.3-11.3-11.1-18.7-13.8c-8.8-3.1-18.4-2.1-27.1-5.2c-7.9-2.8-13.7-10.5-12.1-19.2
	c1.8-9.4,10.4-16.6,17.6-22.1l-1.8-0.2c6,5.7,4.5,13.7-0.8,19.3c-6.2,6.5-15.3,8.6-24,8.3c-9.1-0.3-18-3.2-25.6-8.2
	c-1.4-1-4.5-2.8-5.3-4.4c-1.4-2.9,3.1-5.7,4.8-7.3l13.3-12.7c0.6-0.6,0.5-1.6-0.1-2.1c-0.5-0.4-1.2-0.5-1.7-0.2
	c-16.8,9.8-30.8,26.7-30.3,47.1c0,1.6,2.6,2.1,3,0.4c8.6-39.2,18.9-78,31-116.4l-2.9-0.8c-4,16.3-8.7,32.4-14,48.3
	c-2.7,8.2-5.7,16.4-8.7,24.5c-2.6,6.9-5,14.1-8.8,20.4s-9.6,11.6-17,13.4c-6.9,1.7-14.2-0.7-15.9-8c-1.5-6.3,0.5-13.3,1.6-19.5
	c1.5-8,3.4-15.9,5.6-23.8c5.2-17.8,12.1-35.1,20.6-51.6l-2.7-1.2c-11.7,35.5-25.3,71.5-52.3,98.3c-8.4,8.4-17.9,15.6-28.1,21.7
	l2.2,0.9c-4.6-17.9,3-35.4,16.1-47.6l-2.3-1.8c-7.2,15-19.5,26.7-32.6,36.5c-14.5,10.9-30.3,19.9-45.8,29.2
	c-15.3,9.2-30.7,18.5-44.4,30c-4.4,3.6-13.9,10.4-7.4,16.4c5.5,5.2,15.2,4.8,21.9,3.3c19.4-4.4,33-19.3,38.4-38
	c3.2-10.9,4.5-22.3,7.2-33.3c2.8-11.6,6.2-23,10.2-34.1c4.2-11.6,9.1-23,14.7-34.1c4.7-9.4,9.5-18.9,16.1-27
	c6.2-7.8,14.9-16.1,25.1-17.9c2.4-0.6,5-0.4,7.3,0.4c3.1,1.3,3.7,4.2,3.5,7.3c-0.3,4-1.6,7.8-3.8,11.2c-4.7,7.5-12.2,13-19.8,17.4
	c-8.7,4.9-17.9,9-27.5,12.1c-22.5,7.8-46,13.5-69.3,18.4c-6,1.3-12,2.4-18,3.5c-1.9,0.4-1.1,3.2,0.8,2.9L9.1,79.2z"/>
<path class="st0" d="M827.2,206.3c-5.7,6.4-14.8,7.7-22.8,8.8s-19,2.4-22.8,10.9c-3.4,7.7-2.1,16.5,3.2,23
	c5.1,5.9,14.2,7.9,20.8,3.3c3.1-2.3,5.2-5.8,5.5-9.6c0.4-3.3-0.2-7.2-3-9.3c-3.1-2.3-7.2-1.3-10.3,0.5c-3.4,2-6,5.2-7.3,8.9
	c-0.7,1.8-1,3.7-1,5.6c0.1,2,0.6,4,1.4,5.9c0.8,2.4,0.4,4.3-0.4,6.6s-1.8,4.6-2.7,6.9c-1.8,4.5-3.7,8.9-5.7,13.3
	c-1,2.2-2,4.4-3.1,6.6c-0.9,2-1.9,3.9-3.2,5.6c-2.6,3.2-6.7,4.8-10.6,5.6c-4.1,0.9-8.4,1.1-12.6,0.6c-4.1-0.4-8-1.4-11.7-3.2
	c-1.7-0.8-3.3-1.8-4.9-2.9c-0.7-0.5-1.5-1.1-2.1-1.7c-0.1-0.1-0.3-0.2-0.4-0.4c-0.2-0.4-0.2,0.2,0-0.2s1.3-0.7,1.6-0.8
	c8.3-3.6,16.9,0,24.2,4.2c8,4.7,16.2,9.5,24.9,12.8c8.5,3.3,18,3.5,26.7,0.5c3.8-1.3,7.7-3.3,9.9-6.8c2-3.2,2.1-7.4-1.2-9.7
	s-8.2-2.1-11.9-2.1c-4.7,0-9.4,0.5-14,1.5c-4.4,1-9.1,3.2-13.6,2.6c-1.5-0.2-3.3-0.8-4.1-2.2c-0.9-1.6,0.3-3.5,1.4-4.7
	c1.4-1.6,3-3,4.5-4.5s3-3.2,4.4-4.9c2.7-3.4,5.1-7,7.2-10.8c0.9-1.8,1.7-3.6,2.5-5.4c0.7-1.6,1.6-3.4,3.4-4.1s4.1-0.6,6.1-1
	c2.1-0.3,4.1-0.9,6.1-1.6c7.5-2.8,13.3-8.9,15.6-16.5c2.4-7.3,1.8-15.1,3.2-22.6c0.7-4.1,2.2-7.9,4.5-11.4c1.1-1.6-1.5-3.1-2.6-1.5
	c-4.8,6.9-5.3,15.2-6,23.3c-0.5,7-1.9,14.5-6.7,19.9c-2.8,3-6.3,5.2-10.2,6.4c-2,0.7-4.1,1.1-6.2,1.3c-2,0-4,0.5-5.8,1.3
	c-3.4,1.8-4.3,5.9-5.9,9.1c-1.9,3.8-4.1,7.3-6.7,10.6c-2.7,3.5-5.9,6.4-8.9,9.6c-2.4,2.5-4.6,6.2-2.3,9.5s6.6,3.6,10.1,3.2
	c4.6-0.6,8.9-2.3,13.4-3.1c4.6-0.8,9.2-1.1,13.8-0.8c2.8,0.2,8.8,0.3,8.4,4.5c-0.4,4-4.8,6.5-8.2,7.7c-4.2,1.6-8.6,2.4-13,2.4
	c-9.2,0-17.3-4.3-25.2-8.4c-4.2-2.2-8.3-4.5-12.3-6.9c-3.6-2.3-7.6-4-11.7-5.1c-3.9-1-8.1-1-12,0c-1.9,0.4-3.7,1.2-5.3,2.4
	c-1.7,1.4-1.2,3.4,0.2,4.7c5.6,5.3,13.4,8,21,8.8c4.1,0.4,8.3,0.2,12.4-0.5c3.9-0.6,7.6-2.1,10.8-4.5c3.4-2.7,5.1-6.7,6.9-10.5
	c2-4.3,3.9-8.6,5.8-12.9c1.8-4.4,3.8-8.8,5.3-13.3c0.8-2,0.9-4.2,0.4-6.3c-0.5-2-1.5-3.7-1.6-5.8c-0.1-3.9,1.5-7.7,4.4-10.4
	c2.2-2.1,6.4-4.6,9.4-2.5c2.7,1.9,2.2,6.4,1.3,9.1c-1.3,3.7-4.5,6.3-8.3,6.9c-8.1,1.5-14.6-5.2-16.1-12.7c-0.9-4.1-0.4-8.3,1.3-12.1
	c2-4,5.9-5.8,10-7c8.4-2.4,17.5-2.1,25.7-5.5c3.5-1.3,6.7-3.4,9.2-6.2C830.7,206.9,828.6,204.8,827.2,206.3L827.2,206.3z"/>
</svg>
