<?xml version="1.0" encoding="utf-8"?>
<!-- Generator: Adobe Illustrator 26.0.3, SVG Export Plug-In . SVG Version: 6.00 Build 0)  -->
<svg version="1.1" id="Layer_1" xmlns="http://www.w3.org/2000/svg" xmlns:xlink="http://www.w3.org/1999/xlink" x="0px" y="0px"
	 viewBox="0 0 8529.9 5236.1" style="enable-background:new 0 0 8529.9 5236.1;" xml:space="preserve">
<style type="text/css">
	.st0{fill:#F7931E;}
</style>
<g>
	<g>
		<path class="st0" d="M165.3,953C381,897.8,592.4,825.3,792.6,734.1c148.2-67.9,298.9-159.7,386.3-295.4
			c42.5-65.9,69.7-146.3,67.3-225.5c-2.3-42.6-17.6-85.3-60.7-104.6c-36.1-17.4-76.2-6.6-112.3,8.7c-80.9,37.9-139.4,123-182,195.6
			c-47.2,85.1-83.3,176.3-114.5,265.5c-72,201.6-130.6,407.8-175.4,618.7c-22.5,106.5-38.4,210.2-53.7,316.7
			c-13.6,104.4-24.8,208.3-58.4,308c-27.2,80.5-74.4,159.7-144.2,214.9c-47.2,37.9-144.2,87.2-200.3,36c-31.4-28,2.4-63.9,20.1-87.2
			c24.8-32,52-61.9,80.9-91.2c56.1-59.2,117-117.1,179.6-172.3c240.4-212.3,521.6-407.8,661-699.3c17.8-36,33.6-74.5,47.2-112.4
			c11.2-36-40.1-53.2-60.8-25.3c-119.3,157.1-164.2,361.2-128.1,550.2c4.7,25.3,38.4,28,56.1,14.6
			c303.7-252.8,444.7-629.5,544-990.7c28.9-106.5,53.7-212.3,78.6-318.7c8.9-40.6-52-55.2-65-17.4
			C1495,293.4,1446,465.1,1410.1,641.4c-17.8,89.1-33.6,178.3-47.2,267.4c-11.2,76.5-27.2,157.1-20.1,233.5
			c6.5,59.2,28.9,127.7,94.5,149.1c78.6,28,155.3-32,197.9-89.1c45-61.9,65-133.8,85.6-204.3c24.8-89.1,49.7-181,72-270.2
			c49.7-204.3,92.2-407.8,128.1-614.2c6.5-40.6-56.1-57.2-65-17.4c-92.2,414.5-170.7,831-235.7,1247.5c22.5,1.9,45,6.6,65,8.7
			c-2.4-176.3,72-350.6,213.2-467.7c-17.8-12.7-36.1-25.3-53.7-37.9c-28.9,40.6-60.8,80.5-89.8,121.1c-24.8,33.9-65,72.5-60.8,114.5
			c4.7,37.9,42.5,74.5,72,99.7c28.9,25.3,63.3,46.6,98.7,61.9c72,29.9,150.6,36,224.5,6.6c65-25.3,109.8-80.5,134.7-142.5
			c27.2-67.9,24.8-149.1-20.1-210.2c-11.2-14.6-38.4-23.3-53.7-6.6c-103.4,112.4-193.1,263.4-128.1,414.5
			c28.9,67.9,85.6,112.4,159.5,129.8c40.1,8.7,80.9,12.7,119.3,25.3c33.6,10.6,65,33.9,89.8,59.2c52,53.2,83.3,123,105.8,193.6
			c28.9,87.2,52,176.3,63.3,267.4c13.6,91.2,13.6,183,11.2,274.2c-2.4,85.1,0,174.3,33.6,254.9c27.2,63.9,74.4,123,141.7,153.1
			c67.3,28,139.4,14.6,190.7-32c49.7-44.6,76.2-114.5,47.2-176.3c-27.2-59.2-94.5-89.1-161.8-85.1
			c-170.7,10.6-233.9,212.3-271.8,341.9c-47.2,170.3-63.3,346.6-63.3,520.9c0,178.3,13.6,357.2,22.5,535.6
			c4.7,63.9,6.5,138.5-27.2,195.6c-38.4,63.9-109.8,61.9-166.6,21.4c-31.4-21.4-53.7-48.6-72-78.5c-4.7,14.6-8.9,29.9-11.2,44.6
			c85.6-57.2,164.2-123,235.7-195.6c71.5-72.5,134.7-155,197.9-236.1c58.4-74.5,121.1-140.4,197.9-199.6
			c65-48.6,134.7-93.8,197.9-146.3c69.7-59.2,125.8-129.8,157.1-212.3c8.9-25.3-17.8-42.6-40.1-37.9
			c-121.1,17.4-222.6,114.5-247.5,227.6c-13.6,57.2-8.9,117.1,8.9,174.3c17.8,51.2,52,110.5,103.4,140.4
			c69.7,37.9,112.3-21.4,144.2-72.5c36.1-57.2,67.3-117.1,94.5-178.3c56.1-125.1,94.5-254.9,123.4-386.6
			c33.6-151,53.7-302.1,76.2-455c4.7-36-60.8-44.6-65-8.7c-22.5,140.4-42.5,278.2-65,418.5c-20.1,129.8-47.2,259.4-58.4,389.2
			c-4.7,57.2-2.4,114.5,20.1,167.7c20.1,44.6,60.8,99.7,121.1,85.1c52-12.7,69.7-67.9,83.3-110.5c17.8-55.2,31.4-110.5,53.7-163.7
			c22.5-53.2,56.1-101.8,109.8-129.8c47.2-23.3,103.4-25.3,139.4,12.7c11.2-17.4,22.5-36,33.6-53.2c-52-6.6-100.9-12.7-153-19.3
			c-17.8-1.9-36.1,4-40.1,21.4c-28.9,93.8-42.5,193.6-33.6,291.4c6.5,69.8,24.8,155,98.7,190.9c31.4,14.6,69.7,10.6,94.5-12.7
			c31.4-28,38.4-74.5,47.2-110.5c24.8-97.8,40.1-197.6,42.5-297.4c-20.1,8.7-38.4,14.6-58.4,23.3c42.5,48.6,36.1,123,52,181
			c15.9,57.2,60.8,121.1,123.4,131.7c76.2,14.6,117-53.2,144.2-108.4c36.1-69.8,65-144.4,85.6-220.8c-22.5-1.9-45-6.6-65-8.7
			c-11.2,135.7-22.5,272.1-33.6,407.8c22.5-1.9,45-6.6,65-8.7c-8.9-63.9-4.7-129.8,15.9-190.9c8.9-29.9,22.5-57.2,40.1-85.1
			c13.6-23.3,38.4-57.2,69.7-61.9c53.7-6.6,63.3,87.2,69.7,119c15.9,74.5,31.4,149.1,47.2,222.9c2.4,10.6,13.6,19.3,22.5,21.4
			c96.9,28,159.5-63.9,193.1-135.7c17.8-40.6,28.9-80.5,53.7-119c20.1-29.9,49.7-65.9,89.8-53.2c0-21.4,0-40.6,0-61.9
			c-137,33.9-220.3,193.6-166.6,316.7c13.6,33.9,40.1,63.9,80.9,69.8c40.1,6.6,76.2-12.7,105.8-36
			c60.8-51.2,108.1-129.8,145.9-197.6c78.6-146.3,121.1-310.1,121.1-473.8c0-36-2.4-74.5-33.6-101.8c-27.2-23.3-67.3-23.3-98.7-6.6
			c-76.2,37.9-69.7,146.3-74.4,214.9c-13.6,212.3,2.4,427.2,42.5,637.4c6.5,40.6,72,23.3,65-17.4c-27.2-149.1-42.5-299.4-45-450.5
			c0-74.5,2.4-149.1,6.5-222.9c2.4-29.9,2.4-63.9,17.8-89.1c13.6-25.3,42.5-32,49.7,0c4.7,28,2.4,59.2,0,87.2
			c-2.4,33.9-4.7,65.9-11.2,99.7c-11.2,65.9-28.9,129.8-53.7,190.9c-24.8,59.2-53.7,117.1-89.8,172.3
			c-17.8,25.3-36.1,51.2-56.1,76.5c-17.8,19.3-45,55.2-76.2,55.2c-31.4,0-40.1-44.6-45-67.9c-4.7-28,0-57.2,11.2-83.2
			c20.1-53.2,63.3-97.8,121.1-112.4c33.6-8.7,31.4-51.2,0-61.9c-94.5-29.9-161.8,61.9-193.1,131.7c-17.8,40.6-28.9,80.5-53.7,119
			c-17.8,29.9-47.2,65.9-89.8,55.2c6.5,6.6,15.9,14.6,22.5,21.4c-17.8-91.2-31.4-183-58.4-274.2c-17.8-61.9-63.3-131.7-141.7-114.5
			c-78.5,17.2-123.4,104.4-148.2,170.3c-31.4,78.5-36.1,163.7-22.5,246.9c6.5,37.9,63.3,25.3,65-8.7
			c11.2-135.7,22.5-272.1,33.6-407.8c2.4-36-56.1-42.6-65-8.7c-17.8,63.9-40.1,125.1-67.3,183c-17.8,36-47.2,127.7-103.4,91.2
			c-47.2-29.9-56.1-89.1-65-138.5c-8.9-55.2-20.1-106.5-58.4-149.1c-20.1-23.3-56.1-1.9-58.4,23.3c-2.4,78.5-11.2,155-28.9,231.6
			c-8.9,36-15.9,74.5-28.9,108.4c-8.9,23.3-20.1,33.9-40.1,17.4c-52-40.6-52-119-53.7-176.3c-2.4-76.5,11.2-151,33.6-225.5
			c-13.6,6.6-27.2,14.6-40.1,21.4c52,6.6,100.9,12.7,153,19.3c31.4,4,58.4-28,33.6-53.2c-67.3-67.9-177.8-57.2-254-4
			c-92.2,63.9-123.4,174.3-153,274.2c-6.5,23.3-13.6,48.6-22.5,72.5c-6.5,17.4-17.8,40.6-38.4,23.3c-40.1-33.9-45-101.8-42.5-149.1
			c2.4-59.2,13.6-119,22.5-178.3c11.2-65.9,20.1-131.7,31.4-197.6c22.5-149.1,45-299.4,69.7-448.4c-22.5-1.9-45-6.6-65-8.7
			c-31.4,231.6-65,463-141.7,686.6c-36.1,106.5-83.3,210.2-145.9,308c-8.9,14.6-24.8,53.2-47.2,46.6c-22.5-6.6-40.1-36-52-53.2
			c-27.2-42.6-40.1-91.2-40.1-142.5c2.4-112.4,87.4-212.3,206.7-229.5c-13.6-12.7-27.2-25.3-40.1-37.9
			c-52,146.3-200.3,231.6-321.3,320.7c-72,53.2-134.7,112.4-190.7,183c-63.3,76.5-119.3,157.1-186.7,229.5
			c-76.2,80.5-161.8,155-254,218.9c-15.9,10.6-22.5,28-11.2,44.6c63.3,104.4,226.8,204.3,332.6,87.2c45-48.6,56.1-114.5,60.8-176.3
			c4.7-74.5-4.7-149.1-8.9-222.9c-20.1-329.4-40.1-671.3,74.4-988.1c24.8-65.9,56.1-144.4,121.1-185c45-28,117-29.9,148.2,17.4
			c36.1,51.2-8.9,114.5-58.4,138.5c-60.8,28-123.4-14.6-159.5-61.9c-49.7-63.9-60.8-142.5-63.3-218.9c-2.4-87.2,2.4-172.3-4.7-259.4
			c-11.2-159.7-45-325.4-117-471.7c-28.9-59.2-69.7-117.1-125.8-155c-63.3-44.6-137-44.6-211.5-65.9
			c-67.3-19.3-103.4-76.5-112.3-140.4c-8.9-69.8,15.9-140.4,56.1-199.6c22.5-33.9,47.2-63.9,74.4-93.8c-17.8-1.9-36.1-4-53.7-6.6
			c80.9,108.4-13.6,274.2-150.6,276.1c-78.6,1.9-150.6-37.9-202-93.8c-6.5-8.7-15.9-14.6-20.1-23.3c-8.9-12.7-11.2-17.4-2.4-29.9
			c11.2-19.3,28.9-37.9,42.5-57.2c31.4-42.6,63.3-83.2,92.2-125.1c22.5-32-24.8-61.9-53.7-37.9
			c-155.3,127.7-238.1,320.7-233.9,514.3c0,33.9,60.8,44.6,65,8.7c65-418.5,144.2-835,235.7-1247.5c-22.5-6.6-42.5-10.6-65-17.4
			c-28.9,165.7-63.3,333.9-100.9,497.1c-20.1,85.1-40.1,167.7-63.3,250.9c-20.1,74.5-38.4,149.1-63.3,220.8
			c-22.5,59.2-56.1,138.5-123.4,163.7s-92.2-44.6-94.5-93.8c-4.7-69.8,8.9-142.5,17.8-212.3c11.2-83.2,27.2-167.7,42.5-250.9
			c38.4-181,89.8-359.3,153-533.6c-22.5-6.6-42.5-10.6-65-17.4C1469.5,490,1382,870.6,1159.3,1180.6
			c-60.8,85.1-130.6,161.7-211.5,229.5c17.8,4,38.4,8.7,56.1,14.6c-31.4-174.3,11.2-359.3,121.1-501.6
			c-20.1-8.7-40.1-17.4-60.8-25.3c-103.4,304.1-371,510.3-613.8,718.6c-123.4,106.5-245.1,216.8-346.2,341.9
			c-24.8,32-49.7,65.9-42.5,108.4c4.7,33.9,28.9,61.9,60.8,76.5c72,36,155.3,14.6,220.3-23.3c168.4-99.7,224.5-295.4,249.3-469.8
			c15.9-101.8,27.2-204.3,45-306.1c17.8-106.5,40.1-212.3,67.3-316.7c49.7-197.6,109.8-397.2,193.1-584.1
			c36.1-83.2,83.3-165.7,153-229.5c20.1-19.3,67.3-57.2,100.9-40.6c33.6,17.4,20.1,78.5,15.9,108.4
			c-28.9,157.1-164.2,267.4-301.2,346.6c-80.9,46.6-168.4,83.2-254,117.1c-103.4,40.6-209,76.5-314.8,110.5
			c-52,14.6-105.8,29.9-157.1,44.6C104.5,901.8,122.8,963.6,165.3,953L165.3,953z"/>
	</g>
</g>
<g>
	<g>
		<path class="st0" d="M6651,1307.6c-63.3,89.1-177.8,106.5-281.2,125.1c-58.4,10.6-119.3,25.3-168.4,59.2
			c-47.2,32-74.4,78.5-87.4,131.7c-24.8,99.7-15.9,216.8,45,306.1c53.7,80.5,157.1,127.7,247.5,69.8
			c83.3-53.2,114.5-176.3,78.6-263.4c-17.8-42.6-56.1-69.8-105.8-61.9c-49.7,8.7-89.8,44.6-114.5,83.2
			c-28.9,42.6-45,95.7-49.7,146.3c-2.4,25.3,2.4,51.2,8.9,74.5c6.5,28,17.8,53.2,13.6,80.5c-4.7,29.9-15.9,59.2-24.8,89.1
			c-8.9,32-20.1,61.9-28.9,93.8c-20.1,59.2-40.1,117.1-60.8,176.3c-20.1,53.2-36.1,117.1-72,163.7c-31.4,40.6-80.9,59.2-130.6,69.8
			c-100.9,19.3-209-8.7-285.3-74.5c-8.9-8.7-17.8-17.4-27.2-25.3l-2.4-1.9c-6.5-6.6-6.5-8.7,0-1.9c4.7-4,11.2-6.6,15.9-8.7
			c22.5-12.7,49.7-17.4,76.2-17.4c58.4,0,108.1,32,153,61.9c98.7,67.9,193.1,144.4,301.2,199.6c108.1,55.2,224.5,61.9,337.3,12.7
			c85.6-36,182-138.5,125.8-229.5c-27.2-46.6-85.6-53.2-137-57.2c-60.8-4-123.4,4-184.3,19.3c-28.9,6.6-58.4,17.4-85.6,28
			c-27.2,8.7-60.8,21.4-89.8,10.6c-53.7-21.4-13.6-80.5,11.2-110.5c72-89.1,130.6-181,173.1-284.8c8.9-25.3,17.8-51.2,27.2-74.5
			c8.9-23.3,17.8-42.6,45-46.6c53.7-10.6,100.9-19.3,150.6-46.6c202-121.1,170.7-372,197.9-562.9c6.5-55.2,22.5-110.5,49.7-161.7
			c20.1-36-38.4-67.9-58.4-32c-53.7,97.8-63.3,206.2-69.7,312.7c-6.5,95.7-11.2,197.6-58.4,286.7c-24.8,44.6-58.4,83.2-105.8,108.4
			c-20.1,10.6-42.5,19.3-65,23.3c-24.8,6.6-53.7,6.6-76.2,14.6c-49.7,19.3-65,65.9-80.9,108.4c-17.8,53.2-40.1,101.8-65,151
			c-27.2,48.6-56.1,93.8-89.8,135.7c-31.4,40.6-69.7,78.5-74.4,129.8c-4.7,42.6,20.1,85.1,60.8,101.8
			c49.7,23.3,105.8,6.6,155.3-10.6c58.4-21.4,119.3-36,182-37.9c38.4-1.9,128.1-10.6,139.4,37.9c11.2,44.6-28.9,89.1-67.3,112.4
			c-49.7,29.9-109.8,44.6-168.4,44.6c-114.5-1.9-215.6-80.5-305.4-142.5c-87.4-59.2-175.4-146.3-285.3-163.7
			c-52-8.7-103.4,0-148.2,23.3c-22.5,10.6-45,28-49.7,51.2c-4.7,25.3,11.2,44.6,28.9,63.9c67.3,69.8,161.8,112.4,260.4,121.1
			c96.9,8.7,211.5-17.4,274-91.2c36.1-42.6,53.7-97.8,72-149.1c20.1-55.2,40.1-110.5,58.4-165.7c20.1-59.2,38.4-117.1,56.1-176.3
			c6.5-25.3,15.9-51.2,17.8-76.5c2.4-28-4.7-53.2-11.2-80.5c-13.6-51.2-13.6-99.7,6.5-151c13.6-32,52-95.7,96.9-91.2
			c40.1,4,36.1,80.5,31.4,108.4c-6.5,44.6-28.9,93.8-76.2,110.5c-103.4,37.9-164.2-91.2-177.8-163.7c-11.2-53.2-6.5-108.4,6.5-159.7
			c15.9-55.2,49.7-91.2,108.1-112.4c103.4-37.9,217.9-33.9,314.8-87.2c42.5-23.3,76.2-53.2,103.4-91.2
			C6731.8,1305.7,6673.3,1273.7,6651,1307.6L6651,1307.6z"/>
	</g>
</g>
</svg>
