<?xml version="1.0" encoding="utf-8"?>
<!-- Generator: Adobe Illustrator 26.0.3, SVG Export Plug-In . SVG Version: 6.00 Build 0)  -->
<svg version="1.1" id="Layer_1" xmlns="http://www.w3.org/2000/svg" xmlns:xlink="http://www.w3.org/1999/xlink" x="0px" y="0px"
	 viewBox="0 0 480 279" style="enable-background:new 0 0 480 279;" xml:space="preserve">
<style type="text/css">
	.st0{fill:#FFFFFF;}
</style>
<g>
	<g>
		<path class="st0" d="M98.4,94.2c14.2,1.6,28.6,1.4,42.7-0.5c10.4-1.4,21.8-3.5,29.7-11c3.7-3.6,6-8.4,5.4-13.6
			c-0.1-1.2-1.6-2.1-2.6-1.1c-12,13.3-26.2,24.3-38.1,37.5c-11.1,12.3-20.4,27.3-22.1,44c-0.4,4.1-0.5,8.4,0.3,12.4
			c0.7,3.8,3.1,6.6,6.8,7.6c3.5,1,7.2,0.5,10.6-0.3c3.4-0.8,6.8-2,9.9-3.6c12.9-6.5,22.4-19,27.4-32.4c6.4-17.1,6.1-35.9,4.6-53.8
			c-0.2-2.3-0.4-4.6-0.6-7c-0.2-1.9-3.2-1.9-3,0c1.7,17.3,2.9,35.2-1.4,52.3c-3.5,13.6-11.1,26.6-22.7,34.8
			c-5.4,3.8-11.9,6.7-18.5,7.3c-3,0.3-6.9,0.1-8.9-2.6c-1.1-1.6-1.4-3.7-1.5-5.6c-0.2-1.9-0.2-3.9-0.1-5.8c0.6-16,9-30.8,19.2-42.7
			c11-12.9,24.4-23.5,36.1-35.6c1.5-1.5,2.9-3,4.3-4.6c-0.9-0.4-1.7-0.7-2.6-1.1c1.1,9.4-8,15.2-15.7,18c-5.1,1.9-10.4,2.7-15.7,3.5
			c-6.8,1-13.6,1.5-20.4,1.6c-7.6,0.2-15.3-0.2-22.8-1.1C96.5,90.9,96.5,93.9,98.4,94.2L98.4,94.2z"/>
	</g>
</g>
<g>
	<g>
		<path class="st0" d="M174.2,132.5c2.3,9.5-3,19.8-11.9,23.7c0.6,0.8,1.2,1.6,1.8,2.4c5.1-4.3,7.2-10.7,10-16.5
			c2.5-5.2,6.6-11.3,13-11.6c-0.5-0.5-1-1-1.5-1.5c0.3,6.1,0.6,12.2,0.9,18.2c1,0,2,0,3,0c-0.9-8.7,4.2-17.6,12.4-21
			c-0.6-0.5-1.3-1-1.9-1.4c-0.7,8.2-1.4,16.5-2,24.7c-0.3,3.3-0.8,7,1.8,9.6c1.9,1.9,4.6,2.1,7.1,1.4c3.2-0.9,6.1-2.9,8.4-5.3
			c1.4-1.4-0.7-3.5-2.1-2.1c-2.1,2.1-5,4.2-8,4.7c-1.2,0.2-2.4,0-3.3-0.9c-1.3-1.3-1.2-3.3-1.1-5c0.6-9.1,1.5-18.2,2.2-27.3
			c0.1-0.9-1-1.8-1.9-1.4c-9.3,3.8-15.6,13.7-14.6,23.9c0.2,1.9,3.1,2,3,0c-0.3-6.1-0.6-12.2-0.9-18.2c0-0.8-0.7-1.5-1.5-1.5
			c-6.8,0.2-11.7,5.7-14.7,11.4c-3.2,6-4.9,13.1-10.3,17.6c-1.4,1.2,0.4,3,1.8,2.4c10.1-4.4,15.9-16.4,13.3-27.1
			C176.7,129.8,173.8,130.6,174.2,132.5L174.2,132.5z"/>
	</g>
</g>
<g>
	<g>
		<path class="st0" d="M266.2,140.4c3.7-2.7,7.5-5.4,11.2-8.1c-0.7-0.7-1.4-1.4-2.1-2.1c-4,9-7.2,18.4-9.4,28
			c-0.4,1.6,1.9,2.7,2.7,1.2c2.2-4.1,4.4-8.2,6.6-12.3c2.1-4,4-8.2,6.4-12c0.8-1.3,1.9-2.4,3.2-3.2c0.7-0.5,2.2-1.3,3-0.7
			c1.3,0.9,0.5,3.8,0.4,5c-0.2,2.3-0.4,4.6-0.6,6.9c-0.5,5.2-0.9,10.5-1.4,15.7c1,0,2,0,3,0c0.6-8.6,4.5-16.6,10.9-22.4
			c-0.6,0.1-1.2,0.2-1.8,0.2c2,1.2,2.3,3.8,1.9,6c-0.4,2.8-2,5.3-3.2,7.9c-1.1,2.6-1.8,5.3-1.2,8.1c0.4,2,1.6,3.8,3.1,5.2
			c3.1,2.9,7.6,4.2,11.8,3.6c4.8-0.6,8.7-4,10.8-8.2c2.7-5.3,3-11.5,1.6-17.2c-0.4-1.9-3.3-1.1-2.9,0.8c1,4.7-2.7,8.8-3.9,13.2
			c-0.8,3.1-0.6,6.9,1.3,9.6c2.4,3.2,6.5,3.1,9.5,0.8c1.7-1.4,3-3.2,4.5-4.9c1.5-1.7,3.1-3.4,4.8-4.9c3.6-3.1,8.2-5.5,13-4
			c0-1,0-1.9,0-2.9c-4.7,1-9.4,2.1-14.1,3.1c-0.6,0.1-1.1,0.8-1.1,1.4c0.2,3.9,0.5,7.8,0.7,11.6c0,0.6,0.4,1.3,1.1,1.4
			c9.2,2,18.4-7.5,15.9-16.6c-0.4-1.6-3.1-1.3-2.9,0.4c2.2,27.7-2.5,56.1-14,81.4c-1,2.3-2.6,5.3-5.6,4.3c-2.5-0.9-4.2-3.6-4.9-6.1
			c-1.4-5.5,0-11.2,2.6-16.1c2.7-5.3,6.5-10,10.3-14.6c4.1-5,8.1-10,11.5-15.5c8-12.8,13.4-27,18.8-41.1c0.7-1.8-2.2-2.6-2.9-0.8
			c-5.1,13.3-10.3,26.7-17.6,38.9c-3.5,5.8-7.6,11.1-11.9,16.3c-4,4.9-8,9.9-10.9,15.5c-2.7,5.4-4.2,11.4-2.9,17.3
			c1.1,5,6.3,11.6,12.1,8.5c2.8-1.5,4-5,5.2-7.7c1.4-3.3,2.8-6.7,4-10.1c2.4-6.9,4.4-13.9,6-21c3.5-16.2,4.6-32.8,3.3-49.3
			c-1,0.1-2,0.3-2.9,0.4c1.9,6.9-5.2,14.5-12.2,12.9c0.4,0.5,0.7,1,1.1,1.4c-0.2-3.9-0.5-7.8-0.7-11.6c-0.4,0.5-0.7,1-1.1,1.4
			c4.7-1,9.4-2.1,14.1-3.1c1.5-0.3,1.4-2.5,0-2.9c-8.5-2.5-16,4.1-21.1,10.1c-1.7,2-5.2,7.3-8.4,4.7c-2.2-1.8-2.1-5.7-1.3-8.1
			c1.5-4.8,4.9-9,3.8-14.4c-1,0.3-1.9,0.5-2.9,0.8c1.1,4.6,1,9.6-0.9,13.9c-1.7,3.9-4.9,7.3-9.3,7.7c-3.5,0.4-7.5-0.8-9.9-3.6
			c-3.5-4-0.6-8.9,1.2-13c2-4.4,3.1-10.9-1.8-14c-0.6-0.4-1.3-0.2-1.8,0.2c-6.9,6.3-11.1,15.2-11.7,24.5c-0.1,1.9,2.8,1.9,3,0
			c0.5-5.2,0.9-10.5,1.4-15.7c0.2-2.6,0.5-5.2,0.7-7.9c0.2-2,0.4-4.2-1.1-5.9c-2.5-2.7-6.3-0.7-8.5,1.2c-1.5,1.3-2.5,2.8-3.4,4.5
			c-1.3,2.3-2.5,4.7-3.8,7c-2.8,5.3-5.6,10.6-8.5,15.9c0.9,0.4,1.8,0.8,2.7,1.2c2.2-9.4,5.2-18.5,9.1-27.3c0.5-1.2-0.7-3-2.1-2.1
			c-3.7,2.7-7.5,5.4-11.2,8.1C263.1,138.9,264.6,141.5,266.2,140.4L266.2,140.4z"/>
	</g>
</g>
<g>
	<g>
		<path class="st0" d="M320.1,135.8c1.9,0,1.9-3,0-3C318.2,132.8,318.2,135.8,320.1,135.8L320.1,135.8z"/>
	</g>
</g>
</svg>
