<?xml version="1.0" encoding="utf-8"?>
<!-- Generator: Adobe Illustrator 26.0.3, SVG Export Plug-In . SVG Version: 6.00 Build 0)  -->
<svg version="1.1" id="Layer_1" xmlns="http://www.w3.org/2000/svg" xmlns:xlink="http://www.w3.org/1999/xlink" x="0px" y="0px"
	 viewBox="0 0 930.2 612.8" style="enable-background:new 0 0 930.2 612.8;" xml:space="preserve">
<style type="text/css">
	.st0{fill:#CCCCCC;stroke:#CCCCCC;stroke-width:6;stroke-miterlimit:10;}
	.st1{fill:#92C1E5;stroke:#92C1E5;stroke-width:6;stroke-miterlimit:10;}
	.st2{fill:#ED1C24;stroke:#ED1C24;stroke-width:6;stroke-miterlimit:10;}
	.st3{fill:#FCEE21;stroke:#FCEE21;stroke-width:6;stroke-miterlimit:10;}
	.st4{fill:#00FF00;stroke:#00FF00;stroke-width:6;stroke-miterlimit:10;}
	.st5{fill:#FFFFFF;stroke:#FFFFFF;stroke-width:6;stroke-miterlimit:10;}
	.st6{fill:#666666;stroke:#666666;stroke-width:6;stroke-miterlimit:10;}
	.st7{fill:#ABCA6D;}
	.st8{fill:#E0B299;}
	.st9{fill:#3FA9F5;}
	.st10{fill:#FF1D25;}
	.st11{fill:#FF931E;}
	.st12{fill:#FF0000;stroke:#FF0000;stroke-width:6;stroke-miterlimit:10;}
	.st13{fill:#662D91;stroke:#662D91;stroke-width:6;stroke-miterlimit:10;}
	.st14{fill:#3FA9F5;stroke:#3FA9F5;stroke-width:6;stroke-miterlimit:10;}
	.st15{fill:#F7931E;stroke:#666666;stroke-width:6;stroke-miterlimit:10;}
	.st16{fill:#92C1E5;stroke:#666666;stroke-width:6;stroke-miterlimit:10;}
	.st17{fill:#662D91;stroke:#666666;stroke-width:6;stroke-miterlimit:10;}
	.st18{opacity:0.2;fill:#FFFFFF;stroke:#FF9528;stroke-width:10;stroke-miterlimit:10;enable-background:new    ;}
	.st19{fill:#FFA848;}
</style>
<rect x="229.5" y="71.9" class="st0" width="479.5" height="264.1"/>
<rect x="229.5" y="71.9" class="st1" width="479.5" height="39"/>
<ellipse class="st2" cx="248.1" cy="90.4" rx="7.3" ry="5.4"/>
<ellipse class="st3" cx="279.7" cy="90.4" rx="7.3" ry="5.4"/>
<ellipse class="st4" cx="311.8" cy="90.4" rx="7.3" ry="5.4"/>
<rect x="505.2" y="142.8" class="st5" width="155.2" height="92.5"/>
<rect x="272.4" y="157.8" class="st6" width="159.6" height="8"/>
<rect x="272.4" y="172.9" class="st6" width="159.6" height="8"/>
<rect x="272.4" y="189.3" class="st6" width="159.6" height="8"/>
<rect x="272.4" y="205.8" class="st6" width="159.6" height="8"/>
<rect x="272.4" y="222.2" class="st6" width="159.6" height="8"/>
<ellipse class="st7" cx="298.9" cy="388.1" rx="26.3" ry="21.3"/>
<ellipse class="st7" cx="298.1" cy="421" rx="33.5" ry="15.5"/>
<path class="st7" d="M327.2,437.9H269c-2.4,0-4.4-2-4.4-4.4v-9.3c0-2.4,2-4.4,4.4-4.4h58.2c2.4,0,4.4,2,4.4,4.4v9.3
	C331.6,435.9,329.6,437.9,327.2,437.9z"/>
<ellipse class="st8" cx="386.1" cy="388.2" rx="26.3" ry="21.3"/>
<ellipse class="st8" cx="385.4" cy="421.2" rx="33.5" ry="15.5"/>
<path class="st8" d="M414.4,438h-58.2c-2.4,0-4.4-2-4.4-4.4v-9.3c0-2.4,2-4.4,4.4-4.4h58.2c2.4,0,4.4,2,4.4,4.4v9.3
	C418.8,436,416.9,438,414.4,438z"/>
<ellipse class="st9" cx="469.8" cy="388.2" rx="26.3" ry="21.3"/>
<ellipse class="st9" cx="469" cy="421.2" rx="33.5" ry="15.5"/>
<path class="st9" d="M498.1,438H440c-2.4,0-4.4-2-4.4-4.4v-9.3c0-2.4,2-4.4,4.4-4.4h58.2c2.4,0,4.4,2,4.4,4.4v9.3
	C502.5,436,500.5,438,498.1,438z"/>
<ellipse class="st10" cx="555.5" cy="388.2" rx="26.3" ry="21.3"/>
<ellipse class="st10" cx="554.7" cy="421.2" rx="33.5" ry="15.5"/>
<path class="st10" d="M583.7,438h-58.2c-2.4,0-4.4-2-4.4-4.4v-9.3c0-2.4,2-4.4,4.4-4.4h58.2c2.4,0,4.4,2,4.4,4.4v9.3
	C588.1,436,586.2,438,583.7,438z"/>
<ellipse class="st11" cx="641.7" cy="388.2" rx="26.3" ry="21.3"/>
<ellipse class="st11" cx="640.9" cy="421.2" rx="33.5" ry="15.5"/>
<path class="st11" d="M670,438h-58.2c-2.4,0-4.4-2-4.4-4.4v-9.3c0-2.4,2-4.4,4.4-4.4H670c2.4,0,4.4,2,4.4,4.4v9.3
	C674.4,436,672.4,438,670,438z"/>
<rect x="509.6" y="176.8" class="st12" width="7.7" height="58.5"/>
<rect x="525" y="165.8" class="st13" width="7.7" height="69.5"/>
<rect x="543.1" y="176.8" class="st14" width="7.7" height="58.5"/>
<rect x="561.3" y="197.4" class="st12" width="7.7" height="37.9"/>
<rect x="578.8" y="176.8" class="st13" width="7.7" height="58.5"/>
<rect x="595.3" y="216.4" class="st14" width="7.7" height="19"/>
<rect x="611.8" y="157.8" class="st12" width="7.7" height="77.5"/>
<rect x="629.4" y="186.5" class="st13" width="7.7" height="48.9"/>
<rect x="646.4" y="171.3" class="st14" width="7.7" height="64"/>
<rect x="502.5" y="263.5" class="st5" width="159.8" height="52.6"/>
<ellipse class="st15" cx="529.4" cy="290.1" rx="20.3" ry="15.6"/>
<ellipse class="st16" cx="582.1" cy="290.1" rx="20.3" ry="15.6"/>
<ellipse class="st17" cx="637" cy="290.1" rx="20.3" ry="15.6"/>
<rect x="271.4" y="271.4" class="st6" width="159.6" height="8"/>
<rect x="271.4" y="286.9" class="st6" width="159.6" height="8"/>
<rect x="271.4" y="302.5" class="st6" width="159.6" height="8"/>
<rect x="83.1" y="37" class="st18" width="799.4" height="559"/>
<g>
	<g>
		<path class="st19" d="M463.3,492.7c-0.3,13.3-0.7,26.7-0.4,40c0.1,6.6,0.4,13.2,0.8,19.8c0.2,3.3,0.5,6.6,0.9,9.9
			c0.3,2.8,0.4,5.8,1.2,8.6c1.8,6.1,8.6,8.7,14.5,8.1c0.6-0.1,1.3-0.4,1.4-1.1c3.9-23,5.8-46.3,5.7-69.6c0-6.6-0.2-13.1-0.6-19.7
			c-0.1-1.9-3.1-1.9-3,0c1.2,22.9,0.5,46-2.2,68.8c-0.8,6.6-1.7,13.1-2.8,19.7c0.5-0.4,1-0.7,1.4-1.1c-4.9,0.5-10.6-1.4-11.8-6.6
			c-0.6-2.8-0.8-5.7-1.1-8.5c-0.3-3.1-0.6-6.2-0.8-9.4c-0.8-12.5-0.9-25-0.8-37.5c0.1-7.1,0.3-14.2,0.4-21.2
			C466.4,490.8,463.4,490.8,463.3,492.7L463.3,492.7z"/>
	</g>
</g>
<g>
	<g>
		<path class="st19" d="M490.6,490.3c9.3,21.4,19.4,42.7,26.4,65c1.9,6.1,3.6,12.3,4.9,18.6c0.4,1.9,3.3,1.1,2.9-0.8
			c-4.8-22.9-14.2-44.4-23.5-65.7c-2.7-6.2-5.4-12.4-8.1-18.6C492.4,487,489.8,488.6,490.6,490.3L490.6,490.3z"/>
	</g>
</g>
<g>
	<g>
		<path class="st19" d="M502.4,576.3c5.2-22.4,10.3-44.9,15.1-67.5c1.4-6.3,2.7-12.6,4-18.9c0.4-1.9-2.5-2.7-2.9-0.8
			c-4.7,22.5-9.7,45-14.8,67.5c-1.4,6.3-2.9,12.6-4.4,18.9C499.1,577.4,502,578.2,502.4,576.3L502.4,576.3z"/>
	</g>
</g>
</svg>
