<?xml version="1.0" encoding="utf-8"?>
<!-- Generator: Adobe Illustrator 26.0.3, SVG Export Plug-In . SVG Version: 6.00 Build 0)  -->
<svg version="1.1" id="Layer_1" xmlns="http://www.w3.org/2000/svg" xmlns:xlink="http://www.w3.org/1999/xlink" x="0px" y="0px"
	 viewBox="0 0 930.2 612.8" style="enable-background:new 0 0 930.2 612.8;" xml:space="preserve">
<style type="text/css">
	.st0{fill:#E6E6E6;}
	.st1{fill:#8C6239;}
	.st2{fill:#603813;}
	.st3{fill:#0000FF;}
	.st4{fill:#92C1E5;}
	.st5{fill:#FBB03B;}
	.st6{fill:#F15A24;}
	.st7{opacity:0.8;fill:#CCCCCC;enable-background:new    ;}
	.st8{opacity:0.7;fill:#A9DAFF;enable-background:new    ;}
	.st9{fill:#FFFF00;}
	.st10{opacity:0.8;fill:#B3B3B3;enable-background:new    ;}
	.st11{opacity:0.8;fill:#1A1A1A;enable-background:new    ;}
	.st12{fill:#FFFFFF;}
	.st13{fill:#662D91;}
	.st14{fill:#CCCCCC;}
	.st15{fill:#009245;}
	.st16{fill:#D9E021;}
	.st17{fill:#808080;}
	.st18{fill:#666666;}
	.st19{fill:#F7931E;}
	.st20{fill:#002BFF;}
	.st21{fill:#F2D8AB;}
	.st22{fill:#FCEE21;}
	.st23{fill:#FF9D52;}
	.st24{fill:#FFC953;}
	.st25{fill:#ABB299;}
	.st26{fill:#ABCA6D;}
	.st27{font-family:'Luminari-Regular';}
	.st28{font-size:6.7279px;}
	.st29{fill:#86B5FF;}
	.st30{font-size:7.3706px;}
	.st31{fill:#0071BC;}
	.st32{font-family:'ArialMT';}
	.st33{font-size:6.4696px;}
	.st34{fill:#FFFFFF;stroke:#29ABE2;stroke-miterlimit:10;}
	.st35{fill:#29ABE2;stroke:#29ABE2;stroke-miterlimit:10;}
	.st36{fill:#562D78;stroke:#562D78;stroke-miterlimit:10;}
	.st37{fill:#D500ED;stroke:#D500ED;stroke-miterlimit:10;}
	.st38{fill:#D500ED;}
	.st39{fill:#551B00;stroke:#562D78;stroke-miterlimit:10;}
	.st40{fill:#F7931E;stroke:#F7931E;stroke-miterlimit:10;}
	.st41{opacity:0.2;fill:#FFFFFF;stroke:#FF9528;stroke-width:10;stroke-miterlimit:10;enable-background:new    ;}
	.st42{fill:#FFA848;}
</style>
<g>
	<polygon class="st0" points="222.9,358.6 201.4,333.5 274.8,284.8 296.3,310 	"/>
	<polygon class="st1" points="258.5,332.5 239.8,310.6 263.3,295.1 282,316.9 	"/>
	<polygon class="st2" points="228.6,352.2 210,330.4 233.5,314.8 252.1,336.7 	"/>
</g>
<g>
	<polygon class="st0" points="251.8,378.1 224,358.4 281.5,295.4 309.3,315.1 	"/>
	<polygon class="st3" points="278.9,345.1 254.8,328 273.2,307.8 297.4,324.9 	"/>
	<polygon class="st4" points="255.6,370.8 231.4,353.6 249.8,333.4 274.1,350.5 	"/>
</g>
<g>
	<polygon class="st0" points="280.1,389.7 247.3,377.2 283.5,303 316.3,315.3 	"/>
	<polygon class="st5" points="296.2,351.4 267.7,340.6 279.3,316.9 307.9,327.6 	"/>
	<polygon class="st6" points="281.5,381.6 252.9,370.9 264.6,347 293.1,357.9 	"/>
</g>
<rect x="345" y="155.3" class="st7" width="309.8" height="181"/>
<rect x="359.8" y="170.3" class="st8" width="281" height="150.9"/>
<rect x="475.8" y="336.1" class="st7" width="56.4" height="31.8"/>
<rect x="447" y="367.9" class="st7" width="110" height="9.8"/>
<path class="st9" d="M295.6,84.5c-16.6,0-30.1,15.1-30.8,34.1c0,0.4,0,1,0.1,1.4c0,0.1,0,0.2,0,0.3c0.9,1.9,1.3,3.8,1.6,5.8
	c5.4,11.7,22,29.5,29.1,29.5c9.9,0,25.6-21.7,29.8-31.7c0.1-0.3,0.2-0.8,0.3-1.1c0.2-2.3,0.3-4.6,0.6-6.9
	C324.4,98.3,311.4,84.5,295.6,84.5z"/>
<rect x="286.3" y="150.7" class="st10" width="19.3" height="13.1"/>
<rect x="293" y="163.7" class="st11" width="5.9" height="2.6"/>
<rect x="645.1" y="313.7" class="st7" width="54.9" height="77.2"/>
<rect x="651.1" y="321.4" class="st12" width="43.8" height="57.7"/>
<ellipse cx="673.4" cy="385" rx="4.4" ry="3.9"/>
<ellipse cx="673" cy="317.5" rx="12.2" ry="0.7"/>
<rect x="657.8" y="330.6" class="st3" width="33.5" height="9.2"/>
<rect x="655.6" y="345.7" class="st13" width="11.1" height="14.4"/>
<rect x="671.2" y="348.4" class="st14" width="20" height="0.9"/>
<rect x="671.2" y="350.1" class="st14" width="20" height="0.9"/>
<rect x="671.2" y="352" class="st14" width="20" height="0.9"/>
<rect x="281.8" y="301.9" class="st0" width="35.7" height="83.8"/>
<rect x="284.5" y="353.6" class="st15" width="31" height="26.8"/>
<rect x="284.5" y="319.5" class="st16" width="31" height="26.8"/>
<path d="M378.5,119.8l-11.8,4.6c-0.6,0.2-0.8,0.8-0.6,1.3l0.1,0.3c0.2,0.4,0.9,0.8,1.4,0.5l11.8-4.6c0.6-0.2,0.8-0.8,0.6-1.3
	l-0.1-0.3C379.7,119.8,379,119.6,378.5,119.8z"/>
<path d="M379.9,128.7l-12.9-4.2c-0.3-0.1-0.8,0-0.9,0.3l-0.4,1c-0.1,0.3,0,0.7,0.4,0.8l12.9,4.2c0.3,0.1,0.8,0,0.9-0.3l0.4-1
	C380.5,129.2,380.4,128.9,379.9,128.7z"/>
<rect x="386.9" y="116" width="3.2" height="17.7"/>
<rect x="388.6" y="123.4" width="9" height="2.4"/>
<rect x="395.9" y="116" width="3.2" height="17.7"/>
<rect x="408.1" y="116" width="3.2" height="17.7"/>
<path d="M409.7,117.8l-4.8,4c-0.3,0.2-0.8,0.2-1.1,0l-0.9-0.8c-0.3-0.2-0.3-0.7,0-0.9l4.8-4c0.3-0.2,0.8-0.2,1.1,0l0.9,0.8
	C409.9,117.2,409.9,117.6,409.7,117.8z"/>
<path d="M417.5,130.2l11.9-4.3c0.6-0.2,0.9-0.8,0.6-1.3l-0.1-0.3c-0.2-0.5-0.9-0.8-1.4-0.5l-11.9,4.3c-0.6,0.2-0.9,0.8-0.6,1.3
	l0.1,0.3C416.3,130.2,416.9,130.4,417.5,130.2z"/>
<path d="M416.3,121.2l12.8,4.5c0.3,0.1,0.8,0,0.9-0.3l0.4-1c0.1-0.3,0-0.7-0.3-0.8l-12.8-4.5c-0.3-0.1-0.8,0-0.9,0.3l-0.4,1
	C415.7,120.8,415.9,121.1,416.3,121.2z"/>
<ellipse cx="478.4" cy="104.3" rx="25.6" ry="20.8"/>
<ellipse class="st17" cx="478.7" cy="103.7" rx="13.5" ry="10.9"/>
<ellipse class="st18" cx="478.7" cy="104.1" rx="3.6" ry="2.8"/>
<rect x="476.1" y="89.3" class="st18" width="5.7" height="4.3"/>
<polygon class="st18" points="489.1,97.5 484.9,94.4 488.3,91.3 492.6,94.3 "/>
<rect x="491.7" y="100.8" class="st18" width="5.2" height="4.6"/>
<polygon class="st18" points="486.4,112.3 490,108.7 494.1,111.3 490.6,115 "/>
<polygon class="st18" points="472.9,94.8 468.3,97.6 465.2,94.2 469.7,91.4 "/>
<rect x="461" y="101.2" class="st18" width="5.2" height="4.6"/>
<rect x="476.1" y="113.9" class="st18" width="5.7" height="4.3"/>
<polygon class="st18" points="468.2,115.8 464.2,112.5 467.9,109.4 471.9,112.7 "/>
<ellipse cx="525.7" cy="125.8" rx="25.6" ry="20.8"/>
<ellipse class="st19" cx="525.9" cy="125.3" rx="13.5" ry="10.9"/>
<ellipse class="st18" cx="525.9" cy="125.6" rx="3.6" ry="2.8"/>
<rect x="523.3" y="110.7" class="st19" width="5.7" height="4.3"/>
<polygon class="st19" points="536.4,119 532,116 535.5,112.8 539.8,115.9 "/>
<rect x="538.9" y="122.4" class="st19" width="5.2" height="4.6"/>
<polygon class="st19" points="533.7,133.8 537.3,130.2 541.3,132.8 537.7,136.4 "/>
<polygon class="st19" points="520,116.2 515.6,119 512.4,115.8 516.8,112.9 "/>
<rect x="508.1" y="122.8" class="st19" width="5.2" height="4.6"/>
<rect x="523.3" y="135.5" class="st19" width="5.7" height="4.3"/>
<polygon class="st19" points="515.4,137.2 511.4,133.9 515,131 519.1,134.3 "/>
<path d="M248.5,227.7l-13.9,5.1c-0.7,0.2-1,0.9-0.7,1.4l0.2,0.3c0.3,0.5,1.1,0.8,1.7,0.5l13.9-5.1c0.7-0.2,1-0.9,0.7-1.4l-0.2-0.3
	C249.9,227.7,249.1,227.5,248.5,227.7z"/>
<path d="M250.3,237.9l-15.1-4.7c-0.4-0.1-0.9,0-1,0.4l-0.4,1.1c-0.1,0.3,0.1,0.8,0.4,0.9l15.1,4.7c0.4,0.1,0.9,0,1-0.4l0.4-1.1
	C250.9,238.4,250.7,238,250.3,237.9z"/>
<path d="M262.9,223c-0.3,0-0.6-0.1-0.9-0.1c-0.1,0-0.2,0-0.4-0.1c-0.2,0-0.4,0-0.7,0c-0.3,0-0.7,0-0.9-0.1c-0.1,0-0.1,0-0.2,0
	s-0.2,0-0.3,0v19.5h3.7V223C263.2,223.1,263,223.1,262.9,223z"/>
<g>
	<path d="M264.7,223.4L264.7,223.4c-0.4-0.1-0.9-0.2-1.2-0.4c-0.2,0-0.6-0.1-0.8-0.1c-0.1,0-0.2,0-0.4-0.1c-0.2,0-0.4,0-0.7,0
		c-0.3,0-0.6,0-0.9-0.1c-0.1,0-0.1,0-0.2,0c0,0,0,0-0.1,0c-1,1.2-1.3,2.3-0.3,3.9c6.2-1.6,11.7,2,11.1,8c-0.2,2,0.4,1.1,3.2,0.3
		c0-0.1,0-0.1,0-0.2c0-0.1,0-0.2,0.1-0.3C274.2,228.3,270.2,225.6,264.7,223.4z"/>
</g>
<g>
	<path d="M271.1,233.4c0,0.1,0,0.2,0,0.3c0,0.3,0,0.7-0.1,0.9c0,3.8-3.4,6.3-8,5.4c-1.8-0.4-0.9,0.2-0.6,2.3
		c6.7,0.9,9.3-2.6,12.1-7.3v-0.1c0-0.1,0-0.2,0.1-0.3C273.6,233.5,272.6,232.9,271.1,233.4z"/>
</g>
<rect x="278.9" y="227.4" width="5.1" height="15"/>
<ellipse cx="281.8" cy="220.7" rx="3" ry="2.6"/>
<path d="M299.9,242.7L299,243c-0.7,0.3-1.6,0-1.8-0.7l-6.8-13.3c-0.3-0.7,0-1.3,0.7-1.6l0.9-0.3c0.7-0.3,1.6,0,1.8,0.7l6.8,13.3
	C300.9,241.7,300.5,242.5,299.9,242.7z"/>
<path d="M299.2,242.7l-1.2-0.4c-0.6-0.2-0.9-0.9-0.7-1.3l6.4-13.1c0.2-0.5,0.9-0.8,1.6-0.5l1.2,0.4c0.6,0.2,0.9,0.9,0.7,1.3
	l-6.4,13.1C300.4,242.7,299.7,242.9,299.2,242.7z"/>
<path d="M318,240.3l13.3-4.8c0.7-0.2,0.9-0.9,0.7-1.4l-0.1-0.3c-0.2-0.5-1-0.8-1.7-0.5l-13.3,4.8c-0.7,0.2-0.9,0.9-0.7,1.4l0.1,0.3
	C316.6,240.2,317.3,240.5,318,240.3z"/>
<path d="M316.5,230.3l14.2,4.9c0.4,0.1,0.9,0,1-0.3l0.6-1.1c0.1-0.3,0-0.8-0.4-0.9l-14.2-4.9c-0.4-0.1-0.9,0-1,0.3l-0.6,1.1
	C316,229.8,316.2,230.1,316.5,230.3z"/>
<rect x="685.3" y="207.6" class="st20" width="14.9" height="45.8"/>
<polygon class="st21" points="692.6,196.2 696.4,201.9 700.2,207.6 692.7,207.6 685.3,207.6 688.9,201.9 "/>
<polygon class="st17" points="692.5,196 693.7,197.8 695,199.8 692.6,199.7 690.3,199.7 691.4,197.8 "/>
<rect x="685.3" y="253.4" class="st17" width="14.9" height="7.9"/>
<rect x="685.3" y="253.4" class="st22" width="14.9" height="2.6"/>
<rect x="351.7" y="359.4" class="st23" width="51.3" height="57"/>
<g>
	<path class="st24" d="M398.5,412.7c-15.1,1.6-29.7,1.4-44.7-0.9c7.8-5,3.3-12,10.9-14.7c25.2,8.8,5.9-6,32.4-9.7
		C398.5,395.7,397.8,404.3,398.5,412.7z"/>
</g>
<ellipse class="st24" cx="389.3" cy="370.2" rx="7.8" ry="6.9"/>
<rect x="411.2" y="388.9" class="st25" width="51.3" height="57"/>
<ellipse class="st26" cx="438.3" cy="416.1" rx="12.2" ry="10.8"/>
<ellipse class="st26" cx="437.9" cy="432.8" rx="15.6" ry="7.9"/>
<path class="st26" d="M448.9,441.2H427c-2.6,0-4.7-2.1-4.7-4.6l0,0c0-2.5,2.1-4.6,4.7-4.6h21.9c2.6,0,4.7,2.1,4.7,4.6l0,0
	C453.5,439.3,451.4,441.2,448.9,441.2z"/>
<rect x="596.6" y="91.7" width="113.9" height="53.1"/>
<text transform="matrix(1.5895 0 0 1 590.5488 130.2656)" class="st27 st28"> </text>
<text transform="matrix(1.5895 0 0 1 590.5488 138.3613)" class="st27 st28">    </text>
<text transform="matrix(1.5895 0 0 1 600.2866 138.3613)" class="st12 st27 st28">&lt;</text>
<text transform="matrix(1.5895 0 0 1 606.0264 138.3613)" class="st29 st27 st28">title</text>
<text transform="matrix(1.5895 0 0 1 626.8936 138.3613)" class="st12 st27 st28">&gt;Forside&lt;/</text>
<text transform="matrix(1.5895 0 0 1 678.3672 138.3613)" class="st29 st27 st28">title</text>
<text transform="matrix(1.5895 0 0 1 699.2344 138.3613)" class="st12 st27 st28">&gt;</text>
<text transform="matrix(1.5895 0 0 1 590.5488 146.457)" class="st27 st28"> </text>
<text transform="matrix(1.1238 0 0 1 600.8218 126.6729)" class="st27 st30"> </text>
<text transform="matrix(1.1238 0 0 1 602.6655 126.6729)" class="st12 st27 st30">&lt;</text>
<text transform="matrix(1.1238 0 0 1 607.0923 126.6729)" class="st31 st27 st30">meta</text>
<text transform="matrix(1.1238 0 0 1 627.1313 126.6729)" class="st27 st30"> </text>
<text transform="matrix(1.1238 0 0 1 628.9751 126.6729)" class="st29 st27 st30">charset=</text>
<text transform="matrix(1.1238 0 0 1 661.6782 126.6729)" class="st19 st27 st30">&quot;UTF-8&quot;</text>
<text transform="matrix(1.1238 0 0 1 693.2749 126.6729)" class="st27 st30"> </text>
<text transform="matrix(1.1238 0 0 1 695.1196 126.6729)" class="st12 st27 st30">/&gt;</text>
<text transform="matrix(1.5227 0 0 1 602.8267 99.46)" class="st12 st32 st33">&lt;</text>
<text transform="matrix(1.5227 0 0 1 608.6577 99.46)" class="st31 st32 st33">!DOCTYPE</text>
<text transform="matrix(1.5227 0 0 1 650.3042 99.46)" class="st32 st33"> </text>
<text transform="matrix(1.5227 0 0 1 652.4712 99.46)" class="st29 st32 st33">html</text>
<text transform="matrix(1.5227 0 0 1 671.6279 99.46)" class="st12 st32 st33">&gt;</text>
<text transform="matrix(1.5227 0 0 1 602.8267 107.2275)" class="st12 st32 st33">&lt;</text>
<text transform="matrix(1.5227 0 0 1 608.6577 107.2275)" class="st31 st32 st33">html lang</text>
<text transform="matrix(1.5227 0 0 1 648.1392 107.2275)" class="st12 st32 st33">=</text>
<text transform="matrix(1.5227 0 0 1 653.9697 107.2275)" class="st19 st32 st33">&quot;en&quot;</text>
<text transform="matrix(1.5227 0 0 1 670.9624 107.2275)" class="st12 st32 st33">&gt;</text>
<text transform="matrix(1.5227 0 0 1 602.8267 114.9951)" class="st32 st33"> </text>
<text transform="matrix(1.5227 0 0 1 604.9927 114.9951)" class="st31 st32 st33"> </text>
<text transform="matrix(1.5227 0 0 1 606.9917 114.9951)" class="st12 st32 st33">&lt;</text>
<text transform="matrix(1.5227 0 0 1 612.8208 114.9951)" class="st31 st32 st33">head</text>
<text transform="matrix(1.5227 0 0 1 633.646 114.9951)" class="st12 st32 st33">&gt;</text>
<path class="st34" d="M530.2,424.3h-15.9c-6.4,0-11.8-5.1-11.8-11.6v-7c0-6.3,5.2-11.6,11.8-11.6h15.9c6.4,0,11.8,5.1,11.8,11.6v7
	C541.9,419,536.6,424.3,530.2,424.3z"/>
<rect x="531.2" y="399" class="st35" width="5.9" height="20.2"/>
<polygon class="st35" points="510,417.6 506.9,413.7 530.8,399.1 533.8,403.1 "/>
<polygon class="st35" points="505.7,409.2 507.9,404.8 533,414.7 530.8,419 "/>
<path class="st36" d="M578.7,442.2h-15.9c-6.4,0-11.8-5.1-11.8-11.6v-7c0-6.3,5.2-11.6,11.8-11.6h15.9c6.4,0,11.8,5.1,11.8,11.6v7
	C590.5,437.1,585.3,442.2,578.7,442.2z"/>
<polygon class="st37" points="560.8,438.6 555.8,436.2 567.3,416.2 572.3,418.6 "/>
<polygon class="st37" points="572.4,436 567.4,438.6 555.3,419 560.2,416.4 "/>
<path class="st38" d="M584.2,437.7c0.2,0,0.6,0.1,0.8,0.1c0.1,0,0.2,0,0.3,0.1c0.2,0,0.4,0,0.6,0c0.3,0,0.6,0,0.9,0.1h0.1
	c0.1,0,0.2,0,0.3,0v-19.6h-3.3v19.3C584,437.6,584.1,437.7,584.2,437.7z"/>
<g>
	<path class="st38" d="M582.6,437.5L582.6,437.5c0.3,0.1,0.8,0.2,1.1,0.3c0.2,0,0.4,0,0.7,0.1c0.1,0,0.2,0,0.3,0c0.2,0,0.3,0,0.6,0
		s0.6,0,0.8,0h0.1c0,0,0,0,0.1,0c0.9-0.8,1.2-1.5,0.3-2.6c-5.6,1.1-10.6-1.3-10.1-5.4c0.1-1.3-0.4-0.8-2.9-0.2v0.1
		c0,0.1,0,0.1-0.1,0.2C574,434.4,577.6,436.1,582.6,437.5z"/>
</g>
<g>
	<path class="st38" d="M576.9,431c0-0.1,0-0.2,0-0.2c0-0.2,0-0.4,0-0.7c0-2.5,3.1-4.3,7.2-3.6c1.6,0.2,0.9-0.1,0.6-1.5
		c-6-0.5-8.3,1.8-10.9,4.9c0,0,0,0,0,0.1s0,0.1-0.1,0.2C574.6,430.8,575.4,431.2,576.9,431z"/>
</g>
<path class="st39" d="M613,406.2h-15.9c-6.4,0-11.8-5.1-11.8-11.6v-7c0-6.3,5.2-11.6,11.8-11.6H613c6.4,0,11.8,5.1,11.8,11.6v7
	C624.8,401.1,619.4,406.2,613,406.2z"/>
<polygon class="st40" points="587.8,401.4 592,403.3 599.4,380.4 595.2,378.4 "/>
<polygon class="st40" points="603.2,403.1 607.3,400.7 598,378.8 594,381.1 "/>
<rect x="591.5" y="394.7" class="st40" width="9.3" height="3.1"/>
<rect x="612.7" y="388.1" class="st19" width="5.1" height="15"/>
<ellipse class="st19" cx="615.6" cy="381.4" rx="3" ry="2.6"/>
<rect x="90.6" y="28.3" class="st41" width="799.4" height="559"/>
<g>
	<g>
		<path class="st42" d="M449,490.7c3.3,20.8,7.6,41.4,13.1,61.8c1.6,5.9,3.2,11.7,5,17.5c0.5,1.6,2.9,1.3,2.9-0.4
			c0.3-19.5,4-38.6,7.7-57.7c-1,0-1.9,0-2.9,0c5.6,18.4,10.2,37.1,13.5,56c0.3,1.7,2.9,1.2,2.9-0.4c1.1-21.3,4-42.4,8.5-63.2
			c1.3-5.9,2.7-11.9,4.2-17.7c0.5-1.9-2.4-2.7-2.9-0.8c-5.4,20.9-9.3,42.2-11.4,63.6c-0.6,6-1.1,12.1-1.4,18.1c1-0.1,2-0.3,2.9-0.4
			c-3.3-18.9-7.8-37.7-13.5-56c-0.4-1.3-2.6-1.5-2.9,0c-3.7,19.3-7.5,38.7-7.8,58.5c1-0.1,2-0.3,2.9-0.4
			c-6.1-20.3-11.1-40.8-15-61.6c-1.1-5.9-2.1-11.7-3-17.6C451.6,488,448.7,488.8,449,490.7L449,490.7z"/>
	</g>
</g>
<g>
	<g>
		<path class="st42" d="M511.1,486.8c-4.2,12.8-6.1,26.1-6.7,39.5c-0.3,6.6-0.2,13.1-0.1,19.7c0.1,3.3,0.2,6.6,0.3,9.9
			c0.1,3,0,6.1,0.5,9.1c0.5,2.9,2.6,4.8,5.3,5.6c2.3,0.6,5.4,0.8,7.5-0.7c1.5-1.1,0-3.7-1.5-2.6c-1.6,1.1-4,0.8-5.8,0.2
			c-2.3-0.8-2.6-2.8-2.7-5c-0.3-6.1-0.5-12.2-0.7-18.3c-0.3-12.1,0-24.2,1.8-36.2c1.1-6.9,2.7-13.8,4.9-20.4
			C514.6,485.7,511.7,485,511.1,486.8L511.1,486.8z"/>
	</g>
</g>
<g>
	<g>
		<path class="st42" d="M510.2,539.2c2.6,0,5.2,0,7.8,0c0.8,0,1.5-0.7,1.5-1.5c0-0.8-0.7-1.5-1.5-1.5c-2.6,0-5.2,0-7.8,0
			c-0.8,0-1.5,0.7-1.5,1.5C508.8,538.5,509.4,539.2,510.2,539.2L510.2,539.2z"/>
	</g>
</g>
<g>
	<g>
		<path class="st42" d="M516.6,488.8c2.6-0.4,5.2-0.7,7.8-1.1c0.8-0.1,1.3-1.1,1-1.8c-0.3-0.9-1-1.2-1.8-1c-2.6,0.4-5.2,0.7-7.8,1.1
			c-0.8,0.1-1.3,1.1-1,1.8C515,488.6,515.8,488.9,516.6,488.8L516.6,488.8z"/>
	</g>
</g>
<g>
	<g>
		<path class="st42" d="M541.3,486.1c-2.6,21.5-5.3,43-7.9,64.5c-0.7,6.1-1.5,12.2-2.2,18.4c-0.2,1.9,2.8,1.9,3,0
			c2.6-21.5,5.3-43,7.9-64.5c0.7-6.1,1.5-12.2,2.2-18.3C544.6,484.1,541.6,484.2,541.3,486.1L541.3,486.1z"/>
	</g>
</g>
<g>
	<g>
		<path class="st42" d="M546.4,488.8c2.2-0.9,4.9,0.4,5.9,2.5c1.4,2.9,2.2,6.4,2.8,9.6c1.3,6.6,1.3,13.4,0.1,20c0.3-0.3,0.7-0.7,1-1
			c-4.6,0.9-9.1,1.9-13.7,2.8c0.4,0.9,0.8,1.8,1.2,2.7c3-1.5,9-0.4,9.8,3.4c0.5,2.2-0.1,4.9-0.4,7.1c-0.3,3-0.6,6-0.9,9
			c-0.5,5.5-0.8,11.1-1.6,16.5c-0.3,1.8-0.8,3.6-2.1,5c-1.3,1.4-2.9,2.1-4.7,2.5c-1.9,0.4-4,0.5-5.9,0.2c-1-0.1-3.3-0.6-3.7-1.5
			c-0.7-1.8-3.6-1-2.9,0.8c1.5,3.7,6.9,4.1,10.3,3.8c4.8-0.3,9.3-2.4,11.1-7.1c0.9-2.4,1-5.1,1.3-7.6c0.3-3.5,0.7-7,1-10.5
			c0.4-3.6,0.7-7.3,1.1-10.9c0.3-2.7,1-5.8,0.2-8.5c-1.6-5.5-9.5-7.1-14.2-4.8c-1.6,0.8-0.4,3.1,1.2,2.7c4.6-0.9,9.1-1.9,13.7-2.8
			c0.5-0.1,1-0.6,1-1c1.4-7.8,1.3-15.7-0.5-23.5c-0.4-1.9-1-3.8-1.6-5.7c-0.5-1.5-1-3.1-2.1-4.3c-2-2.2-5.3-3.6-8.2-2.4
			c-0.8,0.3-1.3,1-1,1.8C544.7,488.4,545.7,489.1,546.4,488.8L546.4,488.8z"/>
	</g>
</g>
</svg>
